<?xml version="1.0" encoding="utf-8" standalone="no"?>
<!DOCTYPE svg PUBLIC "-//W3C//DTD SVG 1.1//EN"
  "http://www.w3.org/Graphics/SVG/1.1/DTD/svg11.dtd">
<!-- Created with matplotlib (https://matplotlib.org/) -->
<svg height="326.88pt" version="1.1" viewBox="0 0 414.72 326.88" width="414.72pt" xmlns="http://www.w3.org/2000/svg" xmlns:xlink="http://www.w3.org/1999/xlink">
 <metadata>
  <rdf:RDF xmlns:cc="http://creativecommons.org/ns#" xmlns:dc="http://purl.org/dc/elements/1.1/" xmlns:rdf="http://www.w3.org/1999/02/22-rdf-syntax-ns#">
   <cc:Work>
    <dc:type rdf:resource="http://purl.org/dc/dcmitype/StillImage"/>
    <dc:date>2022-03-01T22:05:16.927242</dc:date>
    <dc:format>image/svg+xml</dc:format>
    <dc:creator>
     <cc:Agent>
      <dc:title>Matplotlib v3.3.3, https://matplotlib.org/</dc:title>
     </cc:Agent>
    </dc:creator>
   </cc:Work>
  </rdf:RDF>
 </metadata>
 <defs>
  <style type="text/css">*{stroke-linecap:butt;stroke-linejoin:round;}</style>
 </defs>
 <g id="figure_1">
  <g id="patch_1">
   <path d="M 0 326.88 
L 414.72 326.88 
L 414.72 0 
L 0 0 
z
" style="fill:#ffffff;"/>
  </g>
  <g id="axes_1">
   <g id="patch_2">
    <path d="M 51.84 290.9232 
L 373.248 290.9232 
L 373.248 39.2256 
L 51.84 39.2256 
z
" style="fill:#eaeaf2;"/>
   </g>
   <g id="matplotlib.axis_1">
    <g id="xtick_1">
     <g id="line2d_1">
      <path clip-path="url(#pdbc8a24937)" d="M 66.449455 290.9232 
L 66.449455 39.2256 
" style="fill:none;stroke:#ffffff;stroke-linecap:round;"/>
     </g>
     <g id="text_1">
      <!-- 0.0 -->
      <g style="fill:#262626;" transform="translate(57.702736 308.781481)scale(0.11 -0.11)">
       <defs>
        <path d="M 31.78125 66.40625 
Q 24.171875 66.40625 20.328125 58.90625 
Q 16.5 51.421875 16.5 36.375 
Q 16.5 21.390625 20.328125 13.890625 
Q 24.171875 6.390625 31.78125 6.390625 
Q 39.453125 6.390625 43.28125 13.890625 
Q 47.125 21.390625 47.125 36.375 
Q 47.125 51.421875 43.28125 58.90625 
Q 39.453125 66.40625 31.78125 66.40625 
z
M 31.78125 74.21875 
Q 44.046875 74.21875 50.515625 64.515625 
Q 56.984375 54.828125 56.984375 36.375 
Q 56.984375 17.96875 50.515625 8.265625 
Q 44.046875 -1.421875 31.78125 -1.421875 
Q 19.53125 -1.421875 13.0625 8.265625 
Q 6.59375 17.96875 6.59375 36.375 
Q 6.59375 54.828125 13.0625 64.515625 
Q 19.53125 74.21875 31.78125 74.21875 
z
" id="DejaVuSans-48"/>
        <path d="M 10.6875 12.40625 
L 21 12.40625 
L 21 0 
L 10.6875 0 
z
" id="DejaVuSans-46"/>
       </defs>
       <use xlink:href="#DejaVuSans-48"/>
       <use x="63.623047" xlink:href="#DejaVuSans-46"/>
       <use x="95.410156" xlink:href="#DejaVuSans-48"/>
      </g>
     </g>
    </g>
    <g id="xtick_2">
     <g id="line2d_2">
      <path clip-path="url(#pdbc8a24937)" d="M 124.887273 290.9232 
L 124.887273 39.2256 
" style="fill:none;stroke:#ffffff;stroke-linecap:round;"/>
     </g>
     <g id="text_2">
      <!-- 0.2 -->
      <g style="fill:#262626;" transform="translate(116.140554 308.781481)scale(0.11 -0.11)">
       <defs>
        <path d="M 19.1875 8.296875 
L 53.609375 8.296875 
L 53.609375 0 
L 7.328125 0 
L 7.328125 8.296875 
Q 12.9375 14.109375 22.625 23.890625 
Q 32.328125 33.6875 34.8125 36.53125 
Q 39.546875 41.84375 41.421875 45.53125 
Q 43.3125 49.21875 43.3125 52.78125 
Q 43.3125 58.59375 39.234375 62.25 
Q 35.15625 65.921875 28.609375 65.921875 
Q 23.96875 65.921875 18.8125 64.3125 
Q 13.671875 62.703125 7.8125 59.421875 
L 7.8125 69.390625 
Q 13.765625 71.78125 18.9375 73 
Q 24.125 74.21875 28.421875 74.21875 
Q 39.75 74.21875 46.484375 68.546875 
Q 53.21875 62.890625 53.21875 53.421875 
Q 53.21875 48.921875 51.53125 44.890625 
Q 49.859375 40.875 45.40625 35.40625 
Q 44.1875 33.984375 37.640625 27.21875 
Q 31.109375 20.453125 19.1875 8.296875 
z
" id="DejaVuSans-50"/>
       </defs>
       <use xlink:href="#DejaVuSans-48"/>
       <use x="63.623047" xlink:href="#DejaVuSans-46"/>
       <use x="95.410156" xlink:href="#DejaVuSans-50"/>
      </g>
     </g>
    </g>
    <g id="xtick_3">
     <g id="line2d_3">
      <path clip-path="url(#pdbc8a24937)" d="M 183.325091 290.9232 
L 183.325091 39.2256 
" style="fill:none;stroke:#ffffff;stroke-linecap:round;"/>
     </g>
     <g id="text_3">
      <!-- 0.4 -->
      <g style="fill:#262626;" transform="translate(174.578372 308.781481)scale(0.11 -0.11)">
       <defs>
        <path d="M 37.796875 64.3125 
L 12.890625 25.390625 
L 37.796875 25.390625 
z
M 35.203125 72.90625 
L 47.609375 72.90625 
L 47.609375 25.390625 
L 58.015625 25.390625 
L 58.015625 17.1875 
L 47.609375 17.1875 
L 47.609375 0 
L 37.796875 0 
L 37.796875 17.1875 
L 4.890625 17.1875 
L 4.890625 26.703125 
z
" id="DejaVuSans-52"/>
       </defs>
       <use xlink:href="#DejaVuSans-48"/>
       <use x="63.623047" xlink:href="#DejaVuSans-46"/>
       <use x="95.410156" xlink:href="#DejaVuSans-52"/>
      </g>
     </g>
    </g>
    <g id="xtick_4">
     <g id="line2d_4">
      <path clip-path="url(#pdbc8a24937)" d="M 241.762909 290.9232 
L 241.762909 39.2256 
" style="fill:none;stroke:#ffffff;stroke-linecap:round;"/>
     </g>
     <g id="text_4">
      <!-- 0.6 -->
      <g style="fill:#262626;" transform="translate(233.01619 308.781481)scale(0.11 -0.11)">
       <defs>
        <path d="M 33.015625 40.375 
Q 26.375 40.375 22.484375 35.828125 
Q 18.609375 31.296875 18.609375 23.390625 
Q 18.609375 15.53125 22.484375 10.953125 
Q 26.375 6.390625 33.015625 6.390625 
Q 39.65625 6.390625 43.53125 10.953125 
Q 47.40625 15.53125 47.40625 23.390625 
Q 47.40625 31.296875 43.53125 35.828125 
Q 39.65625 40.375 33.015625 40.375 
z
M 52.59375 71.296875 
L 52.59375 62.3125 
Q 48.875 64.0625 45.09375 64.984375 
Q 41.3125 65.921875 37.59375 65.921875 
Q 27.828125 65.921875 22.671875 59.328125 
Q 17.53125 52.734375 16.796875 39.40625 
Q 19.671875 43.65625 24.015625 45.921875 
Q 28.375 48.1875 33.59375 48.1875 
Q 44.578125 48.1875 50.953125 41.515625 
Q 57.328125 34.859375 57.328125 23.390625 
Q 57.328125 12.15625 50.6875 5.359375 
Q 44.046875 -1.421875 33.015625 -1.421875 
Q 20.359375 -1.421875 13.671875 8.265625 
Q 6.984375 17.96875 6.984375 36.375 
Q 6.984375 53.65625 15.1875 63.9375 
Q 23.390625 74.21875 37.203125 74.21875 
Q 40.921875 74.21875 44.703125 73.484375 
Q 48.484375 72.75 52.59375 71.296875 
z
" id="DejaVuSans-54"/>
       </defs>
       <use xlink:href="#DejaVuSans-48"/>
       <use x="63.623047" xlink:href="#DejaVuSans-46"/>
       <use x="95.410156" xlink:href="#DejaVuSans-54"/>
      </g>
     </g>
    </g>
    <g id="xtick_5">
     <g id="line2d_5">
      <path clip-path="url(#pdbc8a24937)" d="M 300.200727 290.9232 
L 300.200727 39.2256 
" style="fill:none;stroke:#ffffff;stroke-linecap:round;"/>
     </g>
     <g id="text_5">
      <!-- 0.8 -->
      <g style="fill:#262626;" transform="translate(291.454009 308.781481)scale(0.11 -0.11)">
       <defs>
        <path d="M 31.78125 34.625 
Q 24.75 34.625 20.71875 30.859375 
Q 16.703125 27.09375 16.703125 20.515625 
Q 16.703125 13.921875 20.71875 10.15625 
Q 24.75 6.390625 31.78125 6.390625 
Q 38.8125 6.390625 42.859375 10.171875 
Q 46.921875 13.96875 46.921875 20.515625 
Q 46.921875 27.09375 42.890625 30.859375 
Q 38.875 34.625 31.78125 34.625 
z
M 21.921875 38.8125 
Q 15.578125 40.375 12.03125 44.71875 
Q 8.5 49.078125 8.5 55.328125 
Q 8.5 64.0625 14.71875 69.140625 
Q 20.953125 74.21875 31.78125 74.21875 
Q 42.671875 74.21875 48.875 69.140625 
Q 55.078125 64.0625 55.078125 55.328125 
Q 55.078125 49.078125 51.53125 44.71875 
Q 48 40.375 41.703125 38.8125 
Q 48.828125 37.15625 52.796875 32.3125 
Q 56.78125 27.484375 56.78125 20.515625 
Q 56.78125 9.90625 50.3125 4.234375 
Q 43.84375 -1.421875 31.78125 -1.421875 
Q 19.734375 -1.421875 13.25 4.234375 
Q 6.78125 9.90625 6.78125 20.515625 
Q 6.78125 27.484375 10.78125 32.3125 
Q 14.796875 37.15625 21.921875 38.8125 
z
M 18.3125 54.390625 
Q 18.3125 48.734375 21.84375 45.5625 
Q 25.390625 42.390625 31.78125 42.390625 
Q 38.140625 42.390625 41.71875 45.5625 
Q 45.3125 48.734375 45.3125 54.390625 
Q 45.3125 60.0625 41.71875 63.234375 
Q 38.140625 66.40625 31.78125 66.40625 
Q 25.390625 66.40625 21.84375 63.234375 
Q 18.3125 60.0625 18.3125 54.390625 
z
" id="DejaVuSans-56"/>
       </defs>
       <use xlink:href="#DejaVuSans-48"/>
       <use x="63.623047" xlink:href="#DejaVuSans-46"/>
       <use x="95.410156" xlink:href="#DejaVuSans-56"/>
      </g>
     </g>
    </g>
    <g id="xtick_6">
     <g id="line2d_6">
      <path clip-path="url(#pdbc8a24937)" d="M 358.638545 290.9232 
L 358.638545 39.2256 
" style="fill:none;stroke:#ffffff;stroke-linecap:round;"/>
     </g>
     <g id="text_6">
      <!-- 1.0 -->
      <g style="fill:#262626;" transform="translate(349.891827 308.781481)scale(0.11 -0.11)">
       <defs>
        <path d="M 12.40625 8.296875 
L 28.515625 8.296875 
L 28.515625 63.921875 
L 10.984375 60.40625 
L 10.984375 69.390625 
L 28.421875 72.90625 
L 38.28125 72.90625 
L 38.28125 8.296875 
L 54.390625 8.296875 
L 54.390625 0 
L 12.40625 0 
z
" id="DejaVuSans-49"/>
       </defs>
       <use xlink:href="#DejaVuSans-49"/>
       <use x="63.623047" xlink:href="#DejaVuSans-46"/>
       <use x="95.410156" xlink:href="#DejaVuSans-48"/>
      </g>
     </g>
    </g>
    <g id="text_7">
     <!-- Flipping candidate threshold -->
     <g style="fill:#262626;" transform="translate(127.011188 324.187262)scale(0.12 -0.12)">
      <defs>
       <path d="M 9.8125 72.90625 
L 51.703125 72.90625 
L 51.703125 64.59375 
L 19.671875 64.59375 
L 19.671875 43.109375 
L 48.578125 43.109375 
L 48.578125 34.8125 
L 19.671875 34.8125 
L 19.671875 0 
L 9.8125 0 
z
" id="DejaVuSans-70"/>
       <path d="M 9.421875 75.984375 
L 18.40625 75.984375 
L 18.40625 0 
L 9.421875 0 
z
" id="DejaVuSans-108"/>
       <path d="M 9.421875 54.6875 
L 18.40625 54.6875 
L 18.40625 0 
L 9.421875 0 
z
M 9.421875 75.984375 
L 18.40625 75.984375 
L 18.40625 64.59375 
L 9.421875 64.59375 
z
" id="DejaVuSans-105"/>
       <path d="M 18.109375 8.203125 
L 18.109375 -20.796875 
L 9.078125 -20.796875 
L 9.078125 54.6875 
L 18.109375 54.6875 
L 18.109375 46.390625 
Q 20.953125 51.265625 25.265625 53.625 
Q 29.59375 56 35.59375 56 
Q 45.5625 56 51.78125 48.09375 
Q 58.015625 40.1875 58.015625 27.296875 
Q 58.015625 14.40625 51.78125 6.484375 
Q 45.5625 -1.421875 35.59375 -1.421875 
Q 29.59375 -1.421875 25.265625 0.953125 
Q 20.953125 3.328125 18.109375 8.203125 
z
M 48.6875 27.296875 
Q 48.6875 37.203125 44.609375 42.84375 
Q 40.53125 48.484375 33.40625 48.484375 
Q 26.265625 48.484375 22.1875 42.84375 
Q 18.109375 37.203125 18.109375 27.296875 
Q 18.109375 17.390625 22.1875 11.75 
Q 26.265625 6.109375 33.40625 6.109375 
Q 40.53125 6.109375 44.609375 11.75 
Q 48.6875 17.390625 48.6875 27.296875 
z
" id="DejaVuSans-112"/>
       <path d="M 54.890625 33.015625 
L 54.890625 0 
L 45.90625 0 
L 45.90625 32.71875 
Q 45.90625 40.484375 42.875 44.328125 
Q 39.84375 48.1875 33.796875 48.1875 
Q 26.515625 48.1875 22.3125 43.546875 
Q 18.109375 38.921875 18.109375 30.90625 
L 18.109375 0 
L 9.078125 0 
L 9.078125 54.6875 
L 18.109375 54.6875 
L 18.109375 46.1875 
Q 21.34375 51.125 25.703125 53.5625 
Q 30.078125 56 35.796875 56 
Q 45.21875 56 50.046875 50.171875 
Q 54.890625 44.34375 54.890625 33.015625 
z
" id="DejaVuSans-110"/>
       <path d="M 45.40625 27.984375 
Q 45.40625 37.75 41.375 43.109375 
Q 37.359375 48.484375 30.078125 48.484375 
Q 22.859375 48.484375 18.828125 43.109375 
Q 14.796875 37.75 14.796875 27.984375 
Q 14.796875 18.265625 18.828125 12.890625 
Q 22.859375 7.515625 30.078125 7.515625 
Q 37.359375 7.515625 41.375 12.890625 
Q 45.40625 18.265625 45.40625 27.984375 
z
M 54.390625 6.78125 
Q 54.390625 -7.171875 48.1875 -13.984375 
Q 42 -20.796875 29.203125 -20.796875 
Q 24.46875 -20.796875 20.265625 -20.09375 
Q 16.0625 -19.390625 12.109375 -17.921875 
L 12.109375 -9.1875 
Q 16.0625 -11.328125 19.921875 -12.34375 
Q 23.78125 -13.375 27.78125 -13.375 
Q 36.625 -13.375 41.015625 -8.765625 
Q 45.40625 -4.15625 45.40625 5.171875 
L 45.40625 9.625 
Q 42.625 4.78125 38.28125 2.390625 
Q 33.9375 0 27.875 0 
Q 17.828125 0 11.671875 7.65625 
Q 5.515625 15.328125 5.515625 27.984375 
Q 5.515625 40.671875 11.671875 48.328125 
Q 17.828125 56 27.875 56 
Q 33.9375 56 38.28125 53.609375 
Q 42.625 51.21875 45.40625 46.390625 
L 45.40625 54.6875 
L 54.390625 54.6875 
z
" id="DejaVuSans-103"/>
       <path id="DejaVuSans-32"/>
       <path d="M 48.78125 52.59375 
L 48.78125 44.1875 
Q 44.96875 46.296875 41.140625 47.34375 
Q 37.3125 48.390625 33.40625 48.390625 
Q 24.65625 48.390625 19.8125 42.84375 
Q 14.984375 37.3125 14.984375 27.296875 
Q 14.984375 17.28125 19.8125 11.734375 
Q 24.65625 6.203125 33.40625 6.203125 
Q 37.3125 6.203125 41.140625 7.25 
Q 44.96875 8.296875 48.78125 10.40625 
L 48.78125 2.09375 
Q 45.015625 0.34375 40.984375 -0.53125 
Q 36.96875 -1.421875 32.421875 -1.421875 
Q 20.0625 -1.421875 12.78125 6.34375 
Q 5.515625 14.109375 5.515625 27.296875 
Q 5.515625 40.671875 12.859375 48.328125 
Q 20.21875 56 33.015625 56 
Q 37.15625 56 41.109375 55.140625 
Q 45.0625 54.296875 48.78125 52.59375 
z
" id="DejaVuSans-99"/>
       <path d="M 34.28125 27.484375 
Q 23.390625 27.484375 19.1875 25 
Q 14.984375 22.515625 14.984375 16.5 
Q 14.984375 11.71875 18.140625 8.90625 
Q 21.296875 6.109375 26.703125 6.109375 
Q 34.1875 6.109375 38.703125 11.40625 
Q 43.21875 16.703125 43.21875 25.484375 
L 43.21875 27.484375 
z
M 52.203125 31.203125 
L 52.203125 0 
L 43.21875 0 
L 43.21875 8.296875 
Q 40.140625 3.328125 35.546875 0.953125 
Q 30.953125 -1.421875 24.3125 -1.421875 
Q 15.921875 -1.421875 10.953125 3.296875 
Q 6 8.015625 6 15.921875 
Q 6 25.140625 12.171875 29.828125 
Q 18.359375 34.515625 30.609375 34.515625 
L 43.21875 34.515625 
L 43.21875 35.40625 
Q 43.21875 41.609375 39.140625 45 
Q 35.0625 48.390625 27.6875 48.390625 
Q 23 48.390625 18.546875 47.265625 
Q 14.109375 46.140625 10.015625 43.890625 
L 10.015625 52.203125 
Q 14.9375 54.109375 19.578125 55.046875 
Q 24.21875 56 28.609375 56 
Q 40.484375 56 46.34375 49.84375 
Q 52.203125 43.703125 52.203125 31.203125 
z
" id="DejaVuSans-97"/>
       <path d="M 45.40625 46.390625 
L 45.40625 75.984375 
L 54.390625 75.984375 
L 54.390625 0 
L 45.40625 0 
L 45.40625 8.203125 
Q 42.578125 3.328125 38.25 0.953125 
Q 33.9375 -1.421875 27.875 -1.421875 
Q 17.96875 -1.421875 11.734375 6.484375 
Q 5.515625 14.40625 5.515625 27.296875 
Q 5.515625 40.1875 11.734375 48.09375 
Q 17.96875 56 27.875 56 
Q 33.9375 56 38.25 53.625 
Q 42.578125 51.265625 45.40625 46.390625 
z
M 14.796875 27.296875 
Q 14.796875 17.390625 18.875 11.75 
Q 22.953125 6.109375 30.078125 6.109375 
Q 37.203125 6.109375 41.296875 11.75 
Q 45.40625 17.390625 45.40625 27.296875 
Q 45.40625 37.203125 41.296875 42.84375 
Q 37.203125 48.484375 30.078125 48.484375 
Q 22.953125 48.484375 18.875 42.84375 
Q 14.796875 37.203125 14.796875 27.296875 
z
" id="DejaVuSans-100"/>
       <path d="M 18.3125 70.21875 
L 18.3125 54.6875 
L 36.8125 54.6875 
L 36.8125 47.703125 
L 18.3125 47.703125 
L 18.3125 18.015625 
Q 18.3125 11.328125 20.140625 9.421875 
Q 21.96875 7.515625 27.59375 7.515625 
L 36.8125 7.515625 
L 36.8125 0 
L 27.59375 0 
Q 17.1875 0 13.234375 3.875 
Q 9.28125 7.765625 9.28125 18.015625 
L 9.28125 47.703125 
L 2.6875 47.703125 
L 2.6875 54.6875 
L 9.28125 54.6875 
L 9.28125 70.21875 
z
" id="DejaVuSans-116"/>
       <path d="M 56.203125 29.59375 
L 56.203125 25.203125 
L 14.890625 25.203125 
Q 15.484375 15.921875 20.484375 11.0625 
Q 25.484375 6.203125 34.421875 6.203125 
Q 39.59375 6.203125 44.453125 7.46875 
Q 49.3125 8.734375 54.109375 11.28125 
L 54.109375 2.78125 
Q 49.265625 0.734375 44.1875 -0.34375 
Q 39.109375 -1.421875 33.890625 -1.421875 
Q 20.796875 -1.421875 13.15625 6.1875 
Q 5.515625 13.8125 5.515625 26.8125 
Q 5.515625 40.234375 12.765625 48.109375 
Q 20.015625 56 32.328125 56 
Q 43.359375 56 49.78125 48.890625 
Q 56.203125 41.796875 56.203125 29.59375 
z
M 47.21875 32.234375 
Q 47.125 39.59375 43.09375 43.984375 
Q 39.0625 48.390625 32.421875 48.390625 
Q 24.90625 48.390625 20.390625 44.140625 
Q 15.875 39.890625 15.1875 32.171875 
z
" id="DejaVuSans-101"/>
       <path d="M 54.890625 33.015625 
L 54.890625 0 
L 45.90625 0 
L 45.90625 32.71875 
Q 45.90625 40.484375 42.875 44.328125 
Q 39.84375 48.1875 33.796875 48.1875 
Q 26.515625 48.1875 22.3125 43.546875 
Q 18.109375 38.921875 18.109375 30.90625 
L 18.109375 0 
L 9.078125 0 
L 9.078125 75.984375 
L 18.109375 75.984375 
L 18.109375 46.1875 
Q 21.34375 51.125 25.703125 53.5625 
Q 30.078125 56 35.796875 56 
Q 45.21875 56 50.046875 50.171875 
Q 54.890625 44.34375 54.890625 33.015625 
z
" id="DejaVuSans-104"/>
       <path d="M 41.109375 46.296875 
Q 39.59375 47.171875 37.8125 47.578125 
Q 36.03125 48 33.890625 48 
Q 26.265625 48 22.1875 43.046875 
Q 18.109375 38.09375 18.109375 28.8125 
L 18.109375 0 
L 9.078125 0 
L 9.078125 54.6875 
L 18.109375 54.6875 
L 18.109375 46.1875 
Q 20.953125 51.171875 25.484375 53.578125 
Q 30.03125 56 36.53125 56 
Q 37.453125 56 38.578125 55.875 
Q 39.703125 55.765625 41.0625 55.515625 
z
" id="DejaVuSans-114"/>
       <path d="M 44.28125 53.078125 
L 44.28125 44.578125 
Q 40.484375 46.53125 36.375 47.5 
Q 32.28125 48.484375 27.875 48.484375 
Q 21.1875 48.484375 17.84375 46.4375 
Q 14.5 44.390625 14.5 40.28125 
Q 14.5 37.15625 16.890625 35.375 
Q 19.28125 33.59375 26.515625 31.984375 
L 29.59375 31.296875 
Q 39.15625 29.25 43.1875 25.515625 
Q 47.21875 21.78125 47.21875 15.09375 
Q 47.21875 7.46875 41.1875 3.015625 
Q 35.15625 -1.421875 24.609375 -1.421875 
Q 20.21875 -1.421875 15.453125 -0.5625 
Q 10.6875 0.296875 5.421875 2 
L 5.421875 11.28125 
Q 10.40625 8.6875 15.234375 7.390625 
Q 20.0625 6.109375 24.8125 6.109375 
Q 31.15625 6.109375 34.5625 8.28125 
Q 37.984375 10.453125 37.984375 14.40625 
Q 37.984375 18.0625 35.515625 20.015625 
Q 33.0625 21.96875 24.703125 23.78125 
L 21.578125 24.515625 
Q 13.234375 26.265625 9.515625 29.90625 
Q 5.8125 33.546875 5.8125 39.890625 
Q 5.8125 47.609375 11.28125 51.796875 
Q 16.75 56 26.8125 56 
Q 31.78125 56 36.171875 55.265625 
Q 40.578125 54.546875 44.28125 53.078125 
z
" id="DejaVuSans-115"/>
       <path d="M 30.609375 48.390625 
Q 23.390625 48.390625 19.1875 42.75 
Q 14.984375 37.109375 14.984375 27.296875 
Q 14.984375 17.484375 19.15625 11.84375 
Q 23.34375 6.203125 30.609375 6.203125 
Q 37.796875 6.203125 41.984375 11.859375 
Q 46.1875 17.53125 46.1875 27.296875 
Q 46.1875 37.015625 41.984375 42.703125 
Q 37.796875 48.390625 30.609375 48.390625 
z
M 30.609375 56 
Q 42.328125 56 49.015625 48.375 
Q 55.71875 40.765625 55.71875 27.296875 
Q 55.71875 13.875 49.015625 6.21875 
Q 42.328125 -1.421875 30.609375 -1.421875 
Q 18.84375 -1.421875 12.171875 6.21875 
Q 5.515625 13.875 5.515625 27.296875 
Q 5.515625 40.765625 12.171875 48.375 
Q 18.84375 56 30.609375 56 
z
" id="DejaVuSans-111"/>
      </defs>
      <use xlink:href="#DejaVuSans-70"/>
      <use x="57.519531" xlink:href="#DejaVuSans-108"/>
      <use x="85.302734" xlink:href="#DejaVuSans-105"/>
      <use x="113.085938" xlink:href="#DejaVuSans-112"/>
      <use x="176.5625" xlink:href="#DejaVuSans-112"/>
      <use x="240.039062" xlink:href="#DejaVuSans-105"/>
      <use x="267.822266" xlink:href="#DejaVuSans-110"/>
      <use x="331.201172" xlink:href="#DejaVuSans-103"/>
      <use x="394.677734" xlink:href="#DejaVuSans-32"/>
      <use x="426.464844" xlink:href="#DejaVuSans-99"/>
      <use x="481.445312" xlink:href="#DejaVuSans-97"/>
      <use x="542.724609" xlink:href="#DejaVuSans-110"/>
      <use x="606.103516" xlink:href="#DejaVuSans-100"/>
      <use x="669.580078" xlink:href="#DejaVuSans-105"/>
      <use x="697.363281" xlink:href="#DejaVuSans-100"/>
      <use x="760.839844" xlink:href="#DejaVuSans-97"/>
      <use x="822.119141" xlink:href="#DejaVuSans-116"/>
      <use x="861.328125" xlink:href="#DejaVuSans-101"/>
      <use x="922.851562" xlink:href="#DejaVuSans-32"/>
      <use x="954.638672" xlink:href="#DejaVuSans-116"/>
      <use x="993.847656" xlink:href="#DejaVuSans-104"/>
      <use x="1057.226562" xlink:href="#DejaVuSans-114"/>
      <use x="1096.089844" xlink:href="#DejaVuSans-101"/>
      <use x="1157.613281" xlink:href="#DejaVuSans-115"/>
      <use x="1209.712891" xlink:href="#DejaVuSans-104"/>
      <use x="1273.091797" xlink:href="#DejaVuSans-111"/>
      <use x="1334.273438" xlink:href="#DejaVuSans-108"/>
      <use x="1362.056641" xlink:href="#DejaVuSans-100"/>
     </g>
    </g>
   </g>
   <g id="matplotlib.axis_2">
    <g id="ytick_1">
     <g id="text_8">
      <!-- 0.0 -->
      <g style="fill:#262626;" transform="translate(24.846562 283.661541)scale(0.11 -0.11)">
       <use xlink:href="#DejaVuSans-48"/>
       <use x="63.623047" xlink:href="#DejaVuSans-46"/>
       <use x="95.410156" xlink:href="#DejaVuSans-48"/>
      </g>
     </g>
    </g>
    <g id="ytick_2">
     <g id="text_9">
      <!-- 0.2 -->
      <g style="fill:#262626;" transform="translate(24.846562 235.297884)scale(0.11 -0.11)">
       <use xlink:href="#DejaVuSans-48"/>
       <use x="63.623047" xlink:href="#DejaVuSans-46"/>
       <use x="95.410156" xlink:href="#DejaVuSans-50"/>
      </g>
     </g>
    </g>
    <g id="ytick_3">
     <g id="text_10">
      <!-- 0.4 -->
      <g style="fill:#262626;" transform="translate(24.846562 186.934228)scale(0.11 -0.11)">
       <use xlink:href="#DejaVuSans-48"/>
       <use x="63.623047" xlink:href="#DejaVuSans-46"/>
       <use x="95.410156" xlink:href="#DejaVuSans-52"/>
      </g>
     </g>
    </g>
    <g id="ytick_4">
     <g id="text_11">
      <!-- 0.6 -->
      <g style="fill:#262626;" transform="translate(24.846562 138.570571)scale(0.11 -0.11)">
       <use xlink:href="#DejaVuSans-48"/>
       <use x="63.623047" xlink:href="#DejaVuSans-46"/>
       <use x="95.410156" xlink:href="#DejaVuSans-54"/>
      </g>
     </g>
    </g>
    <g id="ytick_5">
     <g id="text_12">
      <!-- 0.8 -->
      <g style="fill:#262626;" transform="translate(24.846562 90.206915)scale(0.11 -0.11)">
       <use xlink:href="#DejaVuSans-48"/>
       <use x="63.623047" xlink:href="#DejaVuSans-46"/>
       <use x="95.410156" xlink:href="#DejaVuSans-56"/>
      </g>
     </g>
    </g>
    <g id="text_13">
     <!-- Flipping candidate rate -->
     <g style="fill:#262626;" transform="translate(18.350937 234.541275)rotate(-90)scale(0.12 -0.12)">
      <use xlink:href="#DejaVuSans-70"/>
      <use x="57.519531" xlink:href="#DejaVuSans-108"/>
      <use x="85.302734" xlink:href="#DejaVuSans-105"/>
      <use x="113.085938" xlink:href="#DejaVuSans-112"/>
      <use x="176.5625" xlink:href="#DejaVuSans-112"/>
      <use x="240.039062" xlink:href="#DejaVuSans-105"/>
      <use x="267.822266" xlink:href="#DejaVuSans-110"/>
      <use x="331.201172" xlink:href="#DejaVuSans-103"/>
      <use x="394.677734" xlink:href="#DejaVuSans-32"/>
      <use x="426.464844" xlink:href="#DejaVuSans-99"/>
      <use x="481.445312" xlink:href="#DejaVuSans-97"/>
      <use x="542.724609" xlink:href="#DejaVuSans-110"/>
      <use x="606.103516" xlink:href="#DejaVuSans-100"/>
      <use x="669.580078" xlink:href="#DejaVuSans-105"/>
      <use x="697.363281" xlink:href="#DejaVuSans-100"/>
      <use x="760.839844" xlink:href="#DejaVuSans-97"/>
      <use x="822.119141" xlink:href="#DejaVuSans-116"/>
      <use x="861.328125" xlink:href="#DejaVuSans-101"/>
      <use x="922.851562" xlink:href="#DejaVuSans-32"/>
      <use x="954.638672" xlink:href="#DejaVuSans-114"/>
      <use x="995.751953" xlink:href="#DejaVuSans-97"/>
      <use x="1057.03125" xlink:href="#DejaVuSans-116"/>
      <use x="1096.240234" xlink:href="#DejaVuSans-101"/>
     </g>
    </g>
   </g>
   <g id="line2d_7">
    <path clip-path="url(#pdbc8a24937)" d="M 66.449455 55.796179 
L 69.40086 94.855206 
L 72.352264 97.733307 
L 75.303669 101.172989 
L 78.255074 102.425967 
L 81.206479 104.598175 
L 84.157884 105.40409 
L 87.109289 107.48625 
L 90.060694 108.825979 
L 93.012099 109.875565 
L 95.963504 110.549308 
L 98.914909 111.199861 
L 101.866314 137.34926 
L 104.817719 141.873495 
L 107.769124 144.553486 
L 110.720529 146.678494 
L 113.671934 149.514939 
L 116.623339 152.618003 
L 119.574744 154.536127 
L 122.526149 156.384657 
L 125.477554 157.88923 
L 128.428959 159.101703 
L 131.380364 159.749481 
L 134.331769 161.371404 
L 137.283174 162.804519 
L 140.234579 176.273727 
L 143.185983 185.365724 
L 146.137388 189.311015 
L 149.088793 192.38393 
L 152.040198 195.385407 
L 154.991603 197.700496 
L 157.943008 199.459011 
L 160.894413 202.442263 
L 163.845818 204.262831 
L 166.797223 206.582143 
L 169.748628 208.910399 
L 172.700033 211.250341 
L 175.651438 213.056938 
L 178.602843 214.88051 
L 181.554248 216.940582 
L 184.505653 218.190538 
L 187.457058 220.165228 
L 190.408463 222.19442 
L 193.359868 223.87463 
L 196.311273 225.22624 
L 199.262678 226.412272 
L 202.214083 228.26016 
L 205.165488 229.969915 
L 208.116893 230.692019 
L 211.068298 232.554839 
L 214.019702 233.702295 
L 216.971107 234.432183 
L 219.922512 235.266767 
L 222.873917 236.070778 
L 225.825322 237.166802 
L 228.776727 238.253271 
L 231.728132 239.753504 
L 234.679537 241.316529 
L 237.630942 242.188599 
L 240.582347 243.118132 
L 243.533752 244.440014 
L 246.485157 245.825382 
L 249.436562 246.705979 
L 252.387967 248.571192 
L 255.339372 250.172728 
L 258.290777 251.731748 
L 261.242182 252.564644 
L 264.193587 252.981524 
L 267.144992 253.550739 
L 270.096397 254.217117 
L 273.047802 255.169599 
L 275.999207 256.228483 
L 278.950612 256.966684 
L 281.902017 257.60583 
L 284.853421 258.921641 
L 287.804826 260.228843 
L 290.756231 260.925267 
L 293.707636 261.82076 
L 296.659041 262.571555 
L 299.610446 263.085492 
L 302.561851 263.999275 
L 305.513256 264.835234 
L 308.464661 265.44005 
L 311.416066 266.570114 
L 314.367471 267.213365 
L 317.318876 267.808822 
L 320.270281 268.777093 
L 323.221686 269.520059 
L 326.173091 270.054 
L 329.124496 270.674189 
L 332.075901 271.357793 
L 335.027306 272.029716 
L 337.978711 272.997589 
L 340.930116 274.371753 
L 343.881521 274.919878 
L 346.832926 275.699101 
L 349.784331 276.274 
L 352.735736 278.442549 
L 355.68714 278.928313 
L 358.638545 279.4824 
" style="fill:none;stroke:#4c72b0;stroke-linecap:round;stroke-width:1.5;"/>
   </g>
   <g id="line2d_8">
    <path clip-path="url(#pdbc8a24937)" d="M 66.449455 50.6664 
L 69.40086 79.987244 
L 72.352264 82.468337 
L 75.303669 84.011664 
L 78.255074 84.763727 
L 81.206479 85.808419 
L 84.157884 86.381022 
L 87.109289 86.993213 
L 90.060694 88.183725 
L 93.012099 88.836602 
L 95.963504 89.623329 
L 98.914909 91.731783 
L 101.866314 111.630437 
L 104.817719 114.767632 
L 107.769124 116.73831 
L 110.720529 119.428232 
L 113.671934 121.68443 
L 116.623339 123.302024 
L 119.574744 125.248837 
L 122.526149 127.163973 
L 125.477554 128.234761 
L 128.428959 129.664401 
L 131.380364 131.001471 
L 134.331769 132.246723 
L 137.283174 133.198587 
L 140.234579 153.639406 
L 143.185983 160.14643 
L 146.137388 166.285002 
L 149.088793 170.350039 
L 152.040198 174.427228 
L 154.991603 178.385254 
L 157.943008 181.013052 
L 160.894413 182.649099 
L 163.845818 184.075273 
L 166.797223 186.752241 
L 169.748628 188.376327 
L 172.700033 190.284998 
L 175.651438 192.80637 
L 178.602843 194.440254 
L 181.554248 195.796658 
L 184.505653 197.562796 
L 187.457058 199.884555 
L 190.408463 202.454326 
L 193.359868 204.108363 
L 196.311273 205.900429 
L 199.262678 208.077719 
L 202.214083 209.260693 
L 205.165488 211.105216 
L 208.116893 212.704522 
L 211.068298 214.59736 
L 214.019702 215.71971 
L 216.971107 216.791202 
L 219.922512 217.95376 
L 222.873917 219.852621 
L 225.825322 221.559424 
L 228.776727 222.849546 
L 231.728132 223.995155 
L 234.679537 225.477672 
L 237.630942 226.492382 
L 240.582347 228.018062 
L 243.533752 229.296141 
L 246.485157 230.507261 
L 249.436562 231.439343 
L 252.387967 232.554727 
L 255.339372 233.608115 
L 258.290777 235.072992 
L 261.242182 237.049758 
L 264.193587 237.848546 
L 267.144992 239.350929 
L 270.096397 240.242751 
L 273.047802 241.469 
L 275.999207 242.200575 
L 278.950612 243.275479 
L 281.902017 244.615673 
L 284.853421 245.759214 
L 287.804826 246.979262 
L 290.756231 248.791132 
L 293.707636 250.531826 
L 296.659041 251.271744 
L 299.610446 252.454567 
L 302.561851 254.098062 
L 305.513256 255.576619 
L 308.464661 257.526604 
L 311.416066 258.916644 
L 314.367471 260.726235 
L 317.318876 261.860569 
L 320.270281 264.219401 
L 323.221686 265.499483 
L 326.173091 267.725281 
L 329.124496 268.783523 
L 332.075901 269.744476 
L 335.027306 271.423009 
L 337.978711 272.583124 
L 340.930116 273.844911 
L 343.881521 274.920085 
L 346.832926 276.026906 
L 349.784331 276.587465 
L 352.735736 277.762791 
L 355.68714 278.873698 
L 358.638545 279.4824 
" style="fill:none;stroke:#dd8452;stroke-linecap:round;stroke-width:1.5;"/>
   </g>
   <g id="line2d_9">
    <path clip-path="url(#pdbc8a24937)" d="M 66.449455 57.332698 
L 69.40086 91.415336 
L 72.352264 93.45187 
L 75.303669 95.124326 
L 78.255074 95.955957 
L 81.206479 96.786322 
L 84.157884 97.272715 
L 87.109289 97.961074 
L 90.060694 98.919987 
L 93.012099 99.756174 
L 95.963504 100.823357 
L 98.914909 101.919185 
L 101.866314 126.713463 
L 104.817719 132.322097 
L 107.769124 134.657069 
L 110.720529 136.919413 
L 113.671934 139.047227 
L 116.623339 140.821283 
L 119.574744 142.88212 
L 122.526149 144.398467 
L 125.477554 145.998997 
L 128.428959 147.468869 
L 131.380364 148.458823 
L 134.331769 149.614781 
L 137.283174 150.558911 
L 140.234579 178.689205 
L 143.185983 189.027964 
L 146.137388 193.323805 
L 149.088793 195.636726 
L 152.040198 197.9099 
L 154.991603 201.325332 
L 157.943008 203.606084 
L 160.894413 205.761624 
L 163.845818 207.371564 
L 166.797223 209.322294 
L 169.748628 211.967603 
L 172.700033 214.290858 
L 175.651438 216.145754 
L 178.602843 217.320922 
L 181.554248 218.681672 
L 184.505653 220.088175 
L 187.457058 221.581621 
L 190.408463 223.42261 
L 193.359868 224.825342 
L 196.311273 226.457933 
L 199.262678 228.108835 
L 202.214083 229.907825 
L 205.165488 231.378427 
L 208.116893 232.118279 
L 211.068298 234.000179 
L 214.019702 235.217721 
L 216.971107 236.719989 
L 219.922512 237.50379 
L 222.873917 238.712559 
L 225.825322 239.735648 
L 228.776727 240.759255 
L 231.728132 241.847624 
L 234.679537 243.498046 
L 237.630942 244.296378 
L 240.582347 245.009629 
L 243.533752 246.096827 
L 246.485157 246.913083 
L 249.436562 247.685889 
L 252.387967 248.694865 
L 255.339372 249.542652 
L 258.290777 250.709817 
L 261.242182 252.037427 
L 264.193587 253.405465 
L 267.144992 254.338833 
L 270.096397 255.545987 
L 273.047802 256.384935 
L 275.999207 257.195619 
L 278.950612 258.938199 
L 281.902017 259.28534 
L 284.853421 259.940776 
L 287.804826 260.836407 
L 290.756231 261.926786 
L 293.707636 262.470902 
L 296.659041 263.160864 
L 299.610446 264.004963 
L 302.561851 264.989085 
L 305.513256 265.998668 
L 308.464661 267.836464 
L 311.416066 269.161066 
L 314.367471 269.962022 
L 317.318876 270.499837 
L 320.270281 271.542521 
L 323.221686 272.164925 
L 326.173091 273.01507 
L 329.124496 273.2453 
L 332.075901 273.897665 
L 335.027306 274.490858 
L 337.978711 275.006304 
L 340.930116 275.673903 
L 343.881521 276.419329 
L 346.832926 276.74903 
L 349.784331 278.03768 
L 352.735736 278.496923 
L 355.68714 279.119053 
L 358.638545 279.4824 
" style="fill:none;stroke:#55a868;stroke-linecap:round;stroke-width:1.5;"/>
   </g>
   <g id="patch_3">
    <path d="M 51.84 290.9232 
L 51.84 39.2256 
" style="fill:none;stroke:#ffffff;stroke-linecap:square;stroke-linejoin:miter;stroke-width:1.25;"/>
   </g>
   <g id="patch_4">
    <path d="M 373.248 290.9232 
L 373.248 39.2256 
" style="fill:none;stroke:#ffffff;stroke-linecap:square;stroke-linejoin:miter;stroke-width:1.25;"/>
   </g>
   <g id="patch_5">
    <path d="M 51.84 290.9232 
L 373.248 290.9232 
" style="fill:none;stroke:#ffffff;stroke-linecap:square;stroke-linejoin:miter;stroke-width:1.25;"/>
   </g>
   <g id="patch_6">
    <path d="M 51.84 39.2256 
L 373.248 39.2256 
" style="fill:none;stroke:#ffffff;stroke-linecap:square;stroke-linejoin:miter;stroke-width:1.25;"/>
   </g>
   <g id="text_14">
    <!-- Flipping candidate rate per vis type -->
    <g style="fill:#262626;" transform="translate(105.640875 33.2256)scale(0.12 -0.12)">
     <defs>
      <path d="M 2.984375 54.6875 
L 12.5 54.6875 
L 29.59375 8.796875 
L 46.6875 54.6875 
L 56.203125 54.6875 
L 35.6875 0 
L 23.484375 0 
z
" id="DejaVuSans-118"/>
      <path d="M 32.171875 -5.078125 
Q 28.375 -14.84375 24.75 -17.8125 
Q 21.140625 -20.796875 15.09375 -20.796875 
L 7.90625 -20.796875 
L 7.90625 -13.28125 
L 13.1875 -13.28125 
Q 16.890625 -13.28125 18.9375 -11.515625 
Q 21 -9.765625 23.484375 -3.21875 
L 25.09375 0.875 
L 2.984375 54.6875 
L 12.5 54.6875 
L 29.59375 11.921875 
L 46.6875 54.6875 
L 56.203125 54.6875 
z
" id="DejaVuSans-121"/>
     </defs>
     <use xlink:href="#DejaVuSans-70"/>
     <use x="57.519531" xlink:href="#DejaVuSans-108"/>
     <use x="85.302734" xlink:href="#DejaVuSans-105"/>
     <use x="113.085938" xlink:href="#DejaVuSans-112"/>
     <use x="176.5625" xlink:href="#DejaVuSans-112"/>
     <use x="240.039062" xlink:href="#DejaVuSans-105"/>
     <use x="267.822266" xlink:href="#DejaVuSans-110"/>
     <use x="331.201172" xlink:href="#DejaVuSans-103"/>
     <use x="394.677734" xlink:href="#DejaVuSans-32"/>
     <use x="426.464844" xlink:href="#DejaVuSans-99"/>
     <use x="481.445312" xlink:href="#DejaVuSans-97"/>
     <use x="542.724609" xlink:href="#DejaVuSans-110"/>
     <use x="606.103516" xlink:href="#DejaVuSans-100"/>
     <use x="669.580078" xlink:href="#DejaVuSans-105"/>
     <use x="697.363281" xlink:href="#DejaVuSans-100"/>
     <use x="760.839844" xlink:href="#DejaVuSans-97"/>
     <use x="822.119141" xlink:href="#DejaVuSans-116"/>
     <use x="861.328125" xlink:href="#DejaVuSans-101"/>
     <use x="922.851562" xlink:href="#DejaVuSans-32"/>
     <use x="954.638672" xlink:href="#DejaVuSans-114"/>
     <use x="995.751953" xlink:href="#DejaVuSans-97"/>
     <use x="1057.03125" xlink:href="#DejaVuSans-116"/>
     <use x="1096.240234" xlink:href="#DejaVuSans-101"/>
     <use x="1157.763672" xlink:href="#DejaVuSans-32"/>
     <use x="1189.550781" xlink:href="#DejaVuSans-112"/>
     <use x="1253.027344" xlink:href="#DejaVuSans-101"/>
     <use x="1314.550781" xlink:href="#DejaVuSans-114"/>
     <use x="1355.664062" xlink:href="#DejaVuSans-32"/>
     <use x="1387.451172" xlink:href="#DejaVuSans-118"/>
     <use x="1446.630859" xlink:href="#DejaVuSans-105"/>
     <use x="1474.414062" xlink:href="#DejaVuSans-115"/>
     <use x="1526.513672" xlink:href="#DejaVuSans-32"/>
     <use x="1558.300781" xlink:href="#DejaVuSans-116"/>
     <use x="1597.509766" xlink:href="#DejaVuSans-121"/>
     <use x="1656.689453" xlink:href="#DejaVuSans-112"/>
     <use x="1720.166016" xlink:href="#DejaVuSans-101"/>
    </g>
   </g>
   <g id="legend_1">
    <g id="patch_7">
     <path d="M 291.913312 96.463413 
L 365.548 96.463413 
Q 367.748 96.463413 367.748 94.263413 
L 367.748 46.9256 
Q 367.748 44.7256 365.548 44.7256 
L 291.913312 44.7256 
Q 289.713312 44.7256 289.713312 46.9256 
L 289.713312 94.263413 
Q 289.713312 96.463413 291.913312 96.463413 
z
" style="fill:#eaeaf2;opacity:0.8;stroke:#cccccc;stroke-linejoin:miter;"/>
    </g>
    <g id="line2d_10">
     <path d="M 294.113312 53.633881 
L 316.113312 53.633881 
" style="fill:none;stroke:#4c72b0;stroke-linecap:round;stroke-width:1.5;"/>
    </g>
    <g id="line2d_11"/>
    <g id="text_15">
     <!-- line -->
     <g style="fill:#262626;" transform="translate(324.913312 57.483881)scale(0.11 -0.11)">
      <use xlink:href="#DejaVuSans-108"/>
      <use x="27.783203" xlink:href="#DejaVuSans-105"/>
      <use x="55.566406" xlink:href="#DejaVuSans-110"/>
      <use x="118.945312" xlink:href="#DejaVuSans-101"/>
     </g>
    </g>
    <g id="line2d_12">
     <path d="M 294.113312 69.779819 
L 316.113312 69.779819 
" style="fill:none;stroke:#dd8452;stroke-linecap:round;stroke-width:1.5;"/>
    </g>
    <g id="line2d_13"/>
    <g id="text_16">
     <!-- bar -->
     <g style="fill:#262626;" transform="translate(324.913312 73.629819)scale(0.11 -0.11)">
      <defs>
       <path d="M 48.6875 27.296875 
Q 48.6875 37.203125 44.609375 42.84375 
Q 40.53125 48.484375 33.40625 48.484375 
Q 26.265625 48.484375 22.1875 42.84375 
Q 18.109375 37.203125 18.109375 27.296875 
Q 18.109375 17.390625 22.1875 11.75 
Q 26.265625 6.109375 33.40625 6.109375 
Q 40.53125 6.109375 44.609375 11.75 
Q 48.6875 17.390625 48.6875 27.296875 
z
M 18.109375 46.390625 
Q 20.953125 51.265625 25.265625 53.625 
Q 29.59375 56 35.59375 56 
Q 45.5625 56 51.78125 48.09375 
Q 58.015625 40.1875 58.015625 27.296875 
Q 58.015625 14.40625 51.78125 6.484375 
Q 45.5625 -1.421875 35.59375 -1.421875 
Q 29.59375 -1.421875 25.265625 0.953125 
Q 20.953125 3.328125 18.109375 8.203125 
L 18.109375 0 
L 9.078125 0 
L 9.078125 75.984375 
L 18.109375 75.984375 
z
" id="DejaVuSans-98"/>
      </defs>
      <use xlink:href="#DejaVuSans-98"/>
      <use x="63.476562" xlink:href="#DejaVuSans-97"/>
      <use x="124.755859" xlink:href="#DejaVuSans-114"/>
     </g>
    </g>
    <g id="line2d_14">
     <path d="M 294.113312 85.925756 
L 316.113312 85.925756 
" style="fill:none;stroke:#55a868;stroke-linecap:round;stroke-width:1.5;"/>
    </g>
    <g id="line2d_15"/>
    <g id="text_17">
     <!-- scatter -->
     <g style="fill:#262626;" transform="translate(324.913312 89.775756)scale(0.11 -0.11)">
      <use xlink:href="#DejaVuSans-115"/>
      <use x="52.099609" xlink:href="#DejaVuSans-99"/>
      <use x="107.080078" xlink:href="#DejaVuSans-97"/>
      <use x="168.359375" xlink:href="#DejaVuSans-116"/>
      <use x="207.568359" xlink:href="#DejaVuSans-116"/>
      <use x="246.777344" xlink:href="#DejaVuSans-101"/>
      <use x="308.300781" xlink:href="#DejaVuSans-114"/>
     </g>
    </g>
   </g>
  </g>
 </g>
 <defs>
  <clipPath id="pdbc8a24937">
   <rect height="251.6976" width="321.408" x="51.84" y="39.2256"/>
  </clipPath>
 </defs>
</svg>
