<?xml version="1.0" encoding="utf-8" standalone="no"?>
<!DOCTYPE svg PUBLIC "-//W3C//DTD SVG 1.1//EN"
  "http://www.w3.org/Graphics/SVG/1.1/DTD/svg11.dtd">
<!-- Created with matplotlib (https://matplotlib.org/) -->
<svg height="374.4pt" version="1.1" viewBox="0 0 400.32 374.4" width="400.32pt" xmlns="http://www.w3.org/2000/svg" xmlns:xlink="http://www.w3.org/1999/xlink">
 <metadata>
  <rdf:RDF xmlns:cc="http://creativecommons.org/ns#" xmlns:dc="http://purl.org/dc/elements/1.1/" xmlns:rdf="http://www.w3.org/1999/02/22-rdf-syntax-ns#">
   <cc:Work>
    <dc:type rdf:resource="http://purl.org/dc/dcmitype/StillImage"/>
    <dc:date>2022-03-01T22:13:20.902349</dc:date>
    <dc:format>image/svg+xml</dc:format>
    <dc:creator>
     <cc:Agent>
      <dc:title>Matplotlib v3.3.3, https://matplotlib.org/</dc:title>
     </cc:Agent>
    </dc:creator>
   </cc:Work>
  </rdf:RDF>
 </metadata>
 <defs>
  <style type="text/css">*{stroke-linecap:butt;stroke-linejoin:round;}</style>
 </defs>
 <g id="figure_1">
  <g id="patch_1">
   <path d="M 0 374.4 
L 400.32 374.4 
L 400.32 0 
L 0 0 
z
" style="fill:#ffffff;"/>
  </g>
  <g id="axes_1">
   <g id="patch_2">
    <path d="M 50.04 333.216 
L 360.288 333.216 
L 360.288 44.928 
L 50.04 44.928 
z
" style="fill:#eaeaf2;"/>
   </g>
   <g id="matplotlib.axis_1">
    <g id="xtick_1">
     <g id="text_1">
      <!-- 0.0 -->
      <g style="fill:#262626;" transform="translate(55.395463 351.074281)scale(0.11 -0.11)">
       <defs>
        <path d="M 31.78125 66.40625 
Q 24.171875 66.40625 20.328125 58.90625 
Q 16.5 51.421875 16.5 36.375 
Q 16.5 21.390625 20.328125 13.890625 
Q 24.171875 6.390625 31.78125 6.390625 
Q 39.453125 6.390625 43.28125 13.890625 
Q 47.125 21.390625 47.125 36.375 
Q 47.125 51.421875 43.28125 58.90625 
Q 39.453125 66.40625 31.78125 66.40625 
z
M 31.78125 74.21875 
Q 44.046875 74.21875 50.515625 64.515625 
Q 56.984375 54.828125 56.984375 36.375 
Q 56.984375 17.96875 50.515625 8.265625 
Q 44.046875 -1.421875 31.78125 -1.421875 
Q 19.53125 -1.421875 13.0625 8.265625 
Q 6.59375 17.96875 6.59375 36.375 
Q 6.59375 54.828125 13.0625 64.515625 
Q 19.53125 74.21875 31.78125 74.21875 
z
" id="DejaVuSans-48"/>
        <path d="M 10.6875 12.40625 
L 21 12.40625 
L 21 0 
L 10.6875 0 
z
" id="DejaVuSans-46"/>
       </defs>
       <use xlink:href="#DejaVuSans-48"/>
       <use x="63.623047" xlink:href="#DejaVuSans-46"/>
       <use x="95.410156" xlink:href="#DejaVuSans-48"/>
      </g>
     </g>
    </g>
    <g id="xtick_2">
     <g id="text_2">
      <!-- 0.2 -->
      <g style="fill:#262626;" transform="translate(111.80419 351.074281)scale(0.11 -0.11)">
       <defs>
        <path d="M 19.1875 8.296875 
L 53.609375 8.296875 
L 53.609375 0 
L 7.328125 0 
L 7.328125 8.296875 
Q 12.9375 14.109375 22.625 23.890625 
Q 32.328125 33.6875 34.8125 36.53125 
Q 39.546875 41.84375 41.421875 45.53125 
Q 43.3125 49.21875 43.3125 52.78125 
Q 43.3125 58.59375 39.234375 62.25 
Q 35.15625 65.921875 28.609375 65.921875 
Q 23.96875 65.921875 18.8125 64.3125 
Q 13.671875 62.703125 7.8125 59.421875 
L 7.8125 69.390625 
Q 13.765625 71.78125 18.9375 73 
Q 24.125 74.21875 28.421875 74.21875 
Q 39.75 74.21875 46.484375 68.546875 
Q 53.21875 62.890625 53.21875 53.421875 
Q 53.21875 48.921875 51.53125 44.890625 
Q 49.859375 40.875 45.40625 35.40625 
Q 44.1875 33.984375 37.640625 27.21875 
Q 31.109375 20.453125 19.1875 8.296875 
z
" id="DejaVuSans-50"/>
       </defs>
       <use xlink:href="#DejaVuSans-48"/>
       <use x="63.623047" xlink:href="#DejaVuSans-46"/>
       <use x="95.410156" xlink:href="#DejaVuSans-50"/>
      </g>
     </g>
    </g>
    <g id="xtick_3">
     <g id="text_3">
      <!-- 0.4 -->
      <g style="fill:#262626;" transform="translate(168.212918 351.074281)scale(0.11 -0.11)">
       <defs>
        <path d="M 37.796875 64.3125 
L 12.890625 25.390625 
L 37.796875 25.390625 
z
M 35.203125 72.90625 
L 47.609375 72.90625 
L 47.609375 25.390625 
L 58.015625 25.390625 
L 58.015625 17.1875 
L 47.609375 17.1875 
L 47.609375 0 
L 37.796875 0 
L 37.796875 17.1875 
L 4.890625 17.1875 
L 4.890625 26.703125 
z
" id="DejaVuSans-52"/>
       </defs>
       <use xlink:href="#DejaVuSans-48"/>
       <use x="63.623047" xlink:href="#DejaVuSans-46"/>
       <use x="95.410156" xlink:href="#DejaVuSans-52"/>
      </g>
     </g>
    </g>
    <g id="xtick_4">
     <g id="text_4">
      <!-- 0.6 -->
      <g style="fill:#262626;" transform="translate(224.621645 351.074281)scale(0.11 -0.11)">
       <defs>
        <path d="M 33.015625 40.375 
Q 26.375 40.375 22.484375 35.828125 
Q 18.609375 31.296875 18.609375 23.390625 
Q 18.609375 15.53125 22.484375 10.953125 
Q 26.375 6.390625 33.015625 6.390625 
Q 39.65625 6.390625 43.53125 10.953125 
Q 47.40625 15.53125 47.40625 23.390625 
Q 47.40625 31.296875 43.53125 35.828125 
Q 39.65625 40.375 33.015625 40.375 
z
M 52.59375 71.296875 
L 52.59375 62.3125 
Q 48.875 64.0625 45.09375 64.984375 
Q 41.3125 65.921875 37.59375 65.921875 
Q 27.828125 65.921875 22.671875 59.328125 
Q 17.53125 52.734375 16.796875 39.40625 
Q 19.671875 43.65625 24.015625 45.921875 
Q 28.375 48.1875 33.59375 48.1875 
Q 44.578125 48.1875 50.953125 41.515625 
Q 57.328125 34.859375 57.328125 23.390625 
Q 57.328125 12.15625 50.6875 5.359375 
Q 44.046875 -1.421875 33.015625 -1.421875 
Q 20.359375 -1.421875 13.671875 8.265625 
Q 6.984375 17.96875 6.984375 36.375 
Q 6.984375 53.65625 15.1875 63.9375 
Q 23.390625 74.21875 37.203125 74.21875 
Q 40.921875 74.21875 44.703125 73.484375 
Q 48.484375 72.75 52.59375 71.296875 
z
" id="DejaVuSans-54"/>
       </defs>
       <use xlink:href="#DejaVuSans-48"/>
       <use x="63.623047" xlink:href="#DejaVuSans-46"/>
       <use x="95.410156" xlink:href="#DejaVuSans-54"/>
      </g>
     </g>
    </g>
    <g id="xtick_5">
     <g id="text_5">
      <!-- 0.8 -->
      <g style="fill:#262626;" transform="translate(281.030372 351.074281)scale(0.11 -0.11)">
       <defs>
        <path d="M 31.78125 34.625 
Q 24.75 34.625 20.71875 30.859375 
Q 16.703125 27.09375 16.703125 20.515625 
Q 16.703125 13.921875 20.71875 10.15625 
Q 24.75 6.390625 31.78125 6.390625 
Q 38.8125 6.390625 42.859375 10.171875 
Q 46.921875 13.96875 46.921875 20.515625 
Q 46.921875 27.09375 42.890625 30.859375 
Q 38.875 34.625 31.78125 34.625 
z
M 21.921875 38.8125 
Q 15.578125 40.375 12.03125 44.71875 
Q 8.5 49.078125 8.5 55.328125 
Q 8.5 64.0625 14.71875 69.140625 
Q 20.953125 74.21875 31.78125 74.21875 
Q 42.671875 74.21875 48.875 69.140625 
Q 55.078125 64.0625 55.078125 55.328125 
Q 55.078125 49.078125 51.53125 44.71875 
Q 48 40.375 41.703125 38.8125 
Q 48.828125 37.15625 52.796875 32.3125 
Q 56.78125 27.484375 56.78125 20.515625 
Q 56.78125 9.90625 50.3125 4.234375 
Q 43.84375 -1.421875 31.78125 -1.421875 
Q 19.734375 -1.421875 13.25 4.234375 
Q 6.78125 9.90625 6.78125 20.515625 
Q 6.78125 27.484375 10.78125 32.3125 
Q 14.796875 37.15625 21.921875 38.8125 
z
M 18.3125 54.390625 
Q 18.3125 48.734375 21.84375 45.5625 
Q 25.390625 42.390625 31.78125 42.390625 
Q 38.140625 42.390625 41.71875 45.5625 
Q 45.3125 48.734375 45.3125 54.390625 
Q 45.3125 60.0625 41.71875 63.234375 
Q 38.140625 66.40625 31.78125 66.40625 
Q 25.390625 66.40625 21.84375 63.234375 
Q 18.3125 60.0625 18.3125 54.390625 
z
" id="DejaVuSans-56"/>
       </defs>
       <use xlink:href="#DejaVuSans-48"/>
       <use x="63.623047" xlink:href="#DejaVuSans-46"/>
       <use x="95.410156" xlink:href="#DejaVuSans-56"/>
      </g>
     </g>
    </g>
    <g id="xtick_6">
     <g id="text_6">
      <!-- 1.0 -->
      <g style="fill:#262626;" transform="translate(337.439099 351.074281)scale(0.11 -0.11)">
       <defs>
        <path d="M 12.40625 8.296875 
L 28.515625 8.296875 
L 28.515625 63.921875 
L 10.984375 60.40625 
L 10.984375 69.390625 
L 28.421875 72.90625 
L 38.28125 72.90625 
L 38.28125 8.296875 
L 54.390625 8.296875 
L 54.390625 0 
L 12.40625 0 
z
" id="DejaVuSans-49"/>
       </defs>
       <use xlink:href="#DejaVuSans-49"/>
       <use x="63.623047" xlink:href="#DejaVuSans-46"/>
       <use x="95.410156" xlink:href="#DejaVuSans-48"/>
      </g>
     </g>
    </g>
    <g id="text_7">
     <!-- Flipping candidate threshold -->
     <g style="fill:#262626;" transform="translate(119.631187 366.480063)scale(0.12 -0.12)">
      <defs>
       <path d="M 9.8125 72.90625 
L 51.703125 72.90625 
L 51.703125 64.59375 
L 19.671875 64.59375 
L 19.671875 43.109375 
L 48.578125 43.109375 
L 48.578125 34.8125 
L 19.671875 34.8125 
L 19.671875 0 
L 9.8125 0 
z
" id="DejaVuSans-70"/>
       <path d="M 9.421875 75.984375 
L 18.40625 75.984375 
L 18.40625 0 
L 9.421875 0 
z
" id="DejaVuSans-108"/>
       <path d="M 9.421875 54.6875 
L 18.40625 54.6875 
L 18.40625 0 
L 9.421875 0 
z
M 9.421875 75.984375 
L 18.40625 75.984375 
L 18.40625 64.59375 
L 9.421875 64.59375 
z
" id="DejaVuSans-105"/>
       <path d="M 18.109375 8.203125 
L 18.109375 -20.796875 
L 9.078125 -20.796875 
L 9.078125 54.6875 
L 18.109375 54.6875 
L 18.109375 46.390625 
Q 20.953125 51.265625 25.265625 53.625 
Q 29.59375 56 35.59375 56 
Q 45.5625 56 51.78125 48.09375 
Q 58.015625 40.1875 58.015625 27.296875 
Q 58.015625 14.40625 51.78125 6.484375 
Q 45.5625 -1.421875 35.59375 -1.421875 
Q 29.59375 -1.421875 25.265625 0.953125 
Q 20.953125 3.328125 18.109375 8.203125 
z
M 48.6875 27.296875 
Q 48.6875 37.203125 44.609375 42.84375 
Q 40.53125 48.484375 33.40625 48.484375 
Q 26.265625 48.484375 22.1875 42.84375 
Q 18.109375 37.203125 18.109375 27.296875 
Q 18.109375 17.390625 22.1875 11.75 
Q 26.265625 6.109375 33.40625 6.109375 
Q 40.53125 6.109375 44.609375 11.75 
Q 48.6875 17.390625 48.6875 27.296875 
z
" id="DejaVuSans-112"/>
       <path d="M 54.890625 33.015625 
L 54.890625 0 
L 45.90625 0 
L 45.90625 32.71875 
Q 45.90625 40.484375 42.875 44.328125 
Q 39.84375 48.1875 33.796875 48.1875 
Q 26.515625 48.1875 22.3125 43.546875 
Q 18.109375 38.921875 18.109375 30.90625 
L 18.109375 0 
L 9.078125 0 
L 9.078125 54.6875 
L 18.109375 54.6875 
L 18.109375 46.1875 
Q 21.34375 51.125 25.703125 53.5625 
Q 30.078125 56 35.796875 56 
Q 45.21875 56 50.046875 50.171875 
Q 54.890625 44.34375 54.890625 33.015625 
z
" id="DejaVuSans-110"/>
       <path d="M 45.40625 27.984375 
Q 45.40625 37.75 41.375 43.109375 
Q 37.359375 48.484375 30.078125 48.484375 
Q 22.859375 48.484375 18.828125 43.109375 
Q 14.796875 37.75 14.796875 27.984375 
Q 14.796875 18.265625 18.828125 12.890625 
Q 22.859375 7.515625 30.078125 7.515625 
Q 37.359375 7.515625 41.375 12.890625 
Q 45.40625 18.265625 45.40625 27.984375 
z
M 54.390625 6.78125 
Q 54.390625 -7.171875 48.1875 -13.984375 
Q 42 -20.796875 29.203125 -20.796875 
Q 24.46875 -20.796875 20.265625 -20.09375 
Q 16.0625 -19.390625 12.109375 -17.921875 
L 12.109375 -9.1875 
Q 16.0625 -11.328125 19.921875 -12.34375 
Q 23.78125 -13.375 27.78125 -13.375 
Q 36.625 -13.375 41.015625 -8.765625 
Q 45.40625 -4.15625 45.40625 5.171875 
L 45.40625 9.625 
Q 42.625 4.78125 38.28125 2.390625 
Q 33.9375 0 27.875 0 
Q 17.828125 0 11.671875 7.65625 
Q 5.515625 15.328125 5.515625 27.984375 
Q 5.515625 40.671875 11.671875 48.328125 
Q 17.828125 56 27.875 56 
Q 33.9375 56 38.28125 53.609375 
Q 42.625 51.21875 45.40625 46.390625 
L 45.40625 54.6875 
L 54.390625 54.6875 
z
" id="DejaVuSans-103"/>
       <path id="DejaVuSans-32"/>
       <path d="M 48.78125 52.59375 
L 48.78125 44.1875 
Q 44.96875 46.296875 41.140625 47.34375 
Q 37.3125 48.390625 33.40625 48.390625 
Q 24.65625 48.390625 19.8125 42.84375 
Q 14.984375 37.3125 14.984375 27.296875 
Q 14.984375 17.28125 19.8125 11.734375 
Q 24.65625 6.203125 33.40625 6.203125 
Q 37.3125 6.203125 41.140625 7.25 
Q 44.96875 8.296875 48.78125 10.40625 
L 48.78125 2.09375 
Q 45.015625 0.34375 40.984375 -0.53125 
Q 36.96875 -1.421875 32.421875 -1.421875 
Q 20.0625 -1.421875 12.78125 6.34375 
Q 5.515625 14.109375 5.515625 27.296875 
Q 5.515625 40.671875 12.859375 48.328125 
Q 20.21875 56 33.015625 56 
Q 37.15625 56 41.109375 55.140625 
Q 45.0625 54.296875 48.78125 52.59375 
z
" id="DejaVuSans-99"/>
       <path d="M 34.28125 27.484375 
Q 23.390625 27.484375 19.1875 25 
Q 14.984375 22.515625 14.984375 16.5 
Q 14.984375 11.71875 18.140625 8.90625 
Q 21.296875 6.109375 26.703125 6.109375 
Q 34.1875 6.109375 38.703125 11.40625 
Q 43.21875 16.703125 43.21875 25.484375 
L 43.21875 27.484375 
z
M 52.203125 31.203125 
L 52.203125 0 
L 43.21875 0 
L 43.21875 8.296875 
Q 40.140625 3.328125 35.546875 0.953125 
Q 30.953125 -1.421875 24.3125 -1.421875 
Q 15.921875 -1.421875 10.953125 3.296875 
Q 6 8.015625 6 15.921875 
Q 6 25.140625 12.171875 29.828125 
Q 18.359375 34.515625 30.609375 34.515625 
L 43.21875 34.515625 
L 43.21875 35.40625 
Q 43.21875 41.609375 39.140625 45 
Q 35.0625 48.390625 27.6875 48.390625 
Q 23 48.390625 18.546875 47.265625 
Q 14.109375 46.140625 10.015625 43.890625 
L 10.015625 52.203125 
Q 14.9375 54.109375 19.578125 55.046875 
Q 24.21875 56 28.609375 56 
Q 40.484375 56 46.34375 49.84375 
Q 52.203125 43.703125 52.203125 31.203125 
z
" id="DejaVuSans-97"/>
       <path d="M 45.40625 46.390625 
L 45.40625 75.984375 
L 54.390625 75.984375 
L 54.390625 0 
L 45.40625 0 
L 45.40625 8.203125 
Q 42.578125 3.328125 38.25 0.953125 
Q 33.9375 -1.421875 27.875 -1.421875 
Q 17.96875 -1.421875 11.734375 6.484375 
Q 5.515625 14.40625 5.515625 27.296875 
Q 5.515625 40.1875 11.734375 48.09375 
Q 17.96875 56 27.875 56 
Q 33.9375 56 38.25 53.625 
Q 42.578125 51.265625 45.40625 46.390625 
z
M 14.796875 27.296875 
Q 14.796875 17.390625 18.875 11.75 
Q 22.953125 6.109375 30.078125 6.109375 
Q 37.203125 6.109375 41.296875 11.75 
Q 45.40625 17.390625 45.40625 27.296875 
Q 45.40625 37.203125 41.296875 42.84375 
Q 37.203125 48.484375 30.078125 48.484375 
Q 22.953125 48.484375 18.875 42.84375 
Q 14.796875 37.203125 14.796875 27.296875 
z
" id="DejaVuSans-100"/>
       <path d="M 18.3125 70.21875 
L 18.3125 54.6875 
L 36.8125 54.6875 
L 36.8125 47.703125 
L 18.3125 47.703125 
L 18.3125 18.015625 
Q 18.3125 11.328125 20.140625 9.421875 
Q 21.96875 7.515625 27.59375 7.515625 
L 36.8125 7.515625 
L 36.8125 0 
L 27.59375 0 
Q 17.1875 0 13.234375 3.875 
Q 9.28125 7.765625 9.28125 18.015625 
L 9.28125 47.703125 
L 2.6875 47.703125 
L 2.6875 54.6875 
L 9.28125 54.6875 
L 9.28125 70.21875 
z
" id="DejaVuSans-116"/>
       <path d="M 56.203125 29.59375 
L 56.203125 25.203125 
L 14.890625 25.203125 
Q 15.484375 15.921875 20.484375 11.0625 
Q 25.484375 6.203125 34.421875 6.203125 
Q 39.59375 6.203125 44.453125 7.46875 
Q 49.3125 8.734375 54.109375 11.28125 
L 54.109375 2.78125 
Q 49.265625 0.734375 44.1875 -0.34375 
Q 39.109375 -1.421875 33.890625 -1.421875 
Q 20.796875 -1.421875 13.15625 6.1875 
Q 5.515625 13.8125 5.515625 26.8125 
Q 5.515625 40.234375 12.765625 48.109375 
Q 20.015625 56 32.328125 56 
Q 43.359375 56 49.78125 48.890625 
Q 56.203125 41.796875 56.203125 29.59375 
z
M 47.21875 32.234375 
Q 47.125 39.59375 43.09375 43.984375 
Q 39.0625 48.390625 32.421875 48.390625 
Q 24.90625 48.390625 20.390625 44.140625 
Q 15.875 39.890625 15.1875 32.171875 
z
" id="DejaVuSans-101"/>
       <path d="M 54.890625 33.015625 
L 54.890625 0 
L 45.90625 0 
L 45.90625 32.71875 
Q 45.90625 40.484375 42.875 44.328125 
Q 39.84375 48.1875 33.796875 48.1875 
Q 26.515625 48.1875 22.3125 43.546875 
Q 18.109375 38.921875 18.109375 30.90625 
L 18.109375 0 
L 9.078125 0 
L 9.078125 75.984375 
L 18.109375 75.984375 
L 18.109375 46.1875 
Q 21.34375 51.125 25.703125 53.5625 
Q 30.078125 56 35.796875 56 
Q 45.21875 56 50.046875 50.171875 
Q 54.890625 44.34375 54.890625 33.015625 
z
" id="DejaVuSans-104"/>
       <path d="M 41.109375 46.296875 
Q 39.59375 47.171875 37.8125 47.578125 
Q 36.03125 48 33.890625 48 
Q 26.265625 48 22.1875 43.046875 
Q 18.109375 38.09375 18.109375 28.8125 
L 18.109375 0 
L 9.078125 0 
L 9.078125 54.6875 
L 18.109375 54.6875 
L 18.109375 46.1875 
Q 20.953125 51.171875 25.484375 53.578125 
Q 30.03125 56 36.53125 56 
Q 37.453125 56 38.578125 55.875 
Q 39.703125 55.765625 41.0625 55.515625 
z
" id="DejaVuSans-114"/>
       <path d="M 44.28125 53.078125 
L 44.28125 44.578125 
Q 40.484375 46.53125 36.375 47.5 
Q 32.28125 48.484375 27.875 48.484375 
Q 21.1875 48.484375 17.84375 46.4375 
Q 14.5 44.390625 14.5 40.28125 
Q 14.5 37.15625 16.890625 35.375 
Q 19.28125 33.59375 26.515625 31.984375 
L 29.59375 31.296875 
Q 39.15625 29.25 43.1875 25.515625 
Q 47.21875 21.78125 47.21875 15.09375 
Q 47.21875 7.46875 41.1875 3.015625 
Q 35.15625 -1.421875 24.609375 -1.421875 
Q 20.21875 -1.421875 15.453125 -0.5625 
Q 10.6875 0.296875 5.421875 2 
L 5.421875 11.28125 
Q 10.40625 8.6875 15.234375 7.390625 
Q 20.0625 6.109375 24.8125 6.109375 
Q 31.15625 6.109375 34.5625 8.28125 
Q 37.984375 10.453125 37.984375 14.40625 
Q 37.984375 18.0625 35.515625 20.015625 
Q 33.0625 21.96875 24.703125 23.78125 
L 21.578125 24.515625 
Q 13.234375 26.265625 9.515625 29.90625 
Q 5.8125 33.546875 5.8125 39.890625 
Q 5.8125 47.609375 11.28125 51.796875 
Q 16.75 56 26.8125 56 
Q 31.78125 56 36.171875 55.265625 
Q 40.578125 54.546875 44.28125 53.078125 
z
" id="DejaVuSans-115"/>
       <path d="M 30.609375 48.390625 
Q 23.390625 48.390625 19.1875 42.75 
Q 14.984375 37.109375 14.984375 27.296875 
Q 14.984375 17.484375 19.15625 11.84375 
Q 23.34375 6.203125 30.609375 6.203125 
Q 37.796875 6.203125 41.984375 11.859375 
Q 46.1875 17.53125 46.1875 27.296875 
Q 46.1875 37.015625 41.984375 42.703125 
Q 37.796875 48.390625 30.609375 48.390625 
z
M 30.609375 56 
Q 42.328125 56 49.015625 48.375 
Q 55.71875 40.765625 55.71875 27.296875 
Q 55.71875 13.875 49.015625 6.21875 
Q 42.328125 -1.421875 30.609375 -1.421875 
Q 18.84375 -1.421875 12.171875 6.21875 
Q 5.515625 13.875 5.515625 27.296875 
Q 5.515625 40.765625 12.171875 48.375 
Q 18.84375 56 30.609375 56 
z
" id="DejaVuSans-111"/>
      </defs>
      <use xlink:href="#DejaVuSans-70"/>
      <use x="57.519531" xlink:href="#DejaVuSans-108"/>
      <use x="85.302734" xlink:href="#DejaVuSans-105"/>
      <use x="113.085938" xlink:href="#DejaVuSans-112"/>
      <use x="176.5625" xlink:href="#DejaVuSans-112"/>
      <use x="240.039062" xlink:href="#DejaVuSans-105"/>
      <use x="267.822266" xlink:href="#DejaVuSans-110"/>
      <use x="331.201172" xlink:href="#DejaVuSans-103"/>
      <use x="394.677734" xlink:href="#DejaVuSans-32"/>
      <use x="426.464844" xlink:href="#DejaVuSans-99"/>
      <use x="481.445312" xlink:href="#DejaVuSans-97"/>
      <use x="542.724609" xlink:href="#DejaVuSans-110"/>
      <use x="606.103516" xlink:href="#DejaVuSans-100"/>
      <use x="669.580078" xlink:href="#DejaVuSans-105"/>
      <use x="697.363281" xlink:href="#DejaVuSans-100"/>
      <use x="760.839844" xlink:href="#DejaVuSans-97"/>
      <use x="822.119141" xlink:href="#DejaVuSans-116"/>
      <use x="861.328125" xlink:href="#DejaVuSans-101"/>
      <use x="922.851562" xlink:href="#DejaVuSans-32"/>
      <use x="954.638672" xlink:href="#DejaVuSans-116"/>
      <use x="993.847656" xlink:href="#DejaVuSans-104"/>
      <use x="1057.226562" xlink:href="#DejaVuSans-114"/>
      <use x="1096.089844" xlink:href="#DejaVuSans-101"/>
      <use x="1157.613281" xlink:href="#DejaVuSans-115"/>
      <use x="1209.712891" xlink:href="#DejaVuSans-104"/>
      <use x="1273.091797" xlink:href="#DejaVuSans-111"/>
      <use x="1334.273438" xlink:href="#DejaVuSans-108"/>
      <use x="1362.056641" xlink:href="#DejaVuSans-100"/>
     </g>
    </g>
   </g>
   <g id="matplotlib.axis_2">
    <g id="ytick_1">
     <g id="text_8">
      <!-- 0.0 -->
      <g style="fill:#262626;" transform="translate(23.046563 324.291141)scale(0.11 -0.11)">
       <use xlink:href="#DejaVuSans-48"/>
       <use x="63.623047" xlink:href="#DejaVuSans-46"/>
       <use x="95.410156" xlink:href="#DejaVuSans-48"/>
      </g>
     </g>
    </g>
    <g id="ytick_2">
     <g id="text_9">
      <!-- 0.2 -->
      <g style="fill:#262626;" transform="translate(23.046563 268.896644)scale(0.11 -0.11)">
       <use xlink:href="#DejaVuSans-48"/>
       <use x="63.623047" xlink:href="#DejaVuSans-46"/>
       <use x="95.410156" xlink:href="#DejaVuSans-50"/>
      </g>
     </g>
    </g>
    <g id="ytick_3">
     <g id="text_10">
      <!-- 0.4 -->
      <g style="fill:#262626;" transform="translate(23.046563 213.502148)scale(0.11 -0.11)">
       <use xlink:href="#DejaVuSans-48"/>
       <use x="63.623047" xlink:href="#DejaVuSans-46"/>
       <use x="95.410156" xlink:href="#DejaVuSans-52"/>
      </g>
     </g>
    </g>
    <g id="ytick_4">
     <g id="text_11">
      <!-- 0.6 -->
      <g style="fill:#262626;" transform="translate(23.046563 158.107651)scale(0.11 -0.11)">
       <use xlink:href="#DejaVuSans-48"/>
       <use x="63.623047" xlink:href="#DejaVuSans-46"/>
       <use x="95.410156" xlink:href="#DejaVuSans-54"/>
      </g>
     </g>
    </g>
    <g id="ytick_5">
     <g id="text_12">
      <!-- 0.8 -->
      <g style="fill:#262626;" transform="translate(23.046563 102.713155)scale(0.11 -0.11)">
       <use xlink:href="#DejaVuSans-48"/>
       <use x="63.623047" xlink:href="#DejaVuSans-46"/>
       <use x="95.410156" xlink:href="#DejaVuSans-56"/>
      </g>
     </g>
    </g>
    <g id="text_13">
     <!-- Flipping candidate rate -->
     <g style="fill:#262626;" transform="translate(16.550937 258.538875)rotate(-90)scale(0.12 -0.12)">
      <use xlink:href="#DejaVuSans-70"/>
      <use x="57.519531" xlink:href="#DejaVuSans-108"/>
      <use x="85.302734" xlink:href="#DejaVuSans-105"/>
      <use x="113.085938" xlink:href="#DejaVuSans-112"/>
      <use x="176.5625" xlink:href="#DejaVuSans-112"/>
      <use x="240.039062" xlink:href="#DejaVuSans-105"/>
      <use x="267.822266" xlink:href="#DejaVuSans-110"/>
      <use x="331.201172" xlink:href="#DejaVuSans-103"/>
      <use x="394.677734" xlink:href="#DejaVuSans-32"/>
      <use x="426.464844" xlink:href="#DejaVuSans-99"/>
      <use x="481.445312" xlink:href="#DejaVuSans-97"/>
      <use x="542.724609" xlink:href="#DejaVuSans-110"/>
      <use x="606.103516" xlink:href="#DejaVuSans-100"/>
      <use x="669.580078" xlink:href="#DejaVuSans-105"/>
      <use x="697.363281" xlink:href="#DejaVuSans-100"/>
      <use x="760.839844" xlink:href="#DejaVuSans-97"/>
      <use x="822.119141" xlink:href="#DejaVuSans-116"/>
      <use x="861.328125" xlink:href="#DejaVuSans-101"/>
      <use x="922.851562" xlink:href="#DejaVuSans-32"/>
      <use x="954.638672" xlink:href="#DejaVuSans-114"/>
      <use x="995.751953" xlink:href="#DejaVuSans-97"/>
      <use x="1057.03125" xlink:href="#DejaVuSans-116"/>
      <use x="1096.240234" xlink:href="#DejaVuSans-101"/>
     </g>
    </g>
   </g>
   <g id="line2d_1">
    <path clip-path="url(#pce66bfc198)" d="M 64.142182 58.032 
L 66.991107 131.725417 
L 69.840033 131.725417 
L 72.688959 131.725417 
L 75.537884 131.725417 
L 78.38681 131.725417 
L 81.235736 131.725417 
L 84.084661 131.725417 
L 86.933587 131.725417 
L 89.782512 131.725417 
L 92.631438 131.725417 
L 95.480364 135.158099 
L 98.329289 182.440935 
L 101.178215 189.749617 
L 104.02714 194.884785 
L 106.876066 200.300442 
L 109.724992 204.580152 
L 112.573917 207.438874 
L 115.422843 211.353067 
L 118.271769 214.106905 
L 121.120694 216.311927 
L 123.96962 218.223596 
L 126.818545 219.697975 
L 129.667471 221.746606 
L 132.516397 224.120293 
L 135.365322 225.855295 
L 138.214248 227.478317 
L 141.063174 230.276779 
L 143.912099 232.087647 
L 146.761025 234.343558 
L 149.60995 235.477426 
L 152.458876 237.274486 
L 155.307802 238.945871 
L 158.156727 240.652813 
L 161.005653 242.506815 
L 163.854579 244.201748 
L 166.703504 245.695315 
L 169.55243 247.691526 
L 172.401355 249.633592 
L 175.250281 252.033311 
L 178.099207 254.093219 
L 180.948132 255.372891 
L 183.797058 256.577656 
L 186.645983 257.731428 
L 189.494909 259.089224 
L 192.343835 260.402548 
L 195.19276 262.226115 
L 198.041686 264.122062 
L 200.890612 265.208524 
L 203.739537 267.407516 
L 206.588463 268.956779 
L 209.437388 270.448668 
L 212.286314 272.241951 
L 215.13524 273.36362 
L 217.984165 274.506439 
L 220.833091 276.421368 
L 223.682017 293.686616 
L 226.530942 295.905947 
L 229.379868 298.320052 
L 232.228793 299.264026 
L 235.077719 300.119611 
L 237.926645 300.861609 
L 240.77557 301.564888 
L 243.624496 303.460247 
L 246.473421 304.705226 
L 249.322347 306.070781 
L 252.171273 307.944327 
L 255.020198 308.315598 
L 257.869124 309.196317 
L 260.71805 309.611564 
L 263.566975 311.226913 
L 266.415901 312.325332 
L 269.264826 314.074491 
L 272.113752 314.388209 
L 274.962678 314.761245 
L 277.811603 315.095739 
L 280.660529 315.77116 
L 283.509455 316.153552 
L 286.35838 316.85791 
L 289.207306 317.020713 
L 292.056231 317.39976 
L 294.905157 317.655615 
L 297.754083 318.071213 
L 300.603008 318.451619 
L 303.451934 318.579238 
L 306.30086 318.767326 
L 309.149785 318.899308 
L 311.998711 319.263202 
L 314.847636 319.431453 
L 317.696562 319.618425 
L 320.545488 319.735028 
L 323.394413 319.773497 
L 326.243339 319.84046 
L 329.092264 319.896937 
L 331.94119 319.896937 
L 334.790116 319.961051 
L 337.639041 320.055805 
L 340.487967 320.078909 
L 343.336893 320.112 
L 346.185818 320.112 
" style="fill:none;stroke:#4c72b0;stroke-linecap:round;stroke-width:1.5;"/>
   </g>
   <g id="line2d_2">
    <path clip-path="url(#pce66bfc198)" d="M 64.142182 63.907518 
L 66.991107 167.102568 
L 69.840033 167.102568 
L 72.688959 167.102568 
L 75.537884 167.102568 
L 78.38681 167.102568 
L 81.235736 167.102568 
L 84.084661 167.102568 
L 86.933587 167.102568 
L 89.782512 167.102568 
L 92.631438 167.102568 
L 95.480364 167.549918 
L 98.329289 213.862454 
L 101.178215 223.300418 
L 104.02714 227.695691 
L 106.876066 230.694971 
L 109.724992 235.403075 
L 112.573917 239.412437 
L 115.422843 242.501569 
L 118.271769 244.158928 
L 121.120694 246.573125 
L 123.96962 248.405212 
L 126.818545 249.742554 
L 129.667471 251.248397 
L 132.516397 253.239512 
L 135.365322 255.11443 
L 138.214248 257.772768 
L 141.063174 258.877803 
L 143.912099 260.31816 
L 146.761025 261.477833 
L 149.60995 263.530323 
L 152.458876 264.858779 
L 155.307802 267.138468 
L 158.156727 268.448272 
L 161.005653 269.723801 
L 163.854579 270.908007 
L 166.703504 272.68218 
L 169.55243 274.398525 
L 172.401355 275.293882 
L 175.250281 276.664967 
L 178.099207 277.591246 
L 180.948132 279.567404 
L 183.797058 280.736362 
L 186.645983 281.771255 
L 189.494909 282.590752 
L 192.343835 283.530578 
L 195.19276 284.421763 
L 198.041686 285.441589 
L 200.890612 286.566265 
L 203.739537 288.176562 
L 206.588463 289.316596 
L 209.437388 290.207051 
L 212.286314 291.78592 
L 215.13524 292.700143 
L 217.984165 295.333448 
L 220.833091 296.163499 
L 223.682017 308.998336 
L 226.530942 309.99265 
L 229.379868 310.786234 
L 232.228793 311.629207 
L 235.077719 312.016259 
L 237.926645 312.761145 
L 240.77557 313.376266 
L 243.624496 313.995747 
L 246.473421 314.469792 
L 249.322347 314.75226 
L 252.171273 314.989919 
L 255.020198 315.341175 
L 257.869124 315.724719 
L 260.71805 316.124641 
L 263.566975 316.37145 
L 266.415901 316.686089 
L 269.264826 316.959622 
L 272.113752 317.299618 
L 274.962678 317.562752 
L 277.811603 317.771935 
L 280.660529 318.004741 
L 283.509455 318.209581 
L 286.35838 318.442447 
L 289.207306 318.580961 
L 292.056231 318.773567 
L 294.905157 318.836859 
L 297.754083 318.883684 
L 300.603008 319.141136 
L 303.451934 319.168037 
L 306.30086 319.302467 
L 309.149785 319.445259 
L 311.998711 319.511376 
L 314.847636 319.605331 
L 317.696562 319.662449 
L 320.545488 319.709795 
L 323.394413 319.819993 
L 326.243339 319.961031 
L 329.092264 319.996422 
L 331.94119 320.025291 
L 334.790116 320.025291 
L 337.639041 320.054882 
L 340.487967 320.054882 
L 343.336893 320.112 
L 346.185818 320.112 
" style="fill:none;stroke:#dd8452;stroke-linecap:round;stroke-width:1.5;"/>
   </g>
   <g id="line2d_3">
    <path clip-path="url(#pce66bfc198)" d="M 64.142182 65.667408 
L 66.991107 151.977566 
L 69.840033 151.977566 
L 72.688959 151.977566 
L 75.537884 151.977566 
L 78.38681 151.977566 
L 81.235736 151.977566 
L 84.084661 151.977566 
L 86.933587 151.977566 
L 89.782512 151.977566 
L 92.631438 151.977566 
L 95.480364 152.602187 
L 98.329289 218.111673 
L 101.178215 227.714443 
L 104.02714 232.56167 
L 106.876066 235.652195 
L 109.724992 238.720865 
L 112.573917 241.424859 
L 115.422843 244.944328 
L 118.271769 247.244399 
L 121.120694 249.425991 
L 123.96962 251.586141 
L 126.818545 252.985163 
L 129.667471 254.656663 
L 132.516397 257.160391 
L 135.365322 259.041231 
L 138.214248 262.249216 
L 141.063174 264.160111 
L 143.912099 264.868514 
L 146.761025 266.464454 
L 149.60995 267.835747 
L 152.458876 269.273117 
L 155.307802 270.587393 
L 158.156727 271.384503 
L 161.005653 273.282652 
L 163.854579 274.573781 
L 166.703504 276.177142 
L 169.55243 277.785063 
L 172.401355 278.310396 
L 175.250281 280.180845 
L 178.099207 281.380066 
L 180.948132 282.595312 
L 183.797058 283.35181 
L 186.645983 284.840423 
L 189.494909 285.149383 
L 192.343835 286.714098 
L 195.19276 287.724394 
L 198.041686 288.709613 
L 200.890612 289.937856 
L 203.739537 290.965594 
L 206.588463 292.591603 
L 209.437388 293.773254 
L 212.286314 294.625821 
L 215.13524 296.154863 
L 217.984165 296.846953 
L 220.833091 298.325907 
L 223.682017 312.48557 
L 226.530942 313.356495 
L 229.379868 314.142165 
L 232.228793 314.511547 
L 235.077719 314.747575 
L 237.926645 315.05335 
L 240.77557 315.348527 
L 243.624496 315.516799 
L 246.473421 315.884653 
L 249.322347 316.039213 
L 252.171273 316.270521 
L 255.020198 316.598722 
L 257.869124 316.970815 
L 260.71805 317.288894 
L 263.566975 317.479229 
L 266.415901 317.587931 
L 269.264826 317.862916 
L 272.113752 317.939853 
L 274.962678 318.392478 
L 277.811603 318.521622 
L 280.660529 318.585736 
L 283.509455 318.725573 
L 286.35838 318.725573 
L 289.207306 318.97231 
L 292.056231 319.019414 
L 294.905157 319.191142 
L 297.754083 319.191142 
L 300.603008 319.363056 
L 303.451934 319.363056 
L 306.30086 319.442646 
L 309.149785 319.950692 
L 311.998711 320.025147 
L 314.847636 320.025147 
L 317.696562 320.025147 
L 320.545488 320.025147 
L 323.394413 320.025147 
L 326.243339 320.112 
L 329.092264 320.112 
L 331.94119 320.112 
L 334.790116 320.112 
L 337.639041 320.112 
L 340.487967 320.112 
L 343.336893 320.112 
L 346.185818 320.112 
" style="fill:none;stroke:#55a868;stroke-linecap:round;stroke-width:1.5;"/>
   </g>
   <g id="patch_3">
    <path d="M 50.04 333.216 
L 50.04 44.928 
" style="fill:none;stroke:#ffffff;stroke-linecap:square;stroke-linejoin:miter;stroke-width:1.25;"/>
   </g>
   <g id="patch_4">
    <path d="M 360.288 333.216 
L 360.288 44.928 
" style="fill:none;stroke:#ffffff;stroke-linecap:square;stroke-linejoin:miter;stroke-width:1.25;"/>
   </g>
   <g id="patch_5">
    <path d="M 50.04 333.216 
L 360.288 333.216 
" style="fill:none;stroke:#ffffff;stroke-linecap:square;stroke-linejoin:miter;stroke-width:1.25;"/>
   </g>
   <g id="patch_6">
    <path d="M 50.04 44.928 
L 360.288 44.928 
" style="fill:none;stroke:#ffffff;stroke-linecap:square;stroke-linejoin:miter;stroke-width:1.25;"/>
   </g>
   <g id="text_14">
    <!-- Flipping candidate rate per vis type -->
    <g style="fill:#262626;" transform="translate(98.260875 38.928)scale(0.12 -0.12)">
     <defs>
      <path d="M 2.984375 54.6875 
L 12.5 54.6875 
L 29.59375 8.796875 
L 46.6875 54.6875 
L 56.203125 54.6875 
L 35.6875 0 
L 23.484375 0 
z
" id="DejaVuSans-118"/>
      <path d="M 32.171875 -5.078125 
Q 28.375 -14.84375 24.75 -17.8125 
Q 21.140625 -20.796875 15.09375 -20.796875 
L 7.90625 -20.796875 
L 7.90625 -13.28125 
L 13.1875 -13.28125 
Q 16.890625 -13.28125 18.9375 -11.515625 
Q 21 -9.765625 23.484375 -3.21875 
L 25.09375 0.875 
L 2.984375 54.6875 
L 12.5 54.6875 
L 29.59375 11.921875 
L 46.6875 54.6875 
L 56.203125 54.6875 
z
" id="DejaVuSans-121"/>
     </defs>
     <use xlink:href="#DejaVuSans-70"/>
     <use x="57.519531" xlink:href="#DejaVuSans-108"/>
     <use x="85.302734" xlink:href="#DejaVuSans-105"/>
     <use x="113.085938" xlink:href="#DejaVuSans-112"/>
     <use x="176.5625" xlink:href="#DejaVuSans-112"/>
     <use x="240.039062" xlink:href="#DejaVuSans-105"/>
     <use x="267.822266" xlink:href="#DejaVuSans-110"/>
     <use x="331.201172" xlink:href="#DejaVuSans-103"/>
     <use x="394.677734" xlink:href="#DejaVuSans-32"/>
     <use x="426.464844" xlink:href="#DejaVuSans-99"/>
     <use x="481.445312" xlink:href="#DejaVuSans-97"/>
     <use x="542.724609" xlink:href="#DejaVuSans-110"/>
     <use x="606.103516" xlink:href="#DejaVuSans-100"/>
     <use x="669.580078" xlink:href="#DejaVuSans-105"/>
     <use x="697.363281" xlink:href="#DejaVuSans-100"/>
     <use x="760.839844" xlink:href="#DejaVuSans-97"/>
     <use x="822.119141" xlink:href="#DejaVuSans-116"/>
     <use x="861.328125" xlink:href="#DejaVuSans-101"/>
     <use x="922.851562" xlink:href="#DejaVuSans-32"/>
     <use x="954.638672" xlink:href="#DejaVuSans-114"/>
     <use x="995.751953" xlink:href="#DejaVuSans-97"/>
     <use x="1057.03125" xlink:href="#DejaVuSans-116"/>
     <use x="1096.240234" xlink:href="#DejaVuSans-101"/>
     <use x="1157.763672" xlink:href="#DejaVuSans-32"/>
     <use x="1189.550781" xlink:href="#DejaVuSans-112"/>
     <use x="1253.027344" xlink:href="#DejaVuSans-101"/>
     <use x="1314.550781" xlink:href="#DejaVuSans-114"/>
     <use x="1355.664062" xlink:href="#DejaVuSans-32"/>
     <use x="1387.451172" xlink:href="#DejaVuSans-118"/>
     <use x="1446.630859" xlink:href="#DejaVuSans-105"/>
     <use x="1474.414062" xlink:href="#DejaVuSans-115"/>
     <use x="1526.513672" xlink:href="#DejaVuSans-32"/>
     <use x="1558.300781" xlink:href="#DejaVuSans-116"/>
     <use x="1597.509766" xlink:href="#DejaVuSans-121"/>
     <use x="1656.689453" xlink:href="#DejaVuSans-112"/>
     <use x="1720.166016" xlink:href="#DejaVuSans-101"/>
    </g>
   </g>
   <g id="legend_1">
    <g id="patch_7">
     <path d="M 278.953312 102.165813 
L 352.588 102.165813 
Q 354.788 102.165813 354.788 99.965813 
L 354.788 52.628 
Q 354.788 50.428 352.588 50.428 
L 278.953312 50.428 
Q 276.753312 50.428 276.753312 52.628 
L 276.753312 99.965813 
Q 276.753312 102.165813 278.953312 102.165813 
z
" style="fill:#eaeaf2;opacity:0.8;stroke:#cccccc;stroke-linejoin:miter;"/>
    </g>
    <g id="line2d_4">
     <path d="M 281.153312 59.336281 
L 303.153312 59.336281 
" style="fill:none;stroke:#4c72b0;stroke-linecap:round;stroke-width:1.5;"/>
    </g>
    <g id="line2d_5"/>
    <g id="text_15">
     <!-- bar -->
     <g style="fill:#262626;" transform="translate(311.953312 63.186281)scale(0.11 -0.11)">
      <defs>
       <path d="M 48.6875 27.296875 
Q 48.6875 37.203125 44.609375 42.84375 
Q 40.53125 48.484375 33.40625 48.484375 
Q 26.265625 48.484375 22.1875 42.84375 
Q 18.109375 37.203125 18.109375 27.296875 
Q 18.109375 17.390625 22.1875 11.75 
Q 26.265625 6.109375 33.40625 6.109375 
Q 40.53125 6.109375 44.609375 11.75 
Q 48.6875 17.390625 48.6875 27.296875 
z
M 18.109375 46.390625 
Q 20.953125 51.265625 25.265625 53.625 
Q 29.59375 56 35.59375 56 
Q 45.5625 56 51.78125 48.09375 
Q 58.015625 40.1875 58.015625 27.296875 
Q 58.015625 14.40625 51.78125 6.484375 
Q 45.5625 -1.421875 35.59375 -1.421875 
Q 29.59375 -1.421875 25.265625 0.953125 
Q 20.953125 3.328125 18.109375 8.203125 
L 18.109375 0 
L 9.078125 0 
L 9.078125 75.984375 
L 18.109375 75.984375 
z
" id="DejaVuSans-98"/>
      </defs>
      <use xlink:href="#DejaVuSans-98"/>
      <use x="63.476562" xlink:href="#DejaVuSans-97"/>
      <use x="124.755859" xlink:href="#DejaVuSans-114"/>
     </g>
    </g>
    <g id="line2d_6">
     <path d="M 281.153312 75.482219 
L 303.153312 75.482219 
" style="fill:none;stroke:#dd8452;stroke-linecap:round;stroke-width:1.5;"/>
    </g>
    <g id="line2d_7"/>
    <g id="text_16">
     <!-- line -->
     <g style="fill:#262626;" transform="translate(311.953312 79.332219)scale(0.11 -0.11)">
      <use xlink:href="#DejaVuSans-108"/>
      <use x="27.783203" xlink:href="#DejaVuSans-105"/>
      <use x="55.566406" xlink:href="#DejaVuSans-110"/>
      <use x="118.945312" xlink:href="#DejaVuSans-101"/>
     </g>
    </g>
    <g id="line2d_8">
     <path d="M 281.153312 91.628156 
L 303.153312 91.628156 
" style="fill:none;stroke:#55a868;stroke-linecap:round;stroke-width:1.5;"/>
    </g>
    <g id="line2d_9"/>
    <g id="text_17">
     <!-- scatter -->
     <g style="fill:#262626;" transform="translate(311.953312 95.478156)scale(0.11 -0.11)">
      <use xlink:href="#DejaVuSans-115"/>
      <use x="52.099609" xlink:href="#DejaVuSans-99"/>
      <use x="107.080078" xlink:href="#DejaVuSans-97"/>
      <use x="168.359375" xlink:href="#DejaVuSans-116"/>
      <use x="207.568359" xlink:href="#DejaVuSans-116"/>
      <use x="246.777344" xlink:href="#DejaVuSans-101"/>
      <use x="308.300781" xlink:href="#DejaVuSans-114"/>
     </g>
    </g>
   </g>
  </g>
 </g>
 <defs>
  <clipPath id="pce66bfc198">
   <rect height="288.288" width="310.248" x="50.04" y="44.928"/>
  </clipPath>
 </defs>
</svg>
