<?xml version="1.0" encoding="utf-8" standalone="no"?>
<!DOCTYPE svg PUBLIC "-//W3C//DTD SVG 1.1//EN"
  "http://www.w3.org/Graphics/SVG/1.1/DTD/svg11.dtd">
<!-- Created with matplotlib (https://matplotlib.org/) -->
<svg height="345.6pt" version="1.1" viewBox="0 0 460.8 345.6" width="460.8pt" xmlns="http://www.w3.org/2000/svg" xmlns:xlink="http://www.w3.org/1999/xlink">
 <metadata>
  <rdf:RDF xmlns:cc="http://creativecommons.org/ns#" xmlns:dc="http://purl.org/dc/elements/1.1/" xmlns:rdf="http://www.w3.org/1999/02/22-rdf-syntax-ns#">
   <cc:Work>
    <dc:type rdf:resource="http://purl.org/dc/dcmitype/StillImage"/>
    <dc:date>2022-03-01T22:15:14.657664</dc:date>
    <dc:format>image/svg+xml</dc:format>
    <dc:creator>
     <cc:Agent>
      <dc:title>Matplotlib v3.3.3, https://matplotlib.org/</dc:title>
     </cc:Agent>
    </dc:creator>
   </cc:Work>
  </rdf:RDF>
 </metadata>
 <defs>
  <style type="text/css">*{stroke-linecap:butt;stroke-linejoin:round;}</style>
 </defs>
 <g id="figure_1">
  <g id="patch_1">
   <path d="M 0 345.6 
L 460.8 345.6 
L 460.8 0 
L 0 0 
z
" style="fill:#ffffff;"/>
  </g>
  <g id="axes_1">
   <g id="patch_2">
    <path d="M 57.6 307.584 
L 414.72 307.584 
L 414.72 41.472 
L 57.6 41.472 
z
" style="fill:#eaeaf2;"/>
   </g>
   <g id="matplotlib.axis_1">
    <g id="xtick_1">
     <g id="text_1">
      <!-- 0.0 -->
      <g style="fill:#262626;" transform="translate(65.086009 325.442281)scale(0.11 -0.11)">
       <defs>
        <path d="M 31.78125 66.40625 
Q 24.171875 66.40625 20.328125 58.90625 
Q 16.5 51.421875 16.5 36.375 
Q 16.5 21.390625 20.328125 13.890625 
Q 24.171875 6.390625 31.78125 6.390625 
Q 39.453125 6.390625 43.28125 13.890625 
Q 47.125 21.390625 47.125 36.375 
Q 47.125 51.421875 43.28125 58.90625 
Q 39.453125 66.40625 31.78125 66.40625 
z
M 31.78125 74.21875 
Q 44.046875 74.21875 50.515625 64.515625 
Q 56.984375 54.828125 56.984375 36.375 
Q 56.984375 17.96875 50.515625 8.265625 
Q 44.046875 -1.421875 31.78125 -1.421875 
Q 19.53125 -1.421875 13.0625 8.265625 
Q 6.59375 17.96875 6.59375 36.375 
Q 6.59375 54.828125 13.0625 64.515625 
Q 19.53125 74.21875 31.78125 74.21875 
z
" id="DejaVuSans-48"/>
        <path d="M 10.6875 12.40625 
L 21 12.40625 
L 21 0 
L 10.6875 0 
z
" id="DejaVuSans-46"/>
       </defs>
       <use xlink:href="#DejaVuSans-48"/>
       <use x="63.623047" xlink:href="#DejaVuSans-46"/>
       <use x="95.410156" xlink:href="#DejaVuSans-48"/>
      </g>
     </g>
    </g>
    <g id="xtick_2">
     <g id="text_2">
      <!-- 0.2 -->
      <g style="fill:#262626;" transform="translate(130.016918 325.442281)scale(0.11 -0.11)">
       <defs>
        <path d="M 19.1875 8.296875 
L 53.609375 8.296875 
L 53.609375 0 
L 7.328125 0 
L 7.328125 8.296875 
Q 12.9375 14.109375 22.625 23.890625 
Q 32.328125 33.6875 34.8125 36.53125 
Q 39.546875 41.84375 41.421875 45.53125 
Q 43.3125 49.21875 43.3125 52.78125 
Q 43.3125 58.59375 39.234375 62.25 
Q 35.15625 65.921875 28.609375 65.921875 
Q 23.96875 65.921875 18.8125 64.3125 
Q 13.671875 62.703125 7.8125 59.421875 
L 7.8125 69.390625 
Q 13.765625 71.78125 18.9375 73 
Q 24.125 74.21875 28.421875 74.21875 
Q 39.75 74.21875 46.484375 68.546875 
Q 53.21875 62.890625 53.21875 53.421875 
Q 53.21875 48.921875 51.53125 44.890625 
Q 49.859375 40.875 45.40625 35.40625 
Q 44.1875 33.984375 37.640625 27.21875 
Q 31.109375 20.453125 19.1875 8.296875 
z
" id="DejaVuSans-50"/>
       </defs>
       <use xlink:href="#DejaVuSans-48"/>
       <use x="63.623047" xlink:href="#DejaVuSans-46"/>
       <use x="95.410156" xlink:href="#DejaVuSans-50"/>
      </g>
     </g>
    </g>
    <g id="xtick_3">
     <g id="text_3">
      <!-- 0.4 -->
      <g style="fill:#262626;" transform="translate(194.947827 325.442281)scale(0.11 -0.11)">
       <defs>
        <path d="M 37.796875 64.3125 
L 12.890625 25.390625 
L 37.796875 25.390625 
z
M 35.203125 72.90625 
L 47.609375 72.90625 
L 47.609375 25.390625 
L 58.015625 25.390625 
L 58.015625 17.1875 
L 47.609375 17.1875 
L 47.609375 0 
L 37.796875 0 
L 37.796875 17.1875 
L 4.890625 17.1875 
L 4.890625 26.703125 
z
" id="DejaVuSans-52"/>
       </defs>
       <use xlink:href="#DejaVuSans-48"/>
       <use x="63.623047" xlink:href="#DejaVuSans-46"/>
       <use x="95.410156" xlink:href="#DejaVuSans-52"/>
      </g>
     </g>
    </g>
    <g id="xtick_4">
     <g id="text_4">
      <!-- 0.6 -->
      <g style="fill:#262626;" transform="translate(259.878736 325.442281)scale(0.11 -0.11)">
       <defs>
        <path d="M 33.015625 40.375 
Q 26.375 40.375 22.484375 35.828125 
Q 18.609375 31.296875 18.609375 23.390625 
Q 18.609375 15.53125 22.484375 10.953125 
Q 26.375 6.390625 33.015625 6.390625 
Q 39.65625 6.390625 43.53125 10.953125 
Q 47.40625 15.53125 47.40625 23.390625 
Q 47.40625 31.296875 43.53125 35.828125 
Q 39.65625 40.375 33.015625 40.375 
z
M 52.59375 71.296875 
L 52.59375 62.3125 
Q 48.875 64.0625 45.09375 64.984375 
Q 41.3125 65.921875 37.59375 65.921875 
Q 27.828125 65.921875 22.671875 59.328125 
Q 17.53125 52.734375 16.796875 39.40625 
Q 19.671875 43.65625 24.015625 45.921875 
Q 28.375 48.1875 33.59375 48.1875 
Q 44.578125 48.1875 50.953125 41.515625 
Q 57.328125 34.859375 57.328125 23.390625 
Q 57.328125 12.15625 50.6875 5.359375 
Q 44.046875 -1.421875 33.015625 -1.421875 
Q 20.359375 -1.421875 13.671875 8.265625 
Q 6.984375 17.96875 6.984375 36.375 
Q 6.984375 53.65625 15.1875 63.9375 
Q 23.390625 74.21875 37.203125 74.21875 
Q 40.921875 74.21875 44.703125 73.484375 
Q 48.484375 72.75 52.59375 71.296875 
z
" id="DejaVuSans-54"/>
       </defs>
       <use xlink:href="#DejaVuSans-48"/>
       <use x="63.623047" xlink:href="#DejaVuSans-46"/>
       <use x="95.410156" xlink:href="#DejaVuSans-54"/>
      </g>
     </g>
    </g>
    <g id="xtick_5">
     <g id="text_5">
      <!-- 0.8 -->
      <g style="fill:#262626;" transform="translate(324.809645 325.442281)scale(0.11 -0.11)">
       <defs>
        <path d="M 31.78125 34.625 
Q 24.75 34.625 20.71875 30.859375 
Q 16.703125 27.09375 16.703125 20.515625 
Q 16.703125 13.921875 20.71875 10.15625 
Q 24.75 6.390625 31.78125 6.390625 
Q 38.8125 6.390625 42.859375 10.171875 
Q 46.921875 13.96875 46.921875 20.515625 
Q 46.921875 27.09375 42.890625 30.859375 
Q 38.875 34.625 31.78125 34.625 
z
M 21.921875 38.8125 
Q 15.578125 40.375 12.03125 44.71875 
Q 8.5 49.078125 8.5 55.328125 
Q 8.5 64.0625 14.71875 69.140625 
Q 20.953125 74.21875 31.78125 74.21875 
Q 42.671875 74.21875 48.875 69.140625 
Q 55.078125 64.0625 55.078125 55.328125 
Q 55.078125 49.078125 51.53125 44.71875 
Q 48 40.375 41.703125 38.8125 
Q 48.828125 37.15625 52.796875 32.3125 
Q 56.78125 27.484375 56.78125 20.515625 
Q 56.78125 9.90625 50.3125 4.234375 
Q 43.84375 -1.421875 31.78125 -1.421875 
Q 19.734375 -1.421875 13.25 4.234375 
Q 6.78125 9.90625 6.78125 20.515625 
Q 6.78125 27.484375 10.78125 32.3125 
Q 14.796875 37.15625 21.921875 38.8125 
z
M 18.3125 54.390625 
Q 18.3125 48.734375 21.84375 45.5625 
Q 25.390625 42.390625 31.78125 42.390625 
Q 38.140625 42.390625 41.71875 45.5625 
Q 45.3125 48.734375 45.3125 54.390625 
Q 45.3125 60.0625 41.71875 63.234375 
Q 38.140625 66.40625 31.78125 66.40625 
Q 25.390625 66.40625 21.84375 63.234375 
Q 18.3125 60.0625 18.3125 54.390625 
z
" id="DejaVuSans-56"/>
       </defs>
       <use xlink:href="#DejaVuSans-48"/>
       <use x="63.623047" xlink:href="#DejaVuSans-46"/>
       <use x="95.410156" xlink:href="#DejaVuSans-56"/>
      </g>
     </g>
    </g>
    <g id="xtick_6">
     <g id="text_6">
      <!-- 1.0 -->
      <g style="fill:#262626;" transform="translate(389.740554 325.442281)scale(0.11 -0.11)">
       <defs>
        <path d="M 12.40625 8.296875 
L 28.515625 8.296875 
L 28.515625 63.921875 
L 10.984375 60.40625 
L 10.984375 69.390625 
L 28.421875 72.90625 
L 38.28125 72.90625 
L 38.28125 8.296875 
L 54.390625 8.296875 
L 54.390625 0 
L 12.40625 0 
z
" id="DejaVuSans-49"/>
       </defs>
       <use xlink:href="#DejaVuSans-49"/>
       <use x="63.623047" xlink:href="#DejaVuSans-46"/>
       <use x="95.410156" xlink:href="#DejaVuSans-48"/>
      </g>
     </g>
    </g>
    <g id="text_7">
     <!-- Flipping candidate threshold -->
     <g style="fill:#262626;" transform="translate(150.627187 340.848062)scale(0.12 -0.12)">
      <defs>
       <path d="M 9.8125 72.90625 
L 51.703125 72.90625 
L 51.703125 64.59375 
L 19.671875 64.59375 
L 19.671875 43.109375 
L 48.578125 43.109375 
L 48.578125 34.8125 
L 19.671875 34.8125 
L 19.671875 0 
L 9.8125 0 
z
" id="DejaVuSans-70"/>
       <path d="M 9.421875 75.984375 
L 18.40625 75.984375 
L 18.40625 0 
L 9.421875 0 
z
" id="DejaVuSans-108"/>
       <path d="M 9.421875 54.6875 
L 18.40625 54.6875 
L 18.40625 0 
L 9.421875 0 
z
M 9.421875 75.984375 
L 18.40625 75.984375 
L 18.40625 64.59375 
L 9.421875 64.59375 
z
" id="DejaVuSans-105"/>
       <path d="M 18.109375 8.203125 
L 18.109375 -20.796875 
L 9.078125 -20.796875 
L 9.078125 54.6875 
L 18.109375 54.6875 
L 18.109375 46.390625 
Q 20.953125 51.265625 25.265625 53.625 
Q 29.59375 56 35.59375 56 
Q 45.5625 56 51.78125 48.09375 
Q 58.015625 40.1875 58.015625 27.296875 
Q 58.015625 14.40625 51.78125 6.484375 
Q 45.5625 -1.421875 35.59375 -1.421875 
Q 29.59375 -1.421875 25.265625 0.953125 
Q 20.953125 3.328125 18.109375 8.203125 
z
M 48.6875 27.296875 
Q 48.6875 37.203125 44.609375 42.84375 
Q 40.53125 48.484375 33.40625 48.484375 
Q 26.265625 48.484375 22.1875 42.84375 
Q 18.109375 37.203125 18.109375 27.296875 
Q 18.109375 17.390625 22.1875 11.75 
Q 26.265625 6.109375 33.40625 6.109375 
Q 40.53125 6.109375 44.609375 11.75 
Q 48.6875 17.390625 48.6875 27.296875 
z
" id="DejaVuSans-112"/>
       <path d="M 54.890625 33.015625 
L 54.890625 0 
L 45.90625 0 
L 45.90625 32.71875 
Q 45.90625 40.484375 42.875 44.328125 
Q 39.84375 48.1875 33.796875 48.1875 
Q 26.515625 48.1875 22.3125 43.546875 
Q 18.109375 38.921875 18.109375 30.90625 
L 18.109375 0 
L 9.078125 0 
L 9.078125 54.6875 
L 18.109375 54.6875 
L 18.109375 46.1875 
Q 21.34375 51.125 25.703125 53.5625 
Q 30.078125 56 35.796875 56 
Q 45.21875 56 50.046875 50.171875 
Q 54.890625 44.34375 54.890625 33.015625 
z
" id="DejaVuSans-110"/>
       <path d="M 45.40625 27.984375 
Q 45.40625 37.75 41.375 43.109375 
Q 37.359375 48.484375 30.078125 48.484375 
Q 22.859375 48.484375 18.828125 43.109375 
Q 14.796875 37.75 14.796875 27.984375 
Q 14.796875 18.265625 18.828125 12.890625 
Q 22.859375 7.515625 30.078125 7.515625 
Q 37.359375 7.515625 41.375 12.890625 
Q 45.40625 18.265625 45.40625 27.984375 
z
M 54.390625 6.78125 
Q 54.390625 -7.171875 48.1875 -13.984375 
Q 42 -20.796875 29.203125 -20.796875 
Q 24.46875 -20.796875 20.265625 -20.09375 
Q 16.0625 -19.390625 12.109375 -17.921875 
L 12.109375 -9.1875 
Q 16.0625 -11.328125 19.921875 -12.34375 
Q 23.78125 -13.375 27.78125 -13.375 
Q 36.625 -13.375 41.015625 -8.765625 
Q 45.40625 -4.15625 45.40625 5.171875 
L 45.40625 9.625 
Q 42.625 4.78125 38.28125 2.390625 
Q 33.9375 0 27.875 0 
Q 17.828125 0 11.671875 7.65625 
Q 5.515625 15.328125 5.515625 27.984375 
Q 5.515625 40.671875 11.671875 48.328125 
Q 17.828125 56 27.875 56 
Q 33.9375 56 38.28125 53.609375 
Q 42.625 51.21875 45.40625 46.390625 
L 45.40625 54.6875 
L 54.390625 54.6875 
z
" id="DejaVuSans-103"/>
       <path id="DejaVuSans-32"/>
       <path d="M 48.78125 52.59375 
L 48.78125 44.1875 
Q 44.96875 46.296875 41.140625 47.34375 
Q 37.3125 48.390625 33.40625 48.390625 
Q 24.65625 48.390625 19.8125 42.84375 
Q 14.984375 37.3125 14.984375 27.296875 
Q 14.984375 17.28125 19.8125 11.734375 
Q 24.65625 6.203125 33.40625 6.203125 
Q 37.3125 6.203125 41.140625 7.25 
Q 44.96875 8.296875 48.78125 10.40625 
L 48.78125 2.09375 
Q 45.015625 0.34375 40.984375 -0.53125 
Q 36.96875 -1.421875 32.421875 -1.421875 
Q 20.0625 -1.421875 12.78125 6.34375 
Q 5.515625 14.109375 5.515625 27.296875 
Q 5.515625 40.671875 12.859375 48.328125 
Q 20.21875 56 33.015625 56 
Q 37.15625 56 41.109375 55.140625 
Q 45.0625 54.296875 48.78125 52.59375 
z
" id="DejaVuSans-99"/>
       <path d="M 34.28125 27.484375 
Q 23.390625 27.484375 19.1875 25 
Q 14.984375 22.515625 14.984375 16.5 
Q 14.984375 11.71875 18.140625 8.90625 
Q 21.296875 6.109375 26.703125 6.109375 
Q 34.1875 6.109375 38.703125 11.40625 
Q 43.21875 16.703125 43.21875 25.484375 
L 43.21875 27.484375 
z
M 52.203125 31.203125 
L 52.203125 0 
L 43.21875 0 
L 43.21875 8.296875 
Q 40.140625 3.328125 35.546875 0.953125 
Q 30.953125 -1.421875 24.3125 -1.421875 
Q 15.921875 -1.421875 10.953125 3.296875 
Q 6 8.015625 6 15.921875 
Q 6 25.140625 12.171875 29.828125 
Q 18.359375 34.515625 30.609375 34.515625 
L 43.21875 34.515625 
L 43.21875 35.40625 
Q 43.21875 41.609375 39.140625 45 
Q 35.0625 48.390625 27.6875 48.390625 
Q 23 48.390625 18.546875 47.265625 
Q 14.109375 46.140625 10.015625 43.890625 
L 10.015625 52.203125 
Q 14.9375 54.109375 19.578125 55.046875 
Q 24.21875 56 28.609375 56 
Q 40.484375 56 46.34375 49.84375 
Q 52.203125 43.703125 52.203125 31.203125 
z
" id="DejaVuSans-97"/>
       <path d="M 45.40625 46.390625 
L 45.40625 75.984375 
L 54.390625 75.984375 
L 54.390625 0 
L 45.40625 0 
L 45.40625 8.203125 
Q 42.578125 3.328125 38.25 0.953125 
Q 33.9375 -1.421875 27.875 -1.421875 
Q 17.96875 -1.421875 11.734375 6.484375 
Q 5.515625 14.40625 5.515625 27.296875 
Q 5.515625 40.1875 11.734375 48.09375 
Q 17.96875 56 27.875 56 
Q 33.9375 56 38.25 53.625 
Q 42.578125 51.265625 45.40625 46.390625 
z
M 14.796875 27.296875 
Q 14.796875 17.390625 18.875 11.75 
Q 22.953125 6.109375 30.078125 6.109375 
Q 37.203125 6.109375 41.296875 11.75 
Q 45.40625 17.390625 45.40625 27.296875 
Q 45.40625 37.203125 41.296875 42.84375 
Q 37.203125 48.484375 30.078125 48.484375 
Q 22.953125 48.484375 18.875 42.84375 
Q 14.796875 37.203125 14.796875 27.296875 
z
" id="DejaVuSans-100"/>
       <path d="M 18.3125 70.21875 
L 18.3125 54.6875 
L 36.8125 54.6875 
L 36.8125 47.703125 
L 18.3125 47.703125 
L 18.3125 18.015625 
Q 18.3125 11.328125 20.140625 9.421875 
Q 21.96875 7.515625 27.59375 7.515625 
L 36.8125 7.515625 
L 36.8125 0 
L 27.59375 0 
Q 17.1875 0 13.234375 3.875 
Q 9.28125 7.765625 9.28125 18.015625 
L 9.28125 47.703125 
L 2.6875 47.703125 
L 2.6875 54.6875 
L 9.28125 54.6875 
L 9.28125 70.21875 
z
" id="DejaVuSans-116"/>
       <path d="M 56.203125 29.59375 
L 56.203125 25.203125 
L 14.890625 25.203125 
Q 15.484375 15.921875 20.484375 11.0625 
Q 25.484375 6.203125 34.421875 6.203125 
Q 39.59375 6.203125 44.453125 7.46875 
Q 49.3125 8.734375 54.109375 11.28125 
L 54.109375 2.78125 
Q 49.265625 0.734375 44.1875 -0.34375 
Q 39.109375 -1.421875 33.890625 -1.421875 
Q 20.796875 -1.421875 13.15625 6.1875 
Q 5.515625 13.8125 5.515625 26.8125 
Q 5.515625 40.234375 12.765625 48.109375 
Q 20.015625 56 32.328125 56 
Q 43.359375 56 49.78125 48.890625 
Q 56.203125 41.796875 56.203125 29.59375 
z
M 47.21875 32.234375 
Q 47.125 39.59375 43.09375 43.984375 
Q 39.0625 48.390625 32.421875 48.390625 
Q 24.90625 48.390625 20.390625 44.140625 
Q 15.875 39.890625 15.1875 32.171875 
z
" id="DejaVuSans-101"/>
       <path d="M 54.890625 33.015625 
L 54.890625 0 
L 45.90625 0 
L 45.90625 32.71875 
Q 45.90625 40.484375 42.875 44.328125 
Q 39.84375 48.1875 33.796875 48.1875 
Q 26.515625 48.1875 22.3125 43.546875 
Q 18.109375 38.921875 18.109375 30.90625 
L 18.109375 0 
L 9.078125 0 
L 9.078125 75.984375 
L 18.109375 75.984375 
L 18.109375 46.1875 
Q 21.34375 51.125 25.703125 53.5625 
Q 30.078125 56 35.796875 56 
Q 45.21875 56 50.046875 50.171875 
Q 54.890625 44.34375 54.890625 33.015625 
z
" id="DejaVuSans-104"/>
       <path d="M 41.109375 46.296875 
Q 39.59375 47.171875 37.8125 47.578125 
Q 36.03125 48 33.890625 48 
Q 26.265625 48 22.1875 43.046875 
Q 18.109375 38.09375 18.109375 28.8125 
L 18.109375 0 
L 9.078125 0 
L 9.078125 54.6875 
L 18.109375 54.6875 
L 18.109375 46.1875 
Q 20.953125 51.171875 25.484375 53.578125 
Q 30.03125 56 36.53125 56 
Q 37.453125 56 38.578125 55.875 
Q 39.703125 55.765625 41.0625 55.515625 
z
" id="DejaVuSans-114"/>
       <path d="M 44.28125 53.078125 
L 44.28125 44.578125 
Q 40.484375 46.53125 36.375 47.5 
Q 32.28125 48.484375 27.875 48.484375 
Q 21.1875 48.484375 17.84375 46.4375 
Q 14.5 44.390625 14.5 40.28125 
Q 14.5 37.15625 16.890625 35.375 
Q 19.28125 33.59375 26.515625 31.984375 
L 29.59375 31.296875 
Q 39.15625 29.25 43.1875 25.515625 
Q 47.21875 21.78125 47.21875 15.09375 
Q 47.21875 7.46875 41.1875 3.015625 
Q 35.15625 -1.421875 24.609375 -1.421875 
Q 20.21875 -1.421875 15.453125 -0.5625 
Q 10.6875 0.296875 5.421875 2 
L 5.421875 11.28125 
Q 10.40625 8.6875 15.234375 7.390625 
Q 20.0625 6.109375 24.8125 6.109375 
Q 31.15625 6.109375 34.5625 8.28125 
Q 37.984375 10.453125 37.984375 14.40625 
Q 37.984375 18.0625 35.515625 20.015625 
Q 33.0625 21.96875 24.703125 23.78125 
L 21.578125 24.515625 
Q 13.234375 26.265625 9.515625 29.90625 
Q 5.8125 33.546875 5.8125 39.890625 
Q 5.8125 47.609375 11.28125 51.796875 
Q 16.75 56 26.8125 56 
Q 31.78125 56 36.171875 55.265625 
Q 40.578125 54.546875 44.28125 53.078125 
z
" id="DejaVuSans-115"/>
       <path d="M 30.609375 48.390625 
Q 23.390625 48.390625 19.1875 42.75 
Q 14.984375 37.109375 14.984375 27.296875 
Q 14.984375 17.484375 19.15625 11.84375 
Q 23.34375 6.203125 30.609375 6.203125 
Q 37.796875 6.203125 41.984375 11.859375 
Q 46.1875 17.53125 46.1875 27.296875 
Q 46.1875 37.015625 41.984375 42.703125 
Q 37.796875 48.390625 30.609375 48.390625 
z
M 30.609375 56 
Q 42.328125 56 49.015625 48.375 
Q 55.71875 40.765625 55.71875 27.296875 
Q 55.71875 13.875 49.015625 6.21875 
Q 42.328125 -1.421875 30.609375 -1.421875 
Q 18.84375 -1.421875 12.171875 6.21875 
Q 5.515625 13.875 5.515625 27.296875 
Q 5.515625 40.765625 12.171875 48.375 
Q 18.84375 56 30.609375 56 
z
" id="DejaVuSans-111"/>
      </defs>
      <use xlink:href="#DejaVuSans-70"/>
      <use x="57.519531" xlink:href="#DejaVuSans-108"/>
      <use x="85.302734" xlink:href="#DejaVuSans-105"/>
      <use x="113.085938" xlink:href="#DejaVuSans-112"/>
      <use x="176.5625" xlink:href="#DejaVuSans-112"/>
      <use x="240.039062" xlink:href="#DejaVuSans-105"/>
      <use x="267.822266" xlink:href="#DejaVuSans-110"/>
      <use x="331.201172" xlink:href="#DejaVuSans-103"/>
      <use x="394.677734" xlink:href="#DejaVuSans-32"/>
      <use x="426.464844" xlink:href="#DejaVuSans-99"/>
      <use x="481.445312" xlink:href="#DejaVuSans-97"/>
      <use x="542.724609" xlink:href="#DejaVuSans-110"/>
      <use x="606.103516" xlink:href="#DejaVuSans-100"/>
      <use x="669.580078" xlink:href="#DejaVuSans-105"/>
      <use x="697.363281" xlink:href="#DejaVuSans-100"/>
      <use x="760.839844" xlink:href="#DejaVuSans-97"/>
      <use x="822.119141" xlink:href="#DejaVuSans-116"/>
      <use x="861.328125" xlink:href="#DejaVuSans-101"/>
      <use x="922.851562" xlink:href="#DejaVuSans-32"/>
      <use x="954.638672" xlink:href="#DejaVuSans-116"/>
      <use x="993.847656" xlink:href="#DejaVuSans-104"/>
      <use x="1057.226562" xlink:href="#DejaVuSans-114"/>
      <use x="1096.089844" xlink:href="#DejaVuSans-101"/>
      <use x="1157.613281" xlink:href="#DejaVuSans-115"/>
      <use x="1209.712891" xlink:href="#DejaVuSans-104"/>
      <use x="1273.091797" xlink:href="#DejaVuSans-111"/>
      <use x="1334.273438" xlink:href="#DejaVuSans-108"/>
      <use x="1362.056641" xlink:href="#DejaVuSans-100"/>
     </g>
    </g>
   </g>
   <g id="matplotlib.axis_2">
    <g id="ytick_1">
     <g id="text_8">
      <!-- 0.0 -->
      <g style="fill:#262626;" transform="translate(30.606563 299.667141)scale(0.11 -0.11)">
       <use xlink:href="#DejaVuSans-48"/>
       <use x="63.623047" xlink:href="#DejaVuSans-46"/>
       <use x="95.410156" xlink:href="#DejaVuSans-48"/>
      </g>
     </g>
    </g>
    <g id="ytick_2">
     <g id="text_9">
      <!-- 0.2 -->
      <g style="fill:#262626;" transform="translate(30.606563 248.533759)scale(0.11 -0.11)">
       <use xlink:href="#DejaVuSans-48"/>
       <use x="63.623047" xlink:href="#DejaVuSans-46"/>
       <use x="95.410156" xlink:href="#DejaVuSans-50"/>
      </g>
     </g>
    </g>
    <g id="ytick_3">
     <g id="text_10">
      <!-- 0.4 -->
      <g style="fill:#262626;" transform="translate(30.606563 197.400378)scale(0.11 -0.11)">
       <use xlink:href="#DejaVuSans-48"/>
       <use x="63.623047" xlink:href="#DejaVuSans-46"/>
       <use x="95.410156" xlink:href="#DejaVuSans-52"/>
      </g>
     </g>
    </g>
    <g id="ytick_4">
     <g id="text_11">
      <!-- 0.6 -->
      <g style="fill:#262626;" transform="translate(30.606563 146.266997)scale(0.11 -0.11)">
       <use xlink:href="#DejaVuSans-48"/>
       <use x="63.623047" xlink:href="#DejaVuSans-46"/>
       <use x="95.410156" xlink:href="#DejaVuSans-54"/>
      </g>
     </g>
    </g>
    <g id="ytick_5">
     <g id="text_12">
      <!-- 0.8 -->
      <g style="fill:#262626;" transform="translate(30.606563 95.133615)scale(0.11 -0.11)">
       <use xlink:href="#DejaVuSans-48"/>
       <use x="63.623047" xlink:href="#DejaVuSans-46"/>
       <use x="95.410156" xlink:href="#DejaVuSans-56"/>
      </g>
     </g>
    </g>
    <g id="text_13">
     <!-- Flipping candidate rate -->
     <g style="fill:#262626;" transform="translate(24.110937 243.994875)rotate(-90)scale(0.12 -0.12)">
      <use xlink:href="#DejaVuSans-70"/>
      <use x="57.519531" xlink:href="#DejaVuSans-108"/>
      <use x="85.302734" xlink:href="#DejaVuSans-105"/>
      <use x="113.085938" xlink:href="#DejaVuSans-112"/>
      <use x="176.5625" xlink:href="#DejaVuSans-112"/>
      <use x="240.039062" xlink:href="#DejaVuSans-105"/>
      <use x="267.822266" xlink:href="#DejaVuSans-110"/>
      <use x="331.201172" xlink:href="#DejaVuSans-103"/>
      <use x="394.677734" xlink:href="#DejaVuSans-32"/>
      <use x="426.464844" xlink:href="#DejaVuSans-99"/>
      <use x="481.445312" xlink:href="#DejaVuSans-97"/>
      <use x="542.724609" xlink:href="#DejaVuSans-110"/>
      <use x="606.103516" xlink:href="#DejaVuSans-100"/>
      <use x="669.580078" xlink:href="#DejaVuSans-105"/>
      <use x="697.363281" xlink:href="#DejaVuSans-100"/>
      <use x="760.839844" xlink:href="#DejaVuSans-97"/>
      <use x="822.119141" xlink:href="#DejaVuSans-116"/>
      <use x="861.328125" xlink:href="#DejaVuSans-101"/>
      <use x="922.851562" xlink:href="#DejaVuSans-32"/>
      <use x="954.638672" xlink:href="#DejaVuSans-114"/>
      <use x="995.751953" xlink:href="#DejaVuSans-97"/>
      <use x="1057.03125" xlink:href="#DejaVuSans-116"/>
      <use x="1096.240234" xlink:href="#DejaVuSans-101"/>
     </g>
    </g>
   </g>
   <g id="line2d_1">
    <path clip-path="url(#paf182ed34f)" d="M 73.832727 60.616069 
L 77.112066 205.711737 
L 80.391405 205.711737 
L 83.670744 205.711737 
L 86.950083 205.711737 
L 90.229421 205.711737 
L 93.50876 205.711737 
L 96.788099 205.711737 
L 100.067438 205.711737 
L 103.346777 205.711737 
L 106.626116 205.711737 
L 109.905455 205.711737 
L 113.184793 205.711737 
L 116.464132 205.711737 
L 119.743471 205.711737 
L 123.02281 205.711737 
L 126.302149 205.711737 
L 129.581488 205.711737 
L 132.860826 205.711737 
L 136.140165 205.711737 
L 139.419504 205.711737 
L 142.698843 205.711737 
L 145.978182 205.711737 
L 149.257521 205.711737 
L 152.53686 205.711737 
L 155.816198 234.364625 
L 159.095537 243.426304 
L 162.374876 246.969718 
L 165.654215 248.776982 
L 168.933554 250.284271 
L 172.212893 252.978665 
L 175.492231 253.968075 
L 178.77157 255.479615 
L 182.050909 256.342241 
L 185.330248 257.838004 
L 188.609587 259.539067 
L 191.888926 261.82524 
L 195.168264 263.253981 
L 198.447603 264.345446 
L 201.726942 265.242245 
L 205.006281 266.108103 
L 208.28562 267.102405 
L 211.564959 268.205543 
L 214.844298 269.287166 
L 218.123636 270.871286 
L 221.402975 271.731681 
L 224.682314 273.164988 
L 227.961653 274.327548 
L 231.240992 274.930617 
L 234.520331 276.17796 
L 237.799669 287.149054 
L 241.079008 288.78504 
L 244.358347 289.801258 
L 247.637686 290.336416 
L 250.917025 290.765763 
L 254.196364 291.006248 
L 257.475702 291.4089 
L 260.755041 291.58163 
L 264.03438 292.068242 
L 267.313719 292.216004 
L 270.593058 292.746909 
L 273.872397 292.939513 
L 277.151736 293.233932 
L 280.431074 293.394569 
L 283.710413 293.660654 
L 286.989752 293.741927 
L 290.269091 293.899746 
L 293.54843 294.045235 
L 296.827769 294.229744 
L 300.107107 294.444309 
L 303.386446 294.523219 
L 306.665785 294.596687 
L 309.945124 294.784912 
L 313.224463 294.910239 
L 316.503802 295.064189 
L 319.78314 295.10767 
L 323.062479 295.144362 
L 326.341818 295.144362 
L 329.621157 295.144362 
L 332.900496 295.144362 
L 336.179835 295.144362 
L 339.459174 295.144362 
L 342.738512 295.488 
L 346.017851 295.488 
L 349.29719 295.488 
L 352.576529 295.488 
L 355.855868 295.488 
L 359.135207 295.488 
L 362.414545 295.488 
L 365.693884 295.488 
L 368.973223 295.488 
L 372.252562 295.488 
L 375.531901 295.488 
L 378.81124 295.488 
L 382.090579 295.488 
L 385.369917 295.488 
L 388.649256 295.488 
L 391.928595 295.488 
L 395.207934 295.488 
L 398.487273 295.488 
" style="fill:none;stroke:#4c72b0;stroke-linecap:round;stroke-width:1.5;"/>
   </g>
   <g id="line2d_2">
    <path clip-path="url(#paf182ed34f)" d="M 73.832727 53.568 
L 77.112066 186.981737 
L 80.391405 186.981737 
L 83.670744 186.981737 
L 86.950083 186.981737 
L 90.229421 186.981737 
L 93.50876 186.981737 
L 96.788099 186.981737 
L 100.067438 186.981737 
L 103.346777 186.981737 
L 106.626116 186.981737 
L 109.905455 186.981737 
L 113.184793 186.981737 
L 116.464132 186.981737 
L 119.743471 186.981737 
L 123.02281 186.981737 
L 126.302149 186.981737 
L 129.581488 186.981737 
L 132.860826 186.981737 
L 136.140165 186.981737 
L 139.419504 186.981737 
L 142.698843 186.981737 
L 145.978182 186.981737 
L 149.257521 186.981737 
L 152.53686 186.981737 
L 155.816198 207.274884 
L 159.095537 213.309651 
L 162.374876 218.522705 
L 165.654215 221.910891 
L 168.933554 224.426826 
L 172.212893 227.354312 
L 175.492231 229.295516 
L 178.77157 230.383967 
L 182.050909 231.449811 
L 185.330248 233.487996 
L 188.609587 234.602756 
L 191.888926 235.753517 
L 195.168264 237.73734 
L 198.447603 239.088797 
L 201.726942 240.057416 
L 205.006281 241.217371 
L 208.28562 242.783416 
L 211.564959 244.507671 
L 214.844298 245.694749 
L 218.123636 247.08571 
L 221.402975 248.917699 
L 224.682314 249.872159 
L 227.961653 251.359597 
L 231.240992 252.584969 
L 234.520331 254.315157 
L 237.799669 267.558724 
L 241.079008 270.651476 
L 244.358347 273.365019 
L 247.637686 275.289369 
L 250.917025 276.965628 
L 254.196364 277.908674 
L 257.475702 279.637789 
L 260.755041 280.533516 
L 264.03438 281.80178 
L 267.313719 283.574724 
L 270.593058 284.556686 
L 273.872397 286.378767 
L 277.151736 287.331289 
L 280.431074 288.306006 
L 283.710413 289.054005 
L 286.989752 290.059568 
L 290.269091 291.070688 
L 293.54843 291.334077 
L 296.827769 291.643616 
L 300.107107 291.867587 
L 303.386446 292.219049 
L 306.665785 292.634564 
L 309.945124 292.982211 
L 313.224463 293.470546 
L 316.503802 293.787242 
L 319.78314 294.633792 
L 323.062479 294.89347 
L 326.341818 294.962516 
L 329.621157 294.993128 
L 332.900496 295.042965 
L 336.179835 295.042965 
L 339.459174 295.173186 
L 342.738512 295.344282 
L 346.017851 295.344282 
L 349.29719 295.39412 
L 352.576529 295.443957 
L 355.855868 295.443957 
L 359.135207 295.443957 
L 362.414545 295.443957 
L 365.693884 295.443957 
L 368.973223 295.443957 
L 372.252562 295.488 
L 375.531901 295.488 
L 378.81124 295.488 
L 382.090579 295.488 
L 385.369917 295.488 
L 388.649256 295.488 
L 391.928595 295.488 
L 395.207934 295.488 
L 398.487273 295.488 
" style="fill:none;stroke:#dd8452;stroke-linecap:round;stroke-width:1.5;"/>
   </g>
   <g id="line2d_3">
    <path clip-path="url(#paf182ed34f)" d="M 73.832727 58.991555 
L 77.112066 230.269593 
L 80.391405 230.269593 
L 83.670744 230.269593 
L 86.950083 230.269593 
L 90.229421 230.269593 
L 93.50876 230.269593 
L 96.788099 230.269593 
L 100.067438 230.269593 
L 103.346777 230.269593 
L 106.626116 230.269593 
L 109.905455 230.269593 
L 113.184793 230.269593 
L 116.464132 230.269593 
L 119.743471 230.269593 
L 123.02281 230.269593 
L 126.302149 230.269593 
L 129.581488 230.269593 
L 132.860826 230.269593 
L 136.140165 230.269593 
L 139.419504 230.269593 
L 142.698843 230.269593 
L 145.978182 230.269593 
L 149.257521 230.269593 
L 152.53686 230.269593 
L 155.816198 242.830675 
L 159.095537 250.61771 
L 162.374876 253.406789 
L 165.654215 255.738167 
L 168.933554 258.133334 
L 172.212893 259.936161 
L 175.492231 260.780539 
L 178.77157 262.591552 
L 182.050909 263.555624 
L 185.330248 264.490856 
L 188.609587 265.434177 
L 191.888926 267.344698 
L 195.168264 268.249614 
L 198.447603 269.086894 
L 201.726942 270.631093 
L 205.006281 271.352371 
L 208.28562 272.717234 
L 211.564959 273.459441 
L 214.844298 274.407594 
L 218.123636 275.229882 
L 221.402975 275.755126 
L 224.682314 276.606936 
L 227.961653 277.933413 
L 231.240992 278.282173 
L 234.520331 278.80023 
L 237.799669 287.493898 
L 241.079008 288.50633 
L 244.358347 288.867046 
L 247.637686 289.373565 
L 250.917025 289.772928 
L 254.196364 290.502652 
L 257.475702 291.1568 
L 260.755041 291.309592 
L 264.03438 291.568551 
L 267.313719 291.938327 
L 270.593058 292.416586 
L 273.872397 292.689286 
L 277.151736 292.890574 
L 280.431074 293.310348 
L 283.710413 293.535063 
L 286.989752 293.793301 
L 290.269091 294.009699 
L 293.54843 294.275394 
L 296.827769 294.449358 
L 300.107107 294.668316 
L 303.386446 294.771894 
L 306.665785 294.968259 
L 309.945124 294.991022 
L 313.224463 295.189433 
L 316.503802 295.216082 
L 319.78314 295.488 
L 323.062479 295.488 
L 326.341818 295.488 
L 329.621157 295.488 
L 332.900496 295.488 
L 336.179835 295.488 
L 339.459174 295.488 
L 342.738512 295.488 
L 346.017851 295.488 
L 349.29719 295.488 
L 352.576529 295.488 
L 355.855868 295.488 
L 359.135207 295.488 
L 362.414545 295.488 
L 365.693884 295.488 
L 368.973223 295.488 
L 372.252562 295.488 
L 375.531901 295.488 
L 378.81124 295.488 
L 382.090579 295.488 
L 385.369917 295.488 
L 388.649256 295.488 
L 391.928595 295.488 
L 395.207934 295.488 
L 398.487273 295.488 
" style="fill:none;stroke:#55a868;stroke-linecap:round;stroke-width:1.5;"/>
   </g>
   <g id="patch_3">
    <path d="M 57.6 307.584 
L 57.6 41.472 
" style="fill:none;stroke:#ffffff;stroke-linecap:square;stroke-linejoin:miter;stroke-width:1.25;"/>
   </g>
   <g id="patch_4">
    <path d="M 414.72 307.584 
L 414.72 41.472 
" style="fill:none;stroke:#ffffff;stroke-linecap:square;stroke-linejoin:miter;stroke-width:1.25;"/>
   </g>
   <g id="patch_5">
    <path d="M 57.6 307.584 
L 414.72 307.584 
" style="fill:none;stroke:#ffffff;stroke-linecap:square;stroke-linejoin:miter;stroke-width:1.25;"/>
   </g>
   <g id="patch_6">
    <path d="M 57.6 41.472 
L 414.72 41.472 
" style="fill:none;stroke:#ffffff;stroke-linecap:square;stroke-linejoin:miter;stroke-width:1.25;"/>
   </g>
   <g id="text_14">
    <!-- Flipping candidate rate per vis type -->
    <g style="fill:#262626;" transform="translate(129.256875 35.472)scale(0.12 -0.12)">
     <defs>
      <path d="M 2.984375 54.6875 
L 12.5 54.6875 
L 29.59375 8.796875 
L 46.6875 54.6875 
L 56.203125 54.6875 
L 35.6875 0 
L 23.484375 0 
z
" id="DejaVuSans-118"/>
      <path d="M 32.171875 -5.078125 
Q 28.375 -14.84375 24.75 -17.8125 
Q 21.140625 -20.796875 15.09375 -20.796875 
L 7.90625 -20.796875 
L 7.90625 -13.28125 
L 13.1875 -13.28125 
Q 16.890625 -13.28125 18.9375 -11.515625 
Q 21 -9.765625 23.484375 -3.21875 
L 25.09375 0.875 
L 2.984375 54.6875 
L 12.5 54.6875 
L 29.59375 11.921875 
L 46.6875 54.6875 
L 56.203125 54.6875 
z
" id="DejaVuSans-121"/>
     </defs>
     <use xlink:href="#DejaVuSans-70"/>
     <use x="57.519531" xlink:href="#DejaVuSans-108"/>
     <use x="85.302734" xlink:href="#DejaVuSans-105"/>
     <use x="113.085938" xlink:href="#DejaVuSans-112"/>
     <use x="176.5625" xlink:href="#DejaVuSans-112"/>
     <use x="240.039062" xlink:href="#DejaVuSans-105"/>
     <use x="267.822266" xlink:href="#DejaVuSans-110"/>
     <use x="331.201172" xlink:href="#DejaVuSans-103"/>
     <use x="394.677734" xlink:href="#DejaVuSans-32"/>
     <use x="426.464844" xlink:href="#DejaVuSans-99"/>
     <use x="481.445312" xlink:href="#DejaVuSans-97"/>
     <use x="542.724609" xlink:href="#DejaVuSans-110"/>
     <use x="606.103516" xlink:href="#DejaVuSans-100"/>
     <use x="669.580078" xlink:href="#DejaVuSans-105"/>
     <use x="697.363281" xlink:href="#DejaVuSans-100"/>
     <use x="760.839844" xlink:href="#DejaVuSans-97"/>
     <use x="822.119141" xlink:href="#DejaVuSans-116"/>
     <use x="861.328125" xlink:href="#DejaVuSans-101"/>
     <use x="922.851562" xlink:href="#DejaVuSans-32"/>
     <use x="954.638672" xlink:href="#DejaVuSans-114"/>
     <use x="995.751953" xlink:href="#DejaVuSans-97"/>
     <use x="1057.03125" xlink:href="#DejaVuSans-116"/>
     <use x="1096.240234" xlink:href="#DejaVuSans-101"/>
     <use x="1157.763672" xlink:href="#DejaVuSans-32"/>
     <use x="1189.550781" xlink:href="#DejaVuSans-112"/>
     <use x="1253.027344" xlink:href="#DejaVuSans-101"/>
     <use x="1314.550781" xlink:href="#DejaVuSans-114"/>
     <use x="1355.664062" xlink:href="#DejaVuSans-32"/>
     <use x="1387.451172" xlink:href="#DejaVuSans-118"/>
     <use x="1446.630859" xlink:href="#DejaVuSans-105"/>
     <use x="1474.414062" xlink:href="#DejaVuSans-115"/>
     <use x="1526.513672" xlink:href="#DejaVuSans-32"/>
     <use x="1558.300781" xlink:href="#DejaVuSans-116"/>
     <use x="1597.509766" xlink:href="#DejaVuSans-121"/>
     <use x="1656.689453" xlink:href="#DejaVuSans-112"/>
     <use x="1720.166016" xlink:href="#DejaVuSans-101"/>
    </g>
   </g>
   <g id="legend_1">
    <g id="patch_7">
     <path d="M 333.385312 98.709812 
L 407.02 98.709812 
Q 409.22 98.709812 409.22 96.509812 
L 409.22 49.172 
Q 409.22 46.972 407.02 46.972 
L 333.385312 46.972 
Q 331.185313 46.972 331.185313 49.172 
L 331.185313 96.509812 
Q 331.185313 98.709812 333.385312 98.709812 
z
" style="fill:#eaeaf2;opacity:0.8;stroke:#cccccc;stroke-linejoin:miter;"/>
    </g>
    <g id="line2d_4">
     <path d="M 335.585312 55.880281 
L 357.585312 55.880281 
" style="fill:none;stroke:#4c72b0;stroke-linecap:round;stroke-width:1.5;"/>
    </g>
    <g id="line2d_5"/>
    <g id="text_15">
     <!-- scatter -->
     <g style="fill:#262626;" transform="translate(366.385312 59.730281)scale(0.11 -0.11)">
      <use xlink:href="#DejaVuSans-115"/>
      <use x="52.099609" xlink:href="#DejaVuSans-99"/>
      <use x="107.080078" xlink:href="#DejaVuSans-97"/>
      <use x="168.359375" xlink:href="#DejaVuSans-116"/>
      <use x="207.568359" xlink:href="#DejaVuSans-116"/>
      <use x="246.777344" xlink:href="#DejaVuSans-101"/>
      <use x="308.300781" xlink:href="#DejaVuSans-114"/>
     </g>
    </g>
    <g id="line2d_6">
     <path d="M 335.585312 72.026219 
L 357.585312 72.026219 
" style="fill:none;stroke:#dd8452;stroke-linecap:round;stroke-width:1.5;"/>
    </g>
    <g id="line2d_7"/>
    <g id="text_16">
     <!-- bar -->
     <g style="fill:#262626;" transform="translate(366.385312 75.876219)scale(0.11 -0.11)">
      <defs>
       <path d="M 48.6875 27.296875 
Q 48.6875 37.203125 44.609375 42.84375 
Q 40.53125 48.484375 33.40625 48.484375 
Q 26.265625 48.484375 22.1875 42.84375 
Q 18.109375 37.203125 18.109375 27.296875 
Q 18.109375 17.390625 22.1875 11.75 
Q 26.265625 6.109375 33.40625 6.109375 
Q 40.53125 6.109375 44.609375 11.75 
Q 48.6875 17.390625 48.6875 27.296875 
z
M 18.109375 46.390625 
Q 20.953125 51.265625 25.265625 53.625 
Q 29.59375 56 35.59375 56 
Q 45.5625 56 51.78125 48.09375 
Q 58.015625 40.1875 58.015625 27.296875 
Q 58.015625 14.40625 51.78125 6.484375 
Q 45.5625 -1.421875 35.59375 -1.421875 
Q 29.59375 -1.421875 25.265625 0.953125 
Q 20.953125 3.328125 18.109375 8.203125 
L 18.109375 0 
L 9.078125 0 
L 9.078125 75.984375 
L 18.109375 75.984375 
z
" id="DejaVuSans-98"/>
      </defs>
      <use xlink:href="#DejaVuSans-98"/>
      <use x="63.476562" xlink:href="#DejaVuSans-97"/>
      <use x="124.755859" xlink:href="#DejaVuSans-114"/>
     </g>
    </g>
    <g id="line2d_8">
     <path d="M 335.585312 88.172156 
L 357.585312 88.172156 
" style="fill:none;stroke:#55a868;stroke-linecap:round;stroke-width:1.5;"/>
    </g>
    <g id="line2d_9"/>
    <g id="text_17">
     <!-- line -->
     <g style="fill:#262626;" transform="translate(366.385312 92.022156)scale(0.11 -0.11)">
      <use xlink:href="#DejaVuSans-108"/>
      <use x="27.783203" xlink:href="#DejaVuSans-105"/>
      <use x="55.566406" xlink:href="#DejaVuSans-110"/>
      <use x="118.945312" xlink:href="#DejaVuSans-101"/>
     </g>
    </g>
   </g>
  </g>
 </g>
 <defs>
  <clipPath id="paf182ed34f">
   <rect height="266.112" width="357.12" x="57.6" y="41.472"/>
  </clipPath>
 </defs>
</svg>
