<?xml version="1.0" encoding="UTF-8" standalone="no"?>
<!-- Created with matplotlib (https://matplotlib.org/) -->

<svg
   height="359.56525pt"
   version="1.1"
   viewBox="0 0 469.83002 359.56524"
   width="469.83002pt"
   id="svg482"
   sodipodi:docname="fcr_threshold.svg"
   inkscape:version="1.1.1 (3bf5ae0d25, 2021-09-20)"
   inkscape:export-filename="C:\Users\kochme\Documents\scanpath-uncertainty\drawings\fcr_threshold.png"
   inkscape:export-xdpi="96"
   inkscape:export-ydpi="96"
   xmlns:inkscape="http://www.inkscape.org/namespaces/inkscape"
   xmlns:sodipodi="http://sodipodi.sourceforge.net/DTD/sodipodi-0.dtd"
   xmlns:xlink="http://www.w3.org/1999/xlink"
   xmlns="http://www.w3.org/2000/svg"
   xmlns:svg="http://www.w3.org/2000/svg"
   xmlns:rdf="http://www.w3.org/1999/02/22-rdf-syntax-ns#"
   xmlns:cc="http://creativecommons.org/ns#"
   xmlns:dc="http://purl.org/dc/elements/1.1/">
  <sodipodi:namedview
     id="namedview484"
     pagecolor="#ffffff"
     bordercolor="#666666"
     borderopacity="1.0"
     inkscape:pageshadow="2"
     inkscape:pageopacity="0.0"
     inkscape:pagecheckerboard="0"
     inkscape:document-units="pt"
     showgrid="false"
     fit-margin-top="1.5"
     fit-margin-left="1.5"
     fit-margin-right="1.5"
     fit-margin-bottom="1.5"
     inkscape:zoom="1.2176416"
     inkscape:cx="277.99642"
     inkscape:cy="213.93816"
     inkscape:window-width="1920"
     inkscape:window-height="1027"
     inkscape:window-x="-8"
     inkscape:window-y="-8"
     inkscape:window-maximized="1"
     inkscape:current-layer="svg482"
     lock-margins="true" />
  <metadata
     id="metadata2">
    <rdf:RDF>
      <cc:Work>
        <dc:type
           rdf:resource="http://purl.org/dc/dcmitype/StillImage" />
        <dc:date>2022-03-05T15:36:10.421427</dc:date>
        <dc:format>image/svg+xml</dc:format>
        <dc:creator>
          <cc:Agent>
            <dc:title>Matplotlib v3.3.3, https://matplotlib.org/</dc:title>
          </cc:Agent>
        </dc:creator>
      </cc:Work>
    </rdf:RDF>
  </metadata>
  <defs
     id="defs6">
    <style
       type="text/css"
       id="style4">*{stroke-linecap:butt;stroke-linejoin:round;}</style>
  </defs>
  <path
     d="M 1.5,358.06526 H 468.33001 V 1.5 H 1.5 Z"
     style="fill:#ffffff;stroke-width:1.02236"
     id="path8" />
  <path
     d="M 65.130009,309.084 H 422.25001 V 42.972 H 65.130009 Z"
     style="fill:#eaeaf2"
     id="path11" />
  <g
     id="line2d_1"
     transform="translate(7.5300091,1.5)">
    <path
       clip-path="url(#p1012691f00)"
       d="M 73.832727,307.584 V 41.472"
       style="fill:none;stroke:#ffffff;stroke-linecap:round"
       id="path14" />
  </g>
  <g
     id="text_1"
     transform="translate(7.5300091,1.5)">
    <!-- 0.0 -->
    <g
       style="fill:#262626"
       transform="matrix(0.11,0,0,-0.11,66.187727,324.95759)"
       id="g27">
      <defs
         id="defs19">
        <path
           d="m 4.15625,35.296875 q 0,12.703125 2.609375,20.4375 2.609375,7.75 7.75,11.9375 5.15625,4.203125 12.96875,4.203125 5.765625,0 10.109375,-2.328125 4.34375,-2.3125 7.171875,-6.6875 Q 47.609375,58.5 49.21875,52.21875 q 1.609375,-6.265625 1.609375,-16.921875 0,-12.59375 -2.59375,-20.328125 Q 45.65625,7.234375 40.5,3 35.359375,-1.21875 27.484375,-1.21875 q -10.34375,0 -16.25,7.421875 -7.078125,8.9375 -7.078125,29.09375 z m 9.03125,0 q 0,-17.625 4.125,-23.46875 Q 21.4375,6 27.484375,6 q 6.0625,0 10.1875,5.859375 4.125,5.859375 4.125,23.4375 0,17.6875 -4.125,23.484375 -4.125,5.8125 -10.28125,5.8125 -6.046875,0 -9.671875,-5.125 Q 13.1875,52.9375 13.1875,35.296875 Z"
           id="ArialMT-48" />
        <path
           d="M 9.078125,0 V 10.015625 H 19.09375 V 0 Z"
           id="ArialMT-46" />
      </defs>
      <use
         xlink:href="#ArialMT-48"
         id="use21"
         x="0"
         y="0"
         width="100%"
         height="100%" />
      <use
         x="55.615234"
         xlink:href="#ArialMT-46"
         id="use23"
         y="0"
         width="100%"
         height="100%" />
      <use
         x="83.398438"
         xlink:href="#ArialMT-48"
         id="use25"
         y="0"
         width="100%"
         height="100%" />
    </g>
  </g>
  <g
     id="line2d_2"
     transform="translate(7.5300091,1.5)">
    <path
       clip-path="url(#p1012691f00)"
       d="M 138.76364,307.584 V 41.472"
       style="fill:none;stroke:#ffffff;stroke-linecap:round"
       id="path31" />
  </g>
  <g
     id="text_2"
     transform="translate(7.5300091,1.5)">
    <!-- 0.2 -->
    <g
       style="fill:#262626"
       transform="matrix(0.11,0,0,-0.11,131.11864,324.95759)"
       id="g43">
      <defs
         id="defs35">
        <path
           d="M 50.34375,8.453125 V 0 H 3.03125 Q 2.9375,3.171875 4.046875,6.109375 5.859375,10.9375 9.828125,15.625 13.8125,20.3125 21.34375,26.46875 q 11.671875,9.5625 15.765625,15.15625 4.109375,5.59375 4.109375,10.578125 0,5.21875 -3.75,8.796875 -3.734375,3.59375 -9.734375,3.59375 -6.34375,0 -10.15625,-3.8125 Q 13.765625,56.984375 13.71875,50.25 L 4.6875,51.171875 q 0.921875,10.109375 6.96875,15.40625 6.0625,5.296875 16.28125,5.296875 10.296875,0 16.296875,-5.71875 Q 50.25,60.453125 50.25,52 50.25,47.703125 48.484375,43.546875 46.734375,39.40625 42.65625,34.8125 38.578125,30.21875 29.109375,22.21875 21.1875,15.578125 18.9375,13.203125 q -2.234375,-2.359375 -3.703125,-4.75 z"
           id="ArialMT-50" />
      </defs>
      <use
         xlink:href="#ArialMT-48"
         id="use37"
         x="0"
         y="0"
         width="100%"
         height="100%" />
      <use
         x="55.615234"
         xlink:href="#ArialMT-46"
         id="use39"
         y="0"
         width="100%"
         height="100%" />
      <use
         x="83.398438"
         xlink:href="#ArialMT-50"
         id="use41"
         y="0"
         width="100%"
         height="100%" />
    </g>
  </g>
  <g
     id="line2d_3"
     transform="translate(7.5300091,1.5)">
    <path
       clip-path="url(#p1012691f00)"
       d="M 203.69454,307.584 V 41.472"
       style="fill:none;stroke:#ffffff;stroke-linecap:round"
       id="path47" />
  </g>
  <g
     id="text_3"
     transform="translate(7.5300091,1.5)">
    <!-- 0.4 -->
    <g
       style="fill:#262626"
       transform="matrix(0.11,0,0,-0.11,196.04954,324.95759)"
       id="g59">
      <defs
         id="defs51">
        <path
           d="m 32.328125,0 v 17.140625 h -31.0625 v 8.0625 l 32.671875,46.375 h 7.171875 v -46.375 h 9.671875 v -8.0625 H 41.109375 V 0 Z m 0,25.203125 V 57.46875 L 9.90625,25.203125 Z"
           id="ArialMT-52" />
      </defs>
      <use
         xlink:href="#ArialMT-48"
         id="use53"
         x="0"
         y="0"
         width="100%"
         height="100%" />
      <use
         x="55.615234"
         xlink:href="#ArialMT-46"
         id="use55"
         y="0"
         width="100%"
         height="100%" />
      <use
         x="83.398438"
         xlink:href="#ArialMT-52"
         id="use57"
         y="0"
         width="100%"
         height="100%" />
    </g>
  </g>
  <g
     id="line2d_4"
     transform="translate(7.5300091,1.5)">
    <path
       clip-path="url(#p1012691f00)"
       d="M 268.62545,307.584 V 41.472"
       style="fill:none;stroke:#ffffff;stroke-linecap:round"
       id="path63" />
  </g>
  <g
     id="text_4"
     transform="translate(7.5300091,1.5)">
    <!-- 0.6 -->
    <g
       style="fill:#262626"
       transform="matrix(0.11,0,0,-0.11,260.98045,324.95759)"
       id="g75">
      <defs
         id="defs67">
        <path
           d="M 49.75,54.046875 41.015625,53.375 q -1.171875,5.171875 -3.3125,7.515625 -3.578125,3.765625 -8.796875,3.765625 -4.203125,0 -7.375,-2.34375 Q 17.390625,59.28125 14.984375,53.46875 12.59375,47.65625 12.5,36.921875 15.671875,41.75 20.265625,44.09375 q 4.59375,2.34375 9.625,2.34375 8.78125,0 14.953125,-6.46875 Q 51.03125,33.5 51.03125,23.25 51.03125,16.5 48.125,10.71875 45.21875,4.9375 40.140625,1.859375 35.0625,-1.21875 28.609375,-1.21875 17.625,-1.21875 10.6875,6.859375 3.765625,14.9375 3.765625,33.5 q 0,20.75 7.65625,30.171875 6.6875,8.203125 18.015625,8.203125 8.453125,0 13.84375,-4.734375 Q 48.6875,62.40625 49.75,54.046875 Z M 13.875,23.1875 q 0,-4.53125 1.921875,-8.6875 Q 17.71875,10.359375 21.1875,8.171875 24.65625,6 28.46875,6 q 5.5625,0 9.5625,4.484375 4.015625,4.5 4.015625,12.21875 0,7.421875 -3.96875,11.6875 -3.953125,4.28125 -9.953125,4.28125 -5.953125,0 -10.109375,-4.28125 Q 13.875,30.125 13.875,23.1875 Z"
           id="ArialMT-54" />
      </defs>
      <use
         xlink:href="#ArialMT-48"
         id="use69"
         x="0"
         y="0"
         width="100%"
         height="100%" />
      <use
         x="55.615234"
         xlink:href="#ArialMT-46"
         id="use71"
         y="0"
         width="100%"
         height="100%" />
      <use
         x="83.398438"
         xlink:href="#ArialMT-54"
         id="use73"
         y="0"
         width="100%"
         height="100%" />
    </g>
  </g>
  <g
     id="line2d_5"
     transform="translate(7.5300091,1.5)">
    <path
       clip-path="url(#p1012691f00)"
       d="M 333.55636,307.584 V 41.472"
       style="fill:none;stroke:#ffffff;stroke-linecap:round"
       id="path79" />
  </g>
  <g
     id="text_5"
     transform="translate(7.5300091,1.5)">
    <!-- 0.8 -->
    <g
       style="fill:#262626"
       transform="matrix(0.11,0,0,-0.11,325.91136,324.95759)"
       id="g91">
      <defs
         id="defs83">
        <path
           d="m 17.671875,38.8125 q -5.46875,2.015625 -8.109375,5.71875 -2.625,3.71875 -2.625,8.890625 0,7.8125 5.609375,13.125 5.625,5.328125 14.9375,5.328125 9.375,0 15.09375,-5.453125 5.71875,-5.4375 5.71875,-13.25 0,-4.984375 -2.625,-8.671875 Q 43.0625,40.828125 37.75,38.8125 q 6.59375,-2.140625 10.03125,-6.9375 3.4375,-4.78125 3.4375,-11.421875 0,-9.171875 -6.5,-15.421875 -6.484375,-6.25 -17.078125,-6.25 -10.59375,0 -17.09375,6.265625 -6.5,6.28125 -6.5,15.65625 0,6.984375 3.546875,11.6875 3.546875,4.71875 10.078125,6.421875 z m -1.75,14.90625 q 0,-5.078125 3.265625,-8.3125 3.28125,-3.21875 8.5,-3.21875 5.078125,0 8.328125,3.1875 3.25,3.203125 3.25,7.84375 0,4.84375 -3.359375,8.140625 -3.34375,3.296875 -8.3125,3.296875 -5.03125,0 -8.359375,-3.234375 -3.3125,-3.21875 -3.3125,-7.703125 z M 13.09375,20.65625 q 0,-3.765625 1.78125,-7.28125 Q 16.65625,9.859375 20.171875,7.921875 23.6875,6 27.734375,6 34.03125,6 38.125,10.046875 q 4.109375,4.0625 4.109375,10.3125 0,6.34375 -4.21875,10.5 -4.21875,4.15625 -10.578125,4.15625 -6.203125,0 -10.28125,-4.109375 -4.0625,-4.09375 -4.0625,-10.25 z"
           id="ArialMT-56" />
      </defs>
      <use
         xlink:href="#ArialMT-48"
         id="use85"
         x="0"
         y="0"
         width="100%"
         height="100%" />
      <use
         x="55.615234"
         xlink:href="#ArialMT-46"
         id="use87"
         y="0"
         width="100%"
         height="100%" />
      <use
         x="83.398438"
         xlink:href="#ArialMT-56"
         id="use89"
         y="0"
         width="100%"
         height="100%" />
    </g>
  </g>
  <g
     id="line2d_6"
     transform="translate(7.5300091,1.5)">
    <path
       clip-path="url(#p1012691f00)"
       d="M 398.48727,307.584 V 41.472"
       style="fill:none;stroke:#ffffff;stroke-linecap:round"
       id="path95" />
  </g>
  <g
     id="text_6"
     transform="translate(7.5300091,1.5)">
    <!-- 1.0 -->
    <g
       style="fill:#262626"
       transform="matrix(0.11,0,0,-0.11,390.84227,324.95759)"
       id="g107">
      <defs
         id="defs99">
        <path
           d="m 37.25,0 h -8.78125 v 56 q -3.171875,-3.015625 -8.328125,-6.046875 -5.15625,-3.03125 -9.25,-4.546875 v 8.5 q 7.375,3.46875 12.890625,8.390625 5.515625,4.9375 7.8125,9.578125 H 37.25 Z"
           id="ArialMT-49" />
      </defs>
      <use
         xlink:href="#ArialMT-49"
         id="use101"
         x="0"
         y="0"
         width="100%"
         height="100%" />
      <use
         x="55.615234"
         xlink:href="#ArialMT-46"
         id="use103"
         y="0"
         width="100%"
         height="100%" />
      <use
         x="83.398438"
         xlink:href="#ArialMT-48"
         id="use105"
         y="0"
         width="100%"
         height="100%" />
    </g>
  </g>
  <g
     style="fill:#262626"
     transform="matrix(0.12,0,0,-0.12,168.64595,353.86384)"
     id="g185">
    <defs
       id="defs127">
      <path
         d="M 8.203125,0 V 71.578125 H 56.5 v -8.4375 H 17.671875 V 40.96875 h 33.59375 V 32.515625 H 17.671875 V 0 Z"
         id="ArialMT-70" />
      <path
         d="M 6.390625,0 V 71.578125 H 15.1875 V 0 Z"
         id="ArialMT-108" />
      <path
         d="M 6.640625,61.46875 V 71.578125 H 15.4375 V 61.46875 Z M 6.640625,0 V 51.859375 H 15.4375 V 0 Z"
         id="ArialMT-105" />
      <path
         d="m 6.59375,-19.875 v 71.734375 h 8 V 45.125 Q 17.4375,49.078125 21,51.046875 q 3.5625,1.984375 8.640625,1.984375 6.640625,0 11.71875,-3.421875 5.078125,-3.421875 7.65625,-9.65625 2.59375,-6.21875 2.59375,-13.640625 0,-7.953125 -2.859375,-14.328125 Q 45.90625,5.609375 40.453125,2.21875 35.015625,-1.171875 29,-1.171875 q -4.390625,0 -7.890625,1.859375 Q 17.625,2.546875 15.375,5.375 v -25.25 z m 7.953125,45.515625 q 0,-10.015625 4.046875,-14.796875 4.0625,-4.78125 9.828125,-4.78125 5.859375,0 10.03125,4.953125 Q 42.625,15.96875 42.625,26.375 q 0,9.90625 -4.078125,14.828125 -4.078125,4.9375 -9.734375,4.9375 -5.625,0 -9.953125,-5.25 -4.3125,-5.25 -4.3125,-15.25 z"
         id="ArialMT-112" />
      <path
         d="M 6.59375,0 V 51.859375 H 14.5 v -7.375 q 5.71875,8.546875 16.5,8.546875 4.6875,0 8.625,-1.6875 3.9375,-1.6875 5.890625,-4.421875 Q 47.46875,44.1875 48.25,40.4375 48.734375,37.984375 48.734375,31.890625 V 0 H 39.9375 v 31.546875 q 0,5.375 -1.03125,8.03125 -1.015625,2.65625 -3.625,4.234375 -2.609375,1.59375 -6.125,1.59375 -5.625,0 -9.703125,-3.5625 Q 15.375,38.28125 15.375,28.328125 V 0 Z"
         id="ArialMT-110" />
      <path
         d="M 4.984375,-4.296875 13.53125,-5.5625 q 0.53125,-3.953125 2.96875,-5.765625 3.28125,-2.4375 8.9375,-2.4375 6.109375,0 9.421875,2.4375 3.328125,2.4375 4.5,6.828125 0.6875,2.6875 0.625,11.28125 Q 34.234375,0 25.640625,0 14.9375,0 9.078125,7.71875 q -5.859375,7.71875 -5.859375,18.5 0,7.421875 2.6875,13.6875 2.6875,6.28125 7.78125,9.703125 5.109375,3.421875 12,3.421875 9.171875,0 15.140625,-7.421875 v 6.25 h 8.09375 V 7.03125 q 0,-12.109375 -2.46875,-17.15625 -2.453125,-5.0625 -7.8125,-7.984375 -5.34375,-2.9375 -13.15625,-2.9375 -9.265625,0 -14.984375,4.171875 -5.71875,4.171875 -5.515625,12.578125 z M 12.25,26.859375 q 0,-10.203125 4.046875,-14.890625 4.0625,-4.6875 10.171875,-4.6875 6.046875,0 10.140625,4.65625 4.109375,4.671875 4.109375,14.625 0,9.515625 -4.21875,14.34375 Q 32.28125,45.75 26.3125,45.75 q -5.859375,0 -9.96875,-4.765625 -4.09375,-4.75 -4.09375,-14.125 z"
         id="ArialMT-103" />
      <path
         id="ArialMT-32"
         d="" />
      <path
         d="m 40.4375,19 8.640625,-1.125 Q 47.65625,8.9375 41.8125,3.875 35.984375,-1.171875 27.484375,-1.171875 16.84375,-1.171875 10.375,5.78125 3.90625,12.75 3.90625,25.734375 q 0,8.390625 2.78125,14.6875 2.78125,6.3125 8.46875,9.453125 5.6875,3.15625 12.390625,3.15625 8.4375,0 13.8125,-4.28125 5.375,-4.265625 6.890625,-12.125 l -8.546875,-1.328125 q -1.21875,5.234375 -4.328125,7.859375 -3.09375,2.640625 -7.5,2.640625 -6.640625,0 -10.796875,-4.765625 -4.140625,-4.75 -4.140625,-15.046875 0,-10.453125 4,-15.1875 Q 20.953125,6.0625 27.390625,6.0625 32.5625,6.0625 36.03125,9.234375 39.5,12.40625 40.4375,19 Z"
         id="ArialMT-99" />
      <path
         d="M 40.4375,6.390625 Q 35.546875,2.25 31.03125,0.53125 q -4.515625,-1.703125 -9.6875,-1.703125 -8.546875,0 -13.140625,4.171875 -4.59375,4.171875 -4.59375,10.671875 0,3.8125 1.734375,6.953125 1.734375,3.15625 4.546875,5.0625 2.8125,1.90625 6.328125,2.875 2.578125,0.6875 7.8125,1.328125 10.640625,1.265625 15.671875,3.015625 0.04687,1.8125 0.04687,2.296875 0,5.375 -2.5,7.578125 -3.359375,2.96875 -10,2.96875 -6.203125,0 -9.15625,-2.171875 -2.953125,-2.171875 -4.375,-7.6875 L 5.125,37.0625 q 1.171875,5.515625 3.859375,8.90625 2.6875,3.390625 7.765625,5.21875 5.078125,1.84375 11.765625,1.84375 6.640625,0 10.78125,-1.5625 4.15625,-1.5625 6.109375,-3.9375 1.953125,-2.359375 2.734375,-5.984375 0.4375,-2.234375 0.4375,-8.09375 v -11.71875 q 0,-12.265625 0.5625,-15.515625 Q 49.703125,2.984375 51.375,0 h -9.1875 q -1.359375,2.734375 -1.75,6.390625 z M 39.703125,26.03125 Q 34.90625,24.078125 25.34375,22.703125 19.921875,21.921875 17.671875,20.9375 15.4375,19.96875 14.203125,18.09375 q -1.21875,-1.875 -1.21875,-4.171875 0,-3.515625 2.65625,-5.859375 2.671875,-2.34375 7.796875,-2.34375 5.078125,0 9.03125,2.21875 3.953125,2.21875 5.8125,6.078125 1.421875,2.984375 1.421875,8.78125 z"
         id="ArialMT-97" />
      <path
         d="m 40.234375,0 v 6.546875 q -4.9375,-7.71875 -14.5,-7.71875 -6.203125,0 -11.40625,3.421875 -5.203125,3.421875 -8.0625,9.546875 -2.84375,6.125 -2.84375,14.078125 0,7.765625 2.578125,14.09375 2.59375,6.328125 7.765625,9.6875 5.1875,3.375 11.578125,3.375 4.6875,0 8.34375,-1.984375 3.671875,-1.96875 5.96875,-5.140625 v 25.671875 h 8.734375 V 0 Z m -27.78125,25.875 q 0,-9.953125 4.1875,-14.890625 Q 20.84375,6.0625 26.5625,6.0625 q 5.765625,0 9.78125,4.703125 4.03125,4.71875 4.03125,14.375 0,10.65625 -4.109375,15.625 Q 32.171875,45.75 26.171875,45.75 20.3125,45.75 16.375,40.96875 12.453125,36.1875 12.453125,25.875 Z"
         id="ArialMT-100" />
      <path
         d="M 25.78125,7.859375 27.046875,0.09375 Q 23.34375,-0.6875 20.40625,-0.6875 15.625,-0.6875 12.984375,0.828125 10.359375,2.34375 9.28125,4.8125 8.203125,7.28125 8.203125,15.1875 v 29.828125 h -6.4375 v 6.84375 h 6.4375 v 12.84375 L 16.9375,69.96875 V 51.859375 h 8.84375 v -6.84375 H 16.9375 v -30.3125 q 0,-3.765625 0.46875,-4.84375 0.46875,-1.0625 1.515625,-1.703125 1.046875,-0.640625 3,-0.640625 1.46875,0 3.859375,0.34375 z"
         id="ArialMT-116" />
      <path
         d="m 42.09375,16.703125 9.078125,-1.125 Q 49.03125,7.625 43.21875,3.21875 37.40625,-1.171875 28.375,-1.171875 q -11.375,0 -18.046875,7 -6.671875,7.015625 -6.671875,19.65625 0,13.09375 6.734375,20.3125 6.75,7.234375 17.484375,7.234375 10.40625,0 17,-7.078125 6.59375,-7.078125 6.59375,-19.921875 0,-0.78125 -0.04687,-2.34375 H 12.75 q 0.484375,-8.546875 4.828125,-13.09375 4.34375,-4.53125 10.84375,-4.53125 4.828125,0 8.25,2.53125 3.421875,2.546875 5.421875,8.109375 z M 13.234375,30.90625 H 42.1875 q -0.578125,6.546875 -3.3125,9.8125 -4.203125,5.078125 -10.890625,5.078125 -6.0625,0 -10.1875,-4.046875 -4.125,-4.046875 -4.5625,-10.84375 z"
         id="ArialMT-101" />
      <path
         d="M 6.59375,0 V 71.578125 H 15.375 V 45.90625 q 6.15625,7.125 15.53125,7.125 5.765625,0 10.015625,-2.28125 4.25,-2.265625 6.078125,-6.265625 1.828125,-4 1.828125,-11.625 V 0 h -8.78125 v 32.859375 q 0,6.59375 -2.859375,9.59375 -2.859375,3 -8.078125,3 -3.90625,0 -7.359375,-2.03125 Q 18.3125,41.40625 16.84375,37.9375 15.375,34.46875 15.375,28.375 V 0 Z"
         id="ArialMT-104" />
      <path
         d="m 6.5,0 v 51.859375 h 7.90625 V 44 Q 17.4375,49.515625 20,51.265625 q 2.5625,1.765625 5.640625,1.765625 4.4375,0 9.03125,-2.828125 l -3.03125,-8.15625 q -3.21875,1.90625 -6.4375,1.90625 -2.890625,0 -5.1875,-1.734375 -2.296875,-1.734375 -3.265625,-4.8125 -1.46875,-4.6875 -1.46875,-10.25 V 0 Z"
         id="ArialMT-114" />
      <path
         d="m 3.078125,15.484375 8.6875,1.359375 Q 12.5,11.625 15.84375,8.84375 19.1875,6.0625 25.203125,6.0625 q 6.046875,0 8.96875,2.453125 2.9375,2.46875 2.9375,5.796875 0,2.96875 -2.59375,4.6875 Q 32.71875,20.171875 25.53125,21.96875 15.875,24.421875 12.140625,26.203125 8.40625,27.984375 6.46875,31.125 q -1.921875,3.15625 -1.921875,6.96875 0,3.453125 1.578125,6.40625 1.59375,2.96875 4.328125,4.921875 2.046875,1.5 5.578125,2.546875 3.546875,1.0625 7.609375,1.0625 6.09375,0 10.703125,-1.765625 4.625,-1.75 6.8125,-4.765625 2.203125,-3 3.03125,-8.015625 L 35.59375,37.3125 q -0.578125,4 -3.390625,6.234375 -2.8125,2.25 -7.9375,2.25 -6.046875,0 -8.640625,-2 -2.59375,-2 -2.59375,-4.6875 0,-1.703125 1.078125,-3.078125 1.078125,-1.40625 3.375,-2.34375 1.3125,-0.484375 7.765625,-2.234375 9.328125,-2.5 13,-4.09375 3.6875,-1.578125 5.78125,-4.609375 2.109375,-3.015625 2.109375,-7.515625 0,-4.390625 -2.5625,-8.28125 -2.5625,-3.875 -7.40625,-6 -4.828125,-2.125 -10.921875,-2.125 -10.109375,0 -15.40625,4.203125 -5.296875,4.203125 -6.765625,12.453125 z"
         id="ArialMT-115" />
      <path
         d="m 3.328125,25.921875 q 0,14.40625 8,21.34375 6.6875,5.765625 16.3125,5.765625 10.6875,0 17.46875,-7.015625 6.796875,-7 6.796875,-19.359375 0,-10 -3,-15.75 -3,-5.734375 -8.75,-8.90625 Q 34.421875,-1.171875 27.640625,-1.171875 16.75,-1.171875 10.03125,5.8125 3.328125,12.796875 3.328125,25.921875 Z m 9.03125,0 q 0,-9.953125 4.34375,-14.90625 4.34375,-4.953125 10.9375,-4.953125 6.546875,0 10.890625,4.96875 4.34375,4.984375 4.34375,15.1875 0,9.625 -4.375,14.578125 Q 34.125,45.75 27.640625,45.75 q -6.59375,0 -10.9375,-4.9375 -4.34375,-4.921875 -4.34375,-14.890625 z"
         id="ArialMT-111" />
    </defs>
    <use
       xlink:href="#ArialMT-70"
       id="use129"
       x="0"
       y="0"
       width="100%"
       height="100%" />
    <use
       x="61.083984"
       xlink:href="#ArialMT-108"
       id="use131"
       y="0"
       width="100%"
       height="100%" />
    <use
       x="83.300781"
       xlink:href="#ArialMT-105"
       id="use133"
       y="0"
       width="100%"
       height="100%" />
    <use
       x="105.51758"
       xlink:href="#ArialMT-112"
       id="use135"
       y="0"
       width="100%"
       height="100%" />
    <use
       x="161.13281"
       xlink:href="#ArialMT-112"
       id="use137"
       y="0"
       width="100%"
       height="100%" />
    <use
       x="216.74805"
       xlink:href="#ArialMT-105"
       id="use139"
       y="0"
       width="100%"
       height="100%" />
    <use
       x="238.96484"
       xlink:href="#ArialMT-110"
       id="use141"
       y="0"
       width="100%"
       height="100%" />
    <use
       x="294.58008"
       xlink:href="#ArialMT-103"
       id="use143"
       y="0"
       width="100%"
       height="100%" />
    <use
       x="350.19531"
       xlink:href="#ArialMT-32"
       id="use145"
       y="0"
       width="100%"
       height="100%" />
    <use
       x="377.97852"
       xlink:href="#ArialMT-99"
       id="use147"
       y="0"
       width="100%"
       height="100%" />
    <use
       x="427.97852"
       xlink:href="#ArialMT-97"
       id="use149"
       y="0"
       width="100%"
       height="100%" />
    <use
       x="483.59375"
       xlink:href="#ArialMT-110"
       id="use151"
       y="0"
       width="100%"
       height="100%" />
    <use
       x="539.20898"
       xlink:href="#ArialMT-100"
       id="use153"
       y="0"
       width="100%"
       height="100%" />
    <use
       x="594.82422"
       xlink:href="#ArialMT-105"
       id="use155"
       y="0"
       width="100%"
       height="100%" />
    <use
       x="617.04102"
       xlink:href="#ArialMT-100"
       id="use157"
       y="0"
       width="100%"
       height="100%" />
    <use
       x="672.65625"
       xlink:href="#ArialMT-97"
       id="use159"
       y="0"
       width="100%"
       height="100%" />
    <use
       x="728.27148"
       xlink:href="#ArialMT-116"
       id="use161"
       y="0"
       width="100%"
       height="100%" />
    <use
       x="756.05469"
       xlink:href="#ArialMT-101"
       id="use163"
       y="0"
       width="100%"
       height="100%" />
    <use
       x="811.66992"
       xlink:href="#ArialMT-32"
       id="use165"
       y="0"
       width="100%"
       height="100%" />
    <use
       x="839.45312"
       xlink:href="#ArialMT-116"
       id="use167"
       y="0"
       width="100%"
       height="100%" />
    <use
       x="867.23633"
       xlink:href="#ArialMT-104"
       id="use169"
       y="0"
       width="100%"
       height="100%" />
    <use
       x="922.85156"
       xlink:href="#ArialMT-114"
       id="use171"
       y="0"
       width="100%"
       height="100%" />
    <use
       x="956.15234"
       xlink:href="#ArialMT-101"
       id="use173"
       y="0"
       width="100%"
       height="100%" />
    <use
       x="1011.7676"
       xlink:href="#ArialMT-115"
       id="use175"
       y="0"
       width="100%"
       height="100%" />
    <use
       x="1061.7676"
       xlink:href="#ArialMT-104"
       id="use177"
       y="0"
       width="100%"
       height="100%" />
    <use
       x="1117.3828"
       xlink:href="#ArialMT-111"
       id="use179"
       y="0"
       width="100%"
       height="100%" />
    <use
       x="1172.998"
       xlink:href="#ArialMT-108"
       id="use181"
       y="0"
       width="100%"
       height="100%" />
    <use
       x="1195.2148"
       xlink:href="#ArialMT-100"
       id="use183"
       y="0"
       width="100%"
       height="100%" />
  </g>
  <g
     id="line2d_7"
     transform="translate(7.5300091,1.5)">
    <path
       clip-path="url(#p1012691f00)"
       d="M 57.6,295.488 H 414.72"
       style="fill:none;stroke:#ffffff;stroke-linecap:round"
       id="path189" />
  </g>
  <g
     id="text_8"
     transform="translate(7.5300091,1.5)">
    <!-- 0.000 -->
    <g
       style="fill:#262626"
       transform="matrix(0.11,0,0,-0.11,20.575938,299.4248)"
       id="g202">
      <use
         xlink:href="#ArialMT-48"
         id="use192"
         x="0"
         y="0"
         width="100%"
         height="100%" />
      <use
         x="55.615234"
         xlink:href="#ArialMT-46"
         id="use194"
         y="0"
         width="100%"
         height="100%" />
      <use
         x="83.398438"
         xlink:href="#ArialMT-48"
         id="use196"
         y="0"
         width="100%"
         height="100%" />
      <use
         x="139.01367"
         xlink:href="#ArialMT-48"
         id="use198"
         y="0"
         width="100%"
         height="100%" />
      <use
         x="194.62891"
         xlink:href="#ArialMT-48"
         id="use200"
         y="0"
         width="100%"
         height="100%" />
    </g>
  </g>
  <g
     id="line2d_8"
     transform="translate(7.5300091,1.5)">
    <path
       clip-path="url(#p1012691f00)"
       d="M 57.6,264.99259 H 414.72"
       style="fill:none;stroke:#ffffff;stroke-linecap:round"
       id="path206" />
  </g>
  <g
     id="text_9"
     transform="translate(7.5300091,1.5)">
    <!-- 0.025 -->
    <g
       style="fill:#262626"
       transform="matrix(0.11,0,0,-0.11,20.575938,268.92939)"
       id="g222">
      <defs
         id="defs210">
        <path
           d="M 4.15625,18.75 13.375,19.53125 Q 14.40625,12.796875 18.140625,9.390625 21.875,6 27.15625,6 33.5,6 37.890625,10.78125 42.28125,15.578125 42.28125,23.484375 42.28125,31 38.0625,35.34375 33.84375,39.703125 27,39.703125 q -4.25,0 -7.671875,-1.9375 -3.40625,-1.921875 -5.359375,-5 l -8.25,1.078125 6.921875,36.765625 H 48.25 v -8.40625 H 19.671875 L 15.828125,42.96875 q 6.4375,4.5 13.515625,4.5 9.375,0 15.8125,-6.5 6.453125,-6.5 6.453125,-16.703125 0,-9.71875 -5.65625,-16.796875 -6.890625,-8.6875 -18.796875,-8.6875 -9.765625,0 -15.953125,5.46875 Q 5.03125,9.71875 4.15625,18.75 Z"
           id="ArialMT-53" />
      </defs>
      <use
         xlink:href="#ArialMT-48"
         id="use212"
         x="0"
         y="0"
         width="100%"
         height="100%" />
      <use
         x="55.615234"
         xlink:href="#ArialMT-46"
         id="use214"
         y="0"
         width="100%"
         height="100%" />
      <use
         x="83.398438"
         xlink:href="#ArialMT-48"
         id="use216"
         y="0"
         width="100%"
         height="100%" />
      <use
         x="139.01367"
         xlink:href="#ArialMT-50"
         id="use218"
         y="0"
         width="100%"
         height="100%" />
      <use
         x="194.62891"
         xlink:href="#ArialMT-53"
         id="use220"
         y="0"
         width="100%"
         height="100%" />
    </g>
  </g>
  <g
     id="line2d_9"
     transform="translate(7.5300091,1.5)">
    <path
       clip-path="url(#p1012691f00)"
       d="M 57.6,234.49718 H 414.72"
       style="fill:none;stroke:#ffffff;stroke-linecap:round"
       id="path226" />
  </g>
  <g
     id="text_10"
     transform="translate(7.5300091,1.5)">
    <!-- 0.050 -->
    <g
       style="fill:#262626"
       transform="matrix(0.11,0,0,-0.11,20.575938,238.43397)"
       id="g239">
      <use
         xlink:href="#ArialMT-48"
         id="use229"
         x="0"
         y="0"
         width="100%"
         height="100%" />
      <use
         x="55.615234"
         xlink:href="#ArialMT-46"
         id="use231"
         y="0"
         width="100%"
         height="100%" />
      <use
         x="83.398438"
         xlink:href="#ArialMT-48"
         id="use233"
         y="0"
         width="100%"
         height="100%" />
      <use
         x="139.01367"
         xlink:href="#ArialMT-53"
         id="use235"
         y="0"
         width="100%"
         height="100%" />
      <use
         x="194.62891"
         xlink:href="#ArialMT-48"
         id="use237"
         y="0"
         width="100%"
         height="100%" />
    </g>
  </g>
  <g
     id="line2d_10"
     transform="translate(7.5300091,1.5)">
    <path
       clip-path="url(#p1012691f00)"
       d="M 57.6,204.00177 H 414.72"
       style="fill:none;stroke:#ffffff;stroke-linecap:round"
       id="path243" />
  </g>
  <g
     id="text_11"
     transform="translate(7.5300091,1.5)">
    <!-- 0.075 -->
    <g
       style="fill:#262626"
       transform="matrix(0.11,0,0,-0.11,20.575938,207.93856)"
       id="g259">
      <defs
         id="defs247">
        <path
           d="m 4.734375,62.203125 v 8.453125 h 46.34375 V 63.8125 Q 44.234375,56.546875 37.515625,44.484375 30.8125,32.421875 27.15625,19.671875 24.515625,10.6875 23.78125,0 H 14.75 q 0.140625,8.453125 3.3125,20.40625 3.171875,11.96875 9.109375,23.078125 5.9375,11.109375 12.625,18.71875 z"
           id="ArialMT-55" />
      </defs>
      <use
         xlink:href="#ArialMT-48"
         id="use249"
         x="0"
         y="0"
         width="100%"
         height="100%" />
      <use
         x="55.615234"
         xlink:href="#ArialMT-46"
         id="use251"
         y="0"
         width="100%"
         height="100%" />
      <use
         x="83.398438"
         xlink:href="#ArialMT-48"
         id="use253"
         y="0"
         width="100%"
         height="100%" />
      <use
         x="139.01367"
         xlink:href="#ArialMT-55"
         id="use255"
         y="0"
         width="100%"
         height="100%" />
      <use
         x="194.62891"
         xlink:href="#ArialMT-53"
         id="use257"
         y="0"
         width="100%"
         height="100%" />
    </g>
  </g>
  <g
     id="line2d_11"
     transform="translate(7.5300091,1.5)">
    <path
       clip-path="url(#p1012691f00)"
       d="M 57.6,173.50635 H 414.72"
       style="fill:none;stroke:#ffffff;stroke-linecap:round"
       id="path263" />
  </g>
  <g
     id="text_12"
     transform="translate(7.5300091,1.5)">
    <!-- 0.100 -->
    <g
       style="fill:#262626"
       transform="matrix(0.11,0,0,-0.11,20.575938,177.44315)"
       id="g276">
      <use
         xlink:href="#ArialMT-48"
         id="use266"
         x="0"
         y="0"
         width="100%"
         height="100%" />
      <use
         x="55.615234"
         xlink:href="#ArialMT-46"
         id="use268"
         y="0"
         width="100%"
         height="100%" />
      <use
         x="83.398438"
         xlink:href="#ArialMT-49"
         id="use270"
         y="0"
         width="100%"
         height="100%" />
      <use
         x="139.01367"
         xlink:href="#ArialMT-48"
         id="use272"
         y="0"
         width="100%"
         height="100%" />
      <use
         x="194.62891"
         xlink:href="#ArialMT-48"
         id="use274"
         y="0"
         width="100%"
         height="100%" />
    </g>
  </g>
  <g
     id="line2d_12"
     transform="translate(7.5300091,1.5)">
    <path
       clip-path="url(#p1012691f00)"
       d="M 57.6,143.01094 H 414.72"
       style="fill:none;stroke:#ffffff;stroke-linecap:round"
       id="path280" />
  </g>
  <g
     id="text_13"
     transform="translate(7.5300091,1.5)">
    <!-- 0.125 -->
    <g
       style="fill:#262626"
       transform="matrix(0.11,0,0,-0.11,20.575938,146.94774)"
       id="g293">
      <use
         xlink:href="#ArialMT-48"
         id="use283"
         x="0"
         y="0"
         width="100%"
         height="100%" />
      <use
         x="55.615234"
         xlink:href="#ArialMT-46"
         id="use285"
         y="0"
         width="100%"
         height="100%" />
      <use
         x="83.398438"
         xlink:href="#ArialMT-49"
         id="use287"
         y="0"
         width="100%"
         height="100%" />
      <use
         x="139.01367"
         xlink:href="#ArialMT-50"
         id="use289"
         y="0"
         width="100%"
         height="100%" />
      <use
         x="194.62891"
         xlink:href="#ArialMT-53"
         id="use291"
         y="0"
         width="100%"
         height="100%" />
    </g>
  </g>
  <g
     id="line2d_13"
     transform="translate(7.5300091,1.5)">
    <path
       clip-path="url(#p1012691f00)"
       d="M 57.6,112.51553 H 414.72"
       style="fill:none;stroke:#ffffff;stroke-linecap:round"
       id="path297" />
  </g>
  <g
     id="text_14"
     transform="translate(7.5300091,1.5)">
    <!-- 0.150 -->
    <g
       style="fill:#262626"
       transform="matrix(0.11,0,0,-0.11,20.575938,116.45233)"
       id="g310">
      <use
         xlink:href="#ArialMT-48"
         id="use300"
         x="0"
         y="0"
         width="100%"
         height="100%" />
      <use
         x="55.615234"
         xlink:href="#ArialMT-46"
         id="use302"
         y="0"
         width="100%"
         height="100%" />
      <use
         x="83.398438"
         xlink:href="#ArialMT-49"
         id="use304"
         y="0"
         width="100%"
         height="100%" />
      <use
         x="139.01367"
         xlink:href="#ArialMT-53"
         id="use306"
         y="0"
         width="100%"
         height="100%" />
      <use
         x="194.62891"
         xlink:href="#ArialMT-48"
         id="use308"
         y="0"
         width="100%"
         height="100%" />
    </g>
  </g>
  <g
     id="line2d_14"
     transform="translate(7.5300091,1.5)">
    <path
       clip-path="url(#p1012691f00)"
       d="M 57.6,82.02012 H 414.72"
       style="fill:none;stroke:#ffffff;stroke-linecap:round"
       id="path314" />
  </g>
  <g
     id="text_15"
     transform="translate(7.5300091,1.5)">
    <!-- 0.175 -->
    <g
       style="fill:#262626"
       transform="matrix(0.11,0,0,-0.11,20.575938,85.956917)"
       id="g327">
      <use
         xlink:href="#ArialMT-48"
         id="use317"
         x="0"
         y="0"
         width="100%"
         height="100%" />
      <use
         x="55.615234"
         xlink:href="#ArialMT-46"
         id="use319"
         y="0"
         width="100%"
         height="100%" />
      <use
         x="83.398438"
         xlink:href="#ArialMT-49"
         id="use321"
         y="0"
         width="100%"
         height="100%" />
      <use
         x="139.01367"
         xlink:href="#ArialMT-55"
         id="use323"
         y="0"
         width="100%"
         height="100%" />
      <use
         x="194.62891"
         xlink:href="#ArialMT-53"
         id="use325"
         y="0"
         width="100%"
         height="100%" />
    </g>
  </g>
  <g
     id="line2d_15"
     transform="translate(7.5300091,1.5)">
    <path
       clip-path="url(#p1012691f00)"
       d="M 57.6,51.524708 H 414.72"
       style="fill:none;stroke:#ffffff;stroke-linecap:round"
       id="path331" />
  </g>
  <g
     id="text_16"
     transform="translate(7.5300091,1.5)">
    <!-- 0.200 -->
    <g
       style="fill:#262626"
       transform="matrix(0.11,0,0,-0.11,20.575938,55.461505)"
       id="g344">
      <use
         xlink:href="#ArialMT-48"
         id="use334"
         x="0"
         y="0"
         width="100%"
         height="100%" />
      <use
         x="55.615234"
         xlink:href="#ArialMT-46"
         id="use336"
         y="0"
         width="100%"
         height="100%" />
      <use
         x="83.398438"
         xlink:href="#ArialMT-50"
         id="use338"
         y="0"
         width="100%"
         height="100%" />
      <use
         x="139.01367"
         xlink:href="#ArialMT-48"
         id="use340"
         y="0"
         width="100%"
         height="100%" />
      <use
         x="194.62891"
         xlink:href="#ArialMT-48"
         id="use342"
         y="0"
         width="100%"
         height="100%" />
    </g>
  </g>
  <g
     style="fill:#262626"
     transform="matrix(0,-0.12,-0.12,0,11.127391,236.72925)"
     id="g394">
    <use
       xlink:href="#ArialMT-70"
       id="use348"
       x="0"
       y="0"
       width="100%"
       height="100%" />
    <use
       x="61.083984"
       xlink:href="#ArialMT-108"
       id="use350"
       y="0"
       width="100%"
       height="100%" />
    <use
       x="83.300781"
       xlink:href="#ArialMT-105"
       id="use352"
       y="0"
       width="100%"
       height="100%" />
    <use
       x="105.51758"
       xlink:href="#ArialMT-112"
       id="use354"
       y="0"
       width="100%"
       height="100%" />
    <use
       x="161.13281"
       xlink:href="#ArialMT-112"
       id="use356"
       y="0"
       width="100%"
       height="100%" />
    <use
       x="216.74805"
       xlink:href="#ArialMT-105"
       id="use358"
       y="0"
       width="100%"
       height="100%" />
    <use
       x="238.96484"
       xlink:href="#ArialMT-110"
       id="use360"
       y="0"
       width="100%"
       height="100%" />
    <use
       x="294.58008"
       xlink:href="#ArialMT-103"
       id="use362"
       y="0"
       width="100%"
       height="100%" />
    <use
       x="350.19531"
       xlink:href="#ArialMT-32"
       id="use364"
       y="0"
       width="100%"
       height="100%" />
    <use
       x="377.97852"
       xlink:href="#ArialMT-99"
       id="use366"
       y="0"
       width="100%"
       height="100%" />
    <use
       x="427.97852"
       xlink:href="#ArialMT-97"
       id="use368"
       y="0"
       width="100%"
       height="100%" />
    <use
       x="483.59375"
       xlink:href="#ArialMT-110"
       id="use370"
       y="0"
       width="100%"
       height="100%" />
    <use
       x="539.20898"
       xlink:href="#ArialMT-100"
       id="use372"
       y="0"
       width="100%"
       height="100%" />
    <use
       x="594.82422"
       xlink:href="#ArialMT-105"
       id="use374"
       y="0"
       width="100%"
       height="100%" />
    <use
       x="617.04102"
       xlink:href="#ArialMT-100"
       id="use376"
       y="0"
       width="100%"
       height="100%" />
    <use
       x="672.65625"
       xlink:href="#ArialMT-97"
       id="use378"
       y="0"
       width="100%"
       height="100%" />
    <use
       x="728.27148"
       xlink:href="#ArialMT-116"
       id="use380"
       y="0"
       width="100%"
       height="100%" />
    <use
       x="756.05469"
       xlink:href="#ArialMT-101"
       id="use382"
       y="0"
       width="100%"
       height="100%" />
    <use
       x="811.66992"
       xlink:href="#ArialMT-32"
       id="use384"
       y="0"
       width="100%"
       height="100%" />
    <use
       x="839.45312"
       xlink:href="#ArialMT-114"
       id="use386"
       y="0"
       width="100%"
       height="100%" />
    <use
       x="872.75391"
       xlink:href="#ArialMT-97"
       id="use388"
       y="0"
       width="100%"
       height="100%" />
    <use
       x="928.36914"
       xlink:href="#ArialMT-116"
       id="use390"
       y="0"
       width="100%"
       height="100%" />
    <use
       x="956.15234"
       xlink:href="#ArialMT-101"
       id="use392"
       y="0"
       width="100%"
       height="100%" />
  </g>
  <path
     clip-path="url(#p1012691f00)"
     d="m 73.832727,53.568 3.279339,45.842433 3.279339,12.879737 3.279339,11.4311 3.279339,8.67882 3.279338,10.17649 3.279339,7.79012 3.279339,6.24492 3.279341,6.68542 3.27934,4.43634 3.27934,3.90816 3.27934,4.7242 3.27933,4.23839 3.27934,4.2204 3.27934,4.47745 3.27934,2.93757 3.27934,3.26868 3.27934,2.65848 3.27934,2.4321 3.27933,2.02921 3.27934,2.13583 3.27934,2.83584 3.27934,3.56487 3.27934,3.80124 3.27934,3.10624 3.27934,2.81139 3.27934,2.68051 3.27934,2.5296 3.27933,3.04486 3.27934,2.42992 3.27934,1.50397 3.27934,3.91775 3.27934,3.87168 3.27934,4.14587 3.27934,1.74354 3.27934,1.84156 3.27934,2.52091 3.27933,0.84044 3.27934,0.8553 3.27934,1.47125 3.27934,1.2842 3.27934,1.96987 3.27934,1.66825 3.27934,1.24743 3.27934,1.8694 3.27933,1.39406 3.27934,1.51934 3.27934,1.19216 3.27934,0.97891 3.27934,1.28864 3.27934,1.15832 3.27934,1.10774 3.27934,0.54059 3.27934,0.72583 3.27933,0.63592 3.27934,0.49597 3.27934,0.88982 3.27934,0.66214 3.27934,0.33989 3.27934,0.79063 3.27934,0.41639 3.27934,0.17562 3.27934,0.3032 3.27933,0.59238 3.27934,1.17808 3.27934,0.63645 3.27934,0.77064 3.27934,0.59724 3.27934,0.368 h 3.27934 l 3.27934,0.83678 3.27934,0.38044 3.27933,0.38369 3.27934,0.17446 3.27934,0.0804 3.27934,0.15589 3.27934,0.10399 3.27934,0.0884 3.27934,0.39492 3.27934,0.20792 h 3.27934 l 3.27933,0.88166 3.27934,0.14732 3.27934,0.3774 3.27934,0.39756 h 3.27934 l 3.27934,0.3105 3.27934,0.36861 3.27933,0.82226 h 3.27934 3.27934 l 3.27934,0.18941 3.27934,0.4025 h 3.27934 l 3.27934,0.0956 3.27934,0.0676 3.27934,0.0789 h 3.27933 3.27934 l 3.27934,7.46412"
     style="fill:none;stroke:#4c72b0;stroke-width:1.5;stroke-linecap:round"
     id="path398"
     transform="translate(7.5300091,1.5)" />
  <path
     clip-path="url(#p1012691f00)"
     d="m 73.832727,84.255522 3.279339,36.424828 3.279339,10.94697 3.279339,9.45438 3.279339,8.57648 3.279338,8.68055 3.279339,6.65055 3.279339,6.13977 3.279341,5.49871 3.27934,4.56566 3.27934,3.11725 3.27934,4.60358 3.27933,4.13062 3.27934,3.78065 3.27934,3.64262 3.27934,2.55597 3.27934,2.92204 3.27934,2.49236 3.27934,2.36229 3.27933,2.06147 3.27934,2.15386 3.27934,2.62264 3.27934,3.23746 3.27934,3.52344 3.27934,2.7512 3.27934,2.69196 3.27934,2.32754 3.27934,2.15258 3.27933,2.50454 3.27934,2.17418 3.27934,1.68699 3.27934,3.05439 3.27934,3.37849 3.27934,3.27805 3.27934,2.48041 3.27934,2.09013 3.27934,2.08162 3.27933,1.09364 3.27934,1.21283 3.27934,1.66814 3.27934,1.23286 3.27934,1.84087 3.27934,1.1427 3.27934,1.28171 3.27934,1.33214 3.27933,1.33543 3.27934,1.35134 3.27934,0.80872 3.27934,0.7349 3.27934,1.23136 3.27934,1.15786 3.27934,0.90283 3.27934,0.57835 3.27934,0.86329 3.27933,0.64973 3.27934,0.61066 3.27934,0.72736 3.27934,0.51492 3.27934,0.27252 3.27934,0.65345 3.27934,0.49215 3.27934,0.2377 3.27934,0.33263 3.27933,0.37847 3.27934,0.91944 3.27934,0.40662 3.27934,0.68735 3.27934,0.38157 3.27934,0.28465 3.27934,0.033 3.27934,0.58053 3.27934,0.59601 3.27933,0.33972 3.27934,0.15067 3.27934,0.0513 3.27934,0.0996 3.27934,0.10565 3.27934,0.0565 3.27934,0.37375 3.27934,0.19357 h 3.27934 l 3.27933,0.60333 3.27934,0.0941 3.27934,0.34189 3.27934,0.254 3.27934,0.0409 3.27934,0.30002 3.27934,0.27472 3.27933,0.57015 3.27934,0.0554 h 3.27934 l 3.27934,0.12101 3.27934,0.31252 3.27934,0.1661 3.27934,0.0611 3.27934,0.0824 3.27934,0.0913 3.27933,0.0401 h 3.27934 l 3.27934,5.12869"
     style="fill:none;stroke:#dd8452;stroke-width:1.5;stroke-linecap:round"
     id="path401"
     transform="translate(7.5300091,1.5)" />
  <path
     clip-path="url(#p1012691f00)"
     d="m 73.832727,93.040548 3.279339,31.661052 3.279339,10.49849 3.279339,8.76027 3.279339,7.72772 3.279338,7.70689 3.279339,6.0266 3.279339,5.31506 3.279341,5.38534 3.27934,3.93632 3.27934,3.64096 3.27934,4.52207 3.27933,4.03228 3.27934,3.50734 3.27934,3.76872 3.27934,2.41004 3.27934,2.94832 3.27934,2.54129 3.27934,2.51324 3.27933,2.29643 3.27934,1.99469 3.27934,2.60675 3.27934,3.46597 3.27934,3.06889 3.27934,2.71568 3.27934,2.27956 3.27934,2.00238 3.27934,1.86647 3.27933,1.97177 3.27934,2.31627 3.27934,1.61909 3.27934,3.1868 3.27934,2.88764 3.27934,2.92856 3.27934,2.24926 3.27934,1.79974 3.27934,1.96614 3.27933,1.06867 3.27934,1.13243 3.27934,1.50563 3.27934,1.03939 3.27934,1.45679 3.27934,1.02518 3.27934,1.20773 3.27934,1.33001 3.27933,1.36139 3.27934,1.19995 3.27934,0.76132 3.27934,0.9058 3.27934,1.52815 3.27934,1.03893 3.27934,0.87421 3.27934,0.77573 3.27934,0.76949 3.27933,0.66607 3.27934,0.69544 3.27934,0.62368 3.27934,0.613 3.27934,0.46952 3.27934,0.87372 3.27934,0.51776 3.27934,0.36407 3.27934,0.32032 3.27933,0.71849 3.27934,0.95143 3.27934,0.37553 3.27934,0.58917 3.27934,0.688 3.27934,0.65244 3.27934,0.0811 3.27934,0.68584 3.27934,0.45652 3.27933,0.26021 3.27934,0.49056 3.27934,0.59059 3.27934,0.38524 3.27934,0.0809 3.27934,0.22539 3.27934,0.77737 3.27934,0.37671 h 3.27934 l 3.27933,0.46213 3.27934,0.14541 3.27934,0.39497 3.27934,0.19455 3.27934,0.0738 3.27934,0.54814 3.27934,0.2681 3.27933,0.52903 3.27934,0.18931 h 3.27934 l 3.27934,0.0927 3.27934,0.23938 3.27934,0.12722 3.27934,0.0468 3.27934,0.24812 3.27934,0.10324 3.27933,0.0307 h 3.27934 l 3.27934,6.11998"
     style="fill:none;stroke:#55a868;stroke-width:1.5;stroke-linecap:round"
     id="path404"
     transform="translate(7.5300091,1.5)" />
  <path
     d="M 65.130009,309.084 V 42.972"
     style="fill:none;stroke:#ffffff;stroke-width:1.25;stroke-linecap:square;stroke-linejoin:miter"
     id="path407" />
  <path
     d="M 422.25001,309.084 V 42.972"
     style="fill:none;stroke:#ffffff;stroke-width:1.25;stroke-linecap:square;stroke-linejoin:miter"
     id="path410" />
  <path
     d="M 65.130009,309.084 H 422.25001"
     style="fill:none;stroke:#ffffff;stroke-width:1.25;stroke-linecap:square;stroke-linejoin:miter"
     id="path413" />
  <path
     d="M 65.130009,42.972 H 422.25001"
     style="fill:none;stroke:#ffffff;stroke-width:1.25;stroke-linecap:square;stroke-linejoin:miter"
     id="path416" />
  <path
     d="m 346.34142,98.451531 h 68.20859 q 2.2,0 2.2,-2.2 V 50.672 q 0,-2.2 -2.2,-2.2 h -68.20859 q -2.2,0 -2.2,2.2 v 45.579531 q 0,2.2 2.2,2.2 z"
     style="opacity:0.8;fill:#eaeaf2;stroke:#cccccc;stroke-linejoin:miter"
     id="path419" />
  <path
     d="m 348.54142,56.895594 h 22"
     style="fill:none;stroke:#4c72b0;stroke-width:1.5;stroke-linecap:round"
     id="path422" />
  <g
     style="fill:#262626"
     transform="matrix(0.11,0,0,-0.11,379.34142,60.745594)"
     id="g435">
    <defs
       id="defs427">
      <path
         d="m 14.703125,0 h -8.15625 v 71.578125 h 8.78125 v -25.53125 q 5.578125,6.984375 14.21875,6.984375 4.78125,0 9.046875,-1.9375 Q 42.875,49.171875 45.625,45.671875 48.390625,42.1875 49.953125,37.25 q 1.5625,-4.921875 1.5625,-10.546875 0,-13.328125 -6.59375,-20.609375 -6.59375,-7.265625 -15.8125,-7.265625 -9.1875,0 -14.40625,7.671875 z M 14.59375,26.3125 Q 14.59375,17 17.140625,12.84375 21.296875,6.0625 28.375,6.0625 q 5.75,0 9.953125,5 4.203125,5 4.203125,14.921875 0,10.15625 -4.03125,14.984375 -4.03125,4.828125 -9.734375,4.828125 -5.765625,0 -9.96875,-5 -4.203125,-5 -4.203125,-14.484375 z"
         id="ArialMT-98" />
    </defs>
    <use
       xlink:href="#ArialMT-98"
       id="use429"
       x="0"
       y="0"
       width="100%"
       height="100%" />
    <use
       x="55.615234"
       xlink:href="#ArialMT-97"
       id="use431"
       y="0"
       width="100%"
       height="100%" />
    <use
       x="111.23047"
       xlink:href="#ArialMT-114"
       id="use433"
       y="0"
       width="100%"
       height="100%" />
  </g>
  <path
     d="m 348.54142,72.455437 h 22"
     style="fill:none;stroke:#dd8452;stroke-width:1.5;stroke-linecap:round"
     id="path438" />
  <g
     style="fill:#262626"
     transform="matrix(0.11,0,0,-0.11,379.34142,76.305437)"
     id="g450">
    <use
       xlink:href="#ArialMT-108"
       id="use442"
       x="0"
       y="0"
       width="100%"
       height="100%" />
    <use
       x="22.216797"
       xlink:href="#ArialMT-105"
       id="use444"
       y="0"
       width="100%"
       height="100%" />
    <use
       x="44.433594"
       xlink:href="#ArialMT-110"
       id="use446"
       y="0"
       width="100%"
       height="100%" />
    <use
       x="100.04883"
       xlink:href="#ArialMT-101"
       id="use448"
       y="0"
       width="100%"
       height="100%" />
  </g>
  <path
     d="m 348.54142,88.015281 h 22"
     style="fill:none;stroke:#55a868;stroke-width:1.5;stroke-linecap:round"
     id="path453" />
  <g
     style="fill:#262626"
     transform="matrix(0.11,0,0,-0.11,379.34142,91.865281)"
     id="g471">
    <use
       xlink:href="#ArialMT-115"
       id="use457"
       x="0"
       y="0"
       width="100%"
       height="100%" />
    <use
       x="50"
       xlink:href="#ArialMT-99"
       id="use459"
       y="0"
       width="100%"
       height="100%" />
    <use
       x="100"
       xlink:href="#ArialMT-97"
       id="use461"
       y="0"
       width="100%"
       height="100%" />
    <use
       x="155.61523"
       xlink:href="#ArialMT-116"
       id="use463"
       y="0"
       width="100%"
       height="100%" />
    <use
       x="183.39844"
       xlink:href="#ArialMT-116"
       id="use465"
       y="0"
       width="100%"
       height="100%" />
    <use
       x="211.18164"
       xlink:href="#ArialMT-101"
       id="use467"
       y="0"
       width="100%"
       height="100%" />
    <use
       x="266.79688"
       xlink:href="#ArialMT-114"
       id="use469"
       y="0"
       width="100%"
       height="100%" />
  </g>
  <defs
     id="defs480">
    <clipPath
       id="p1012691f00">
      <rect
         height="266.112"
         width="357.12"
         x="57.599998"
         y="41.472"
         id="rect477" />
    </clipPath>
  </defs>
</svg>
